SplineFontDB: 3.1
FontName: Monda-Medium
FullName: Monda Medium
FamilyName: Monda
Weight: Normal
Version: 1.000;PS (version unavailable);hotconv 1.0.57;makeotf.lib2.0.21895 DEVELOPMENT
ItalicAngle: 0
UnderlinePosition: 0
UnderlineWidth: 0
Ascent: 1638
Descent: 410
UFOAscent: 1638
UFODescent: -410
LayerCount: 2
Layer: 0 0 "Back"  1 0
Layer: 1 0 "Fore"  0 0
FSType: 8
OS2Version: 0
OS2_WeightWidthSlopeOnly: 0
OS2_UseTypoMetrics: 0
CreationTime: 1352843667
ModificationTime: 1352843741
PfmFamily: 0
TTFWeight: 400
TTFWidth: 5
LineGap: 0
VLineGap: 0
Panose: 2 0 7 3 0 0 0 0 0 0
OS2TypoAscent: 1638
OS2TypoAOffset: 0
OS2TypoDescent: -410
OS2TypoDOffset: 0
OS2TypoLinegap: 0
OS2WinAscent: 2361
OS2WinAOffset: 0
OS2WinDescent: 572
OS2WinDOffset: 0
HheadAscent: 2361
HheadAOffset: 0
HheadDescent: -572
HheadDOffset: 0
OS2SubXSize: 1331
OS2SubYSize: 1228
OS2SubXOff: 0
OS2SubYOff: 153
OS2SupXSize: 1331
OS2SupYSize: 1228
OS2SupXOff: 0
OS2SupYOff: 716
OS2StrikeYSize: 0
OS2StrikeYPos: 650
OS2Vendor: 'newt'
OS2CodePages: 00000001.00000000
OS2UnicodeRanges: 0000002f.0000004c.00000002.00000000
Lookup: 258 0 0 "'kern' Horizontal Kerning in Latin lookup 0"  {"'kern' Horizontal Kerning in Latin lookup 0 subtable"  } ['kern' ('latn' <'dflt' > ) ]
DEI: 91125
LangName: 1033 "" "" "" "1.000;newt;Monda-Medium" "" "Version 1.000;PS (version unavailable);hotconv 1.0.57;makeotf.lib2.0.21895 DEVELOPMENT" 
PickledData: "(dp1
S'com.typemytype.robofont.compileSettings.autohint'
p2
I0
sS'com.typemytype.robofont.compileSettings.decompose'
p3
I0
sS'com.typemytype.robofont.foreground.layerStrokeColor'
p4
(F0.5
F0
F0.5
F0.69999999999999996
tp5
sS'com.typemytype.robofont.compileSettings.path'
p6
S'/Users/vern/Github/mondaFont/src/Monda-Medium.otf'
p7
sS'com.typemytype.robofont.b.layerStrokeColor'
p8
(F1
F0.75
F0
F0.69999999999999996
tp9
sS'com.typemytype.robofont.compileSettings.releaseMode'
p10
I0
sS'com.robofont.robohint'
p11
(dp12
S'programs'
p13
(dp14
S'maxp'
p15
(dp16
S'tableTag'
p17
S'maxp'
p18

StartChar: .notdef
Encoding: 65536 -1 0
Width: 1024
VWidth: 0
Flags: HW
PickledData: "(dp1
S'com.typemytype.robofont.layerData'
p2
(dp3
s."
LayerCount: 2
UndoRedoHistory
Layer: 1
Undoes
UndoOperation
Index: 0
Type: 1
WasModified: 0
WasOrder2: 0
Width: 1024
VWidth: 0
LBearingChange: 0
UnicodeEnc: 0
InstructionsLength: 0
SplineSet
102 0 m 1
 922 0 l 1
 922 1092 l 1
 102 1092 l 1
 102 0 l 1
204 102 m 1
 204 990 l 1
 820 990 l 1
 820 102 l 1
 204 102 l 1
EndSplineSet
EndUndoOperation
EndUndoes
Redoes
EndRedoes
EndUndoRedoHistory
Fore
SplineSet
102 0 m 1
 102 1092 l 1
 922 1092 l 1
 922 0 l 1
 102 0 l 1
204 102 m 1
 820 102 l 1
 820 990 l 1
 204 990 l 1
 204 102 l 1
EndSplineSet
EndChar

StartChar: A
Encoding: 33 65 1
Width: 1376
VWidth: 0
Flags: HW
PickledData: "(dp1
S'com.typemytype.robofont.layerData'
p2
(dp3
s."
LayerCount: 2
UndoRedoHistory
Layer: 1
Undoes
UndoOperation
Index: 0
Type: 1
WasModified: 0
WasOrder2: 0
Width: 1376
VWidth: 0
LBearingChange: 0
UnicodeEnc: 0
InstructionsLength: 0
SplineSet
302 417 m 1
 1060 417 l 1
 1060 282 l 1
 302 282 l 1
 302 417 l 1
1308 0 m 1
 1103 0 l 1
 693 1184 l 1
 277 0 l 1
 68 0 l 1
 599 1446 l 1
 776 1446 l 1
 1308 0 l 1
EndSplineSet
EndUndoOperation
EndUndoes
Redoes
EndRedoes
EndUndoRedoHistory
Fore
SplineSet
302 417 m 1
 302 282 l 1
 1060 282 l 1
 1060 417 l 1
 302 417 l 1
1308 0 m 1
 1103 0 l 1
 693 1184 l 1
 277 0 l 1
 68 0 l 1
 599 1446 l 1
 776 1446 l 1
 1308 0 l 1
EndSplineSet
EndChar

StartChar: B
Encoding: 34 66 2
Width: 1462
VWidth: 0
Flags: HW
PickledData: "(dp1
S'com.typemytype.robofont.layerData'
p2
(dp3
s."
LayerCount: 2
UndoRedoHistory
Layer: 1
Undoes
UndoOperation
Index: 0
Type: 1
WasModified: 0
WasOrder2: 0
Width: 1462
VWidth: 0
LBearingChange: 0
UnicodeEnc: 0
InstructionsLength: 0
SplineSet
799 -1 m 2
 1166 -1 1333 135 1333 448 c 0
 1333 572 1267 731 1116 769 c 1
 1230 809 1258 922 1258 1049 c 0
 1258 1320 1163 1446 762 1446 c 2
 224 1446 l 1
 224 -1 l 1
 799 -1 l 2
426 149 m 1
 426 1295 l 1
 742 1295 l 2
 986 1295 1057 1256 1057 1047 c 0
 1057 917 1009 833 827 833 c 2
 398 833 l 1
 398 696 l 1
 856 696 l 2
 1077 696 1132 578 1132 446 c 0
 1132 180 1003 149 779 149 c 2
 426 149 l 1
EndSplineSet
EndUndoOperation
EndUndoes
Redoes
EndRedoes
EndUndoRedoHistory
Fore
SplineSet
799 -1 m 2
 224 -1 l 1
 224 1446 l 1
 762 1446 l 2
 1163 1446 1258 1320 1258 1049 c 0
 1258 922 1230 809 1116 769 c 1
 1267 731 1333 572 1333 448 c 0
 1333 135 1166 -1 799 -1 c 2
426 149 m 1
 779 149 l 2
 1003 149 1132 180 1132 446 c 0
 1132 578 1077 696 856 696 c 2
 398 696 l 1
 398 833 l 1
 827 833 l 2
 1009 833 1057 917 1057 1047 c 0
 1057 1256 986 1295 742 1295 c 2
 426 1295 l 1
 426 149 l 1
EndSplineSet
EndChar

StartChar: C
Encoding: 35 67 3
Width: 1448
VWidth: 0
Flags: HW
PickledData: "(dp1
S'com.typemytype.robofont.layerData'
p2
(dp3
s."
LayerCount: 2
UndoRedoHistory
Layer: 1
Undoes
UndoOperation
Index: 0
Type: 1
WasModified: 0
WasOrder2: 0
Width: 1448
VWidth: 0
LBearingChange: 0
UnicodeEnc: 0
InstructionsLength: 0
SplineSet
1094 900 m 1
 1289 900 l 1
 1289 942 l 2
 1289 1248 1214 1483 747 1483 c 0
 262 1483 170 1261 170 955 c 2
 170 486 l 2
 170 185 266 -24 749 -24 c 0
 1214 -24 1289 203 1289 500 c 2
 1289 558 l 1
 1094 558 l 1
 1094 455 l 2
 1094 199 1007 126 749 126 c 0
 493 126 372 199 372 455 c 2
 372 992 l 2
 372 1249 493 1332 747 1332 c 0
 1003 1332 1094 1249 1094 992 c 2
 1094 900 l 1
EndSplineSet
EndUndoOperation
EndUndoes
Redoes
EndRedoes
EndUndoRedoHistory
Fore
SplineSet
1094 900 m 1
 1094 992 l 2
 1094 1249 1003 1332 747 1332 c 0
 493 1332 372 1249 372 992 c 2
 372 455 l 2
 372 199 493 126 749 126 c 0
 1007 126 1094 199 1094 455 c 2
 1094 558 l 1
 1289 558 l 1
 1289 500 l 2
 1289 203 1214 -24 749 -24 c 0
 266 -24 170 185 170 486 c 2
 170 955 l 2
 170 1261 262 1483 747 1483 c 0
 1214 1483 1289 1248 1289 942 c 2
 1289 900 l 1
 1094 900 l 1
EndSplineSet
EndChar

StartChar: D
Encoding: 36 68 4
Width: 1510
VWidth: 0
Flags: HW
PickledData: "(dp1
S'com.typemytype.robofont.layerData'
p2
(dp3
s."
LayerCount: 2
UndoRedoHistory
Layer: 1
Undoes
UndoOperation
Index: 0
Type: 1
WasModified: 0
WasOrder2: 0
Width: 1510
VWidth: 0
LBearingChange: 0
UnicodeEnc: 0
InstructionsLength: 0
SplineSet
224 0 m 1
 794 0 l 2
 1161 0 1340 169 1340 482 c 2
 1340 959 l 2
 1340 1235 1193 1446 792 1446 c 2
 224 1446 l 1
 224 0 l 1
774 150 m 2
 426 150 l 1
 426 1295 l 1
 774 1295 l 2
 980 1295 1139 1238 1139 971 c 2
 1139 462 l 2
 1139 196 982 150 774 150 c 2
EndSplineSet
EndUndoOperation
EndUndoes
Redoes
EndRedoes
EndUndoRedoHistory
Fore
SplineSet
224 0 m 1
 224 1446 l 1
 792 1446 l 2
 1193 1446 1340 1235 1340 959 c 2
 1340 482 l 2
 1340 169 1161 0 794 0 c 2
 224 0 l 1
774 150 m 2
 982 150 1139 196 1139 462 c 2
 1139 971 l 2
 1139 1238 980 1295 774 1295 c 2
 426 1295 l 1
 426 150 l 1
 774 150 l 2
EndSplineSet
EndChar

StartChar: E
Encoding: 37 69 5
Width: 1241
VWidth: 0
Flags: W
PickledData: "(dp1
S'com.typemytype.robofont.layerData'
p2
(dp3
s."
LayerCount: 2
UndoRedoHistory
Layer: 1
Undoes
UndoOperation
Index: 0
Type: 1
WasModified: 0
WasOrder2: 0
Width: 1241
VWidth: 0
LBearingChange: 0
UnicodeEnc: 0
InstructionsLength: 0
SplineSet
224 1446 m 1
 1067 1446 l 1
 1067 1296 l 1
 425 1296 l 1
 425 814 l 1
 1006 814 l 1
 1006 664 l 1
 425 664 l 1
 425 150 l 1
 1076 150 l 1
 1076 0 l 1
 224 0 l 1
 224 1446 l 1
EndSplineSet
EndUndoOperation
EndUndoes
Redoes
EndRedoes
EndUndoRedoHistory
Fore
SplineSet
224 1446 m 1
 1067 1446 l 1
 1067 1296 l 1
 425 1296 l 1
 425 814 l 1
 1006 814 l 1
 1006 664 l 1
 425 664 l 1
 425 150 l 1
 1076 150 l 1
 1076 0 l 1
 224 0 l 1
 224 1446 l 1
EndSplineSet
EndChar

StartChar: Eacute
Encoding: 134 201 6
Width: 763
VWidth: 0
Flags: W
PickledData: "(dp1
S'com.typemytype.robofont.layerData'
p2
(dp3
s."
LayerCount: 2
UndoRedoHistory
Layer: 1
Undoes
UndoOperation
Index: 0
Type: 1
WasModified: 0
WasOrder2: 0
Width: 763
VWidth: 0
LBearingChange: 0
UnicodeEnc: 0
InstructionsLength: 0
SplineSet
146 1459 m 1
 853 1459 l 1
 853 1223 l 1
 465 1223 l 1
 465 862 l 1
 776 862 l 1
 776 642 l 1
 465 642 l 1
 465 236 l 1
 853 236 l 1
 853 0 l 1
 146 0 l 1
 146 1459 l 1
309 1848 m 1
 575 1848 l 1
 367 1529 l 1
 205 1529 l 1
 309 1848 l 1
EndSplineSet
EndUndoOperation
EndUndoes
Redoes
EndRedoes
EndUndoRedoHistory
Fore
SplineSet
146 1459 m 1
 853 1459 l 1
 853 1223 l 1
 465 1223 l 1
 465 862 l 1
 776 862 l 1
 776 642 l 1
 465 642 l 1
 465 236 l 1
 853 236 l 1
 853 0 l 1
 146 0 l 1
 146 1459 l 1
309 1848 m 1
 575 1848 l 1
 367 1529 l 1
 205 1529 l 1
 309 1848 l 1
EndSplineSet
EndChar

StartChar: Edieresis
Encoding: 136 203 8
Width: 763
VWidth: 0
Flags: W
PickledData: "(dp1
S'com.typemytype.robofont.layerData'
p2
(dp3
s."
LayerCount: 2
UndoRedoHistory
Layer: 1
Undoes
UndoOperation
Index: 0
Type: 1
WasModified: 0
WasOrder2: 0
Width: 763
VWidth: 0
LBearingChange: 0
UnicodeEnc: 0
InstructionsLength: 0
SplineSet
146 1459 m 1
 853 1459 l 1
 853 1223 l 1
 465 1223 l 1
 465 862 l 1
 776 862 l 1
 776 642 l 1
 465 642 l 1
 465 236 l 1
 853 236 l 1
 853 0 l 1
 146 0 l 1
 146 1459 l 1
19 1596 m 1
 19 1826 l 1
 285 1826 l 1
 285 1596 l 1
 19 1596 l 1
479 1596 m 1
 479 1826 l 1
 746 1826 l 1
 746 1596 l 1
 479 1596 l 1
EndSplineSet
EndUndoOperation
EndUndoes
Redoes
EndRedoes
EndUndoRedoHistory
Fore
SplineSet
146 1459 m 1
 853 1459 l 1
 853 1223 l 1
 465 1223 l 1
 465 862 l 1
 776 862 l 1
 776 642 l 1
 465 642 l 1
 465 236 l 1
 853 236 l 1
 853 0 l 1
 146 0 l 1
 146 1459 l 1
19 1596 m 1
 19 1826 l 1
 285 1826 l 1
 285 1596 l 1
 19 1596 l 1
479 1596 m 1
 479 1826 l 1
 746 1826 l 1
 746 1596 l 1
 479 1596 l 1
EndSplineSet
EndChar

StartChar: Egrave
Encoding: 133 200 9
Width: 763
VWidth: 0
Flags: W
PickledData: "(dp1
S'com.typemytype.robofont.layerData'
p2
(dp3
s."
LayerCount: 2
UndoRedoHistory
Layer: 1
Undoes
UndoOperation
Index: 0
Type: 1
WasModified: 0
WasOrder2: 0
Width: 763
VWidth: 0
LBearingChange: 0
UnicodeEnc: 0
InstructionsLength: 0
SplineSet
146 1459 m 1
 853 1459 l 1
 853 1223 l 1
 465 1223 l 1
 465 862 l 1
 776 862 l 1
 776 642 l 1
 465 642 l 1
 465 236 l 1
 853 236 l 1
 853 0 l 1
 146 0 l 1
 146 1459 l 1
191 1848 m 1
 456 1848 l 1
 561 1529 l 1
 398 1529 l 1
 191 1848 l 1
EndSplineSet
EndUndoOperation
EndUndoes
Redoes
EndRedoes
EndUndoRedoHistory
Fore
SplineSet
146 1459 m 1
 853 1459 l 1
 853 1223 l 1
 465 1223 l 1
 465 862 l 1
 776 862 l 1
 776 642 l 1
 465 642 l 1
 465 236 l 1
 853 236 l 1
 853 0 l 1
 146 0 l 1
 146 1459 l 1
191 1848 m 1
 456 1848 l 1
 561 1529 l 1
 398 1529 l 1
 191 1848 l 1
EndSplineSet
EndChar

StartChar: Eth
Encoding: 141 208 10
Width: 1124
VWidth: 0
Flags: W
PickledData: "(dp1
S'com.typemytype.robofont.layerData'
p2
(dp3
s."
LayerCount: 2
UndoRedoHistory
Layer: 1
Undoes
UndoOperation
Index: 0
Type: 1
WasModified: 0
WasOrder2: 0
Width: 1124
VWidth: 0
LBearingChange: 0
UnicodeEnc: 0
InstructionsLength: 0
SplineSet
392 196 m 0
 625 197 685 208 685 324 c 2
 685 1149 l 2
 685 1244 590 1262 387 1262 c 2
 368 1262 l 1
 368 829 l 1
 528 829 l 1
 528 688 l 1
 368 688 l 1
 368 197 l 1
 370 197 391 196 392 196 c 0
80 0 m 1
 80 688 l 1
 9 688 l 1
 9 829 l 1
 80 829 l 1
 80 1459 l 1
 399 1459 l 2
 972 1459 1054 1331 1054 1021 c 2
 1054 467 l 2
 1054 149 994 0 394 0 c 2
 80 0 l 1
EndSplineSet
EndUndoOperation
EndUndoes
Redoes
EndRedoes
EndUndoRedoHistory
Fore
SplineSet
392 196 m 0
 625 197 685 208 685 324 c 2
 685 1149 l 2
 685 1244 590 1262 387 1262 c 2
 368 1262 l 1
 368 829 l 1
 528 829 l 1
 528 688 l 1
 368 688 l 1
 368 197 l 1
 370 197 391 196 392 196 c 0
80 0 m 1
 80 688 l 1
 9 688 l 1
 9 829 l 1
 80 829 l 1
 80 1459 l 1
 399 1459 l 2
 972 1459 1054 1331 1054 1021 c 2
 1054 467 l 2
 1054 149 994 0 394 0 c 2
 80 0 l 1
EndSplineSet
EndChar

StartChar: F
Encoding: 38 70 11
Width: 1185
VWidth: 0
Flags: HW
PickledData: "(dp1
S'com.typemytype.robofont.layerData'
p2
(dp3
s."
LayerCount: 2
UndoRedoHistory
Layer: 1
Undoes
UndoOperation
Index: 0
Type: 1
WasModified: 0
WasOrder2: 0
Width: 1185
VWidth: 0
LBearingChange: 0
UnicodeEnc: 0
InstructionsLength: 0
SplineSet
224 0 m 1
 425 0 l 1
 425 664 l 1
 1009 664 l 1
 1009 814 l 1
 425 814 l 1
 425 1296 l 1
 1054 1296 l 1
 1054 1446 l 1
 224 1446 l 1
 224 0 l 1
EndSplineSet
EndUndoOperation
EndUndoes
Redoes
EndRedoes
EndUndoRedoHistory
Fore
SplineSet
224 0 m 1
 224 1446 l 1
 1054 1446 l 1
 1054 1296 l 1
 425 1296 l 1
 425 814 l 1
 1009 814 l 1
 1009 664 l 1
 425 664 l 1
 425 0 l 1
 224 0 l 1
EndSplineSet
EndChar

StartChar: G
Encoding: 39 71 12
Width: 1491
VWidth: 0
Flags: HW
PickledData: "(dp1
S'com.typemytype.robofont.layerData'
p2
(dp3
s."
LayerCount: 2
UndoRedoHistory
Layer: 1
Undoes
UndoOperation
Index: 0
Type: 1
WasModified: 0
WasOrder2: 0
Width: 1491
VWidth: 0
LBearingChange: 0
UnicodeEnc: 0
InstructionsLength: 0
SplineSet
1219 0 m 1
 1310 0 l 1
 1310 735 l 1
 870 735 l 1
 870 588 l 1
 1094 588 l 1
 1094 455 l 2
 1094 199 1007 126 749 126 c 0
 493 126 372 199 372 455 c 2
 372 992 l 2
 372 1249 499 1332 753 1332 c 0
 1009 1332 1094 1249 1094 992 c 2
 1094 900 l 1
 1289 900 l 1
 1289 942 l 2
 1289 1248 1220 1483 753 1483 c 0
 268 1483 170 1261 170 955 c 2
 170 486 l 2
 170 185 266 -24 749 -24 c 0
 1035 -24 1141 96 1175 216 c 1
 1219 0 l 1
EndSplineSet
EndUndoOperation
EndUndoes
Redoes
EndRedoes
EndUndoRedoHistory
Fore
SplineSet
1219 0 m 1
 1175 216 l 1
 1141 96 1035 -24 749 -24 c 0
 266 -24 170 185 170 486 c 2
 170 955 l 2
 170 1261 268 1483 753 1483 c 0
 1220 1483 1289 1248 1289 942 c 2
 1289 900 l 1
 1094 900 l 1
 1094 992 l 2
 1094 1249 1009 1332 753 1332 c 0
 499 1332 372 1249 372 992 c 2
 372 455 l 2
 372 199 493 126 749 126 c 0
 1007 126 1094 199 1094 455 c 2
 1094 588 l 1
 870 588 l 1
 870 735 l 1
 1310 735 l 1
 1310 0 l 1
 1219 0 l 1
EndSplineSet
EndChar

StartChar: H
Encoding: 40 72 13
Width: 1529
VWidth: 0
Flags: W
PickledData: "(dp1
S'com.typemytype.robofont.layerData'
p2
(dp3
s."
LayerCount: 2
UndoRedoHistory
Layer: 1
Undoes
UndoOperation
Index: 0
Type: 1
WasModified: 0
WasOrder2: 0
Width: 1529
VWidth: 0
LBearingChange: 0
UnicodeEnc: 0
InstructionsLength: 0
SplineSet
224 1446 m 1
 425 1446 l 1
 425 807 l 1
 1104 807 l 1
 1104 1446 l 1
 1305 1446 l 1
 1305 0 l 1
 1104 0 l 1
 1104 659 l 1
 425 659 l 1
 425 0 l 1
 224 0 l 1
 224 1446 l 1
EndSplineSet
EndUndoOperation
EndUndoes
Redoes
EndRedoes
EndUndoRedoHistory
Fore
SplineSet
224 1446 m 1
 425 1446 l 1
 425 807 l 1
 1104 807 l 1
 1104 1446 l 1
 1305 1446 l 1
 1305 0 l 1
 1104 0 l 1
 1104 659 l 1
 425 659 l 1
 425 0 l 1
 224 0 l 1
 224 1446 l 1
EndSplineSet
EndChar

StartChar: I
Encoding: 41 73 14
Width: 1131
VWidth: 0
Flags: HW
PickledData: "(dp1
S'com.typemytype.robofont.layerData'
p2
(dp3
s."
LayerCount: 2
UndoRedoHistory
Layer: 1
Undoes
UndoOperation
Index: 0
Type: 1
WasModified: 0
WasOrder2: 0
Width: 1131
VWidth: 0
LBearingChange: 0
UnicodeEnc: 0
InstructionsLength: 0
SplineSet
944 0 m 1
 944 150 l 1
 669 150 l 1
 669 1297 l 1
 944 1297 l 1
 944 1446 l 1
 193 1446 l 1
 193 1297 l 1
 468 1297 l 1
 468 150 l 1
 193 150 l 1
 193 0 l 1
 944 0 l 1
EndSplineSet
EndUndoOperation
EndUndoes
Redoes
EndRedoes
EndUndoRedoHistory
Fore
SplineSet
944 0 m 1
 193 0 l 1
 193 150 l 1
 468 150 l 1
 468 1297 l 1
 193 1297 l 1
 193 1446 l 1
 944 1446 l 1
 944 1297 l 1
 669 1297 l 1
 669 150 l 1
 944 150 l 1
 944 0 l 1
EndSplineSet
EndChar

StartChar: Iacute
Encoding: 138 205 15
Width: 458
VWidth: 0
Flags: W
PickledData: "(dp1
S'com.typemytype.robofont.layerData'
p2
(dp3
s."
LayerCount: 2
UndoRedoHistory
Layer: 1
Undoes
UndoOperation
Index: 0
Type: 1
WasModified: 0
WasOrder2: 0
Width: 458
VWidth: 0
LBearingChange: 0
UnicodeEnc: 0
InstructionsLength: 0
SplineSet
86 1459 m 1
 374 1459 l 1
 374 0 l 1
 86 0 l 1
 86 1459 l 1
156 1848 m 1
 421 1848 l 1
 213 1529 l 1
 52 1529 l 1
 156 1848 l 1
EndSplineSet
EndUndoOperation
EndUndoes
Redoes
EndRedoes
EndUndoRedoHistory
Fore
SplineSet
86 1459 m 1
 374 1459 l 1
 374 0 l 1
 86 0 l 1
 86 1459 l 1
156 1848 m 1
 421 1848 l 1
 213 1529 l 1
 52 1529 l 1
 156 1848 l 1
EndSplineSet
EndChar

StartChar: Icircumflex
Encoding: 139 206 16
Width: 458
VWidth: 0
Flags: W
PickledData: "(dp1
S'com.typemytype.robofont.layerData'
p2
(dp3
s."
LayerCount: 2
UndoRedoHistory
Layer: 1
Undoes
UndoOperation
Index: 0
Type: 1
WasModified: 0
WasOrder2: 0
Width: 458
VWidth: 0
LBearingChange: 0
UnicodeEnc: 0
InstructionsLength: 0
SplineSet
86 1459 m 1
 374 1459 l 1
 374 0 l 1
 86 0 l 1
 86 1459 l 1
58 1825 m 1
 396 1825 l 1
 556 1529 l 1
 328 1529 l 1
 227 1673 l 1
 128 1529 l 1
 -98 1529 l 1
 58 1825 l 1
EndSplineSet
EndUndoOperation
EndUndoes
Redoes
EndRedoes
EndUndoRedoHistory
Fore
SplineSet
86 1459 m 1
 374 1459 l 1
 374 0 l 1
 86 0 l 1
 86 1459 l 1
58 1825 m 1
 396 1825 l 1
 556 1529 l 1
 328 1529 l 1
 227 1673 l 1
 128 1529 l 1
 -98 1529 l 1
 58 1825 l 1
EndSplineSet
EndChar

StartChar: Idieresis
Encoding: 140 207 17
Width: 458
VWidth: 0
Flags: W
PickledData: "(dp1
S'com.typemytype.robofont.layerData'
p2
(dp3
s."
LayerCount: 2
UndoRedoHistory
Layer: 1
Undoes
UndoOperation
Index: 0
Type: 1
WasModified: 0
WasOrder2: 0
Width: 458
VWidth: 0
LBearingChange: 0
UnicodeEnc: 0
InstructionsLength: 0
SplineSet
86 1459 m 1
 374 1459 l 1
 374 0 l 1
 86 0 l 1
 86 1459 l 1
-134 1596 m 1
 -134 1826 l 1
 132 1826 l 1
 132 1596 l 1
 -134 1596 l 1
326 1596 m 1
 326 1826 l 1
 592 1826 l 1
 592 1596 l 1
 326 1596 l 1
EndSplineSet
EndUndoOperation
EndUndoes
Redoes
EndRedoes
EndUndoRedoHistory
Fore
SplineSet
86 1459 m 1
 374 1459 l 1
 374 0 l 1
 86 0 l 1
 86 1459 l 1
-134 1596 m 1
 -134 1826 l 1
 132 1826 l 1
 132 1596 l 1
 -134 1596 l 1
326 1596 m 1
 326 1826 l 1
 592 1826 l 1
 592 1596 l 1
 326 1596 l 1
EndSplineSet
EndChar

StartChar: Igrave
Encoding: 137 204 18
Width: 458
VWidth: 0
Flags: W
PickledData: "(dp1
S'com.typemytype.robofont.layerData'
p2
(dp3
s."
LayerCount: 2
UndoRedoHistory
Layer: 1
Undoes
UndoOperation
Index: 0
Type: 1
WasModified: 0
WasOrder2: 0
Width: 458
VWidth: 0
LBearingChange: 0
UnicodeEnc: 0
InstructionsLength: 0
SplineSet
86 1459 m 1
 374 1459 l 1
 374 0 l 1
 86 0 l 1
 86 1459 l 1
38 1848 m 1
 303 1848 l 1
 408 1529 l 1
 245 1529 l 1
 38 1848 l 1
EndSplineSet
EndUndoOperation
EndUndoes
Redoes
EndRedoes
EndUndoRedoHistory
Fore
SplineSet
86 1459 m 1
 374 1459 l 1
 374 0 l 1
 86 0 l 1
 86 1459 l 1
38 1848 m 1
 303 1848 l 1
 408 1529 l 1
 245 1529 l 1
 38 1848 l 1
EndSplineSet
EndChar

StartChar: J
Encoding: 42 74 19
Width: 1169
VWidth: 0
Flags: HW
PickledData: "(dp1
S'com.typemytype.robofont.layerData'
p2
(dp3
s."
LayerCount: 2
UndoRedoHistory
Layer: 1
Undoes
UndoOperation
Index: 0
Type: 1
WasModified: 0
WasOrder2: 0
Width: 1169
VWidth: 0
LBearingChange: 0
UnicodeEnc: 0
InstructionsLength: 0
SplineSet
153 225 m 1
 98 70 l 1
 163 36 318 -17 486 -17 c 0
 811 -17 945 157 945 431 c 2
 945 1446 l 1
 380 1446 l 1
 380 1281 l 1
 744 1281 l 1
 744 435 l 2
 744 248 671 148 480 148 c 0
 334 148 200 203 153 225 c 1
EndSplineSet
EndUndoOperation
EndUndoes
Redoes
EndRedoes
EndUndoRedoHistory
Fore
SplineSet
153 225 m 1
 200 203 334 148 480 148 c 0
 671 148 744 248 744 435 c 2
 744 1281 l 1
 380 1281 l 1
 380 1446 l 1
 945 1446 l 1
 945 431 l 2
 945 157 811 -17 486 -17 c 0
 318 -17 163 36 98 70 c 1
 153 225 l 1
EndSplineSet
EndChar

StartChar: K
Encoding: 43 75 20
Width: 1400
VWidth: 0
Flags: W
PickledData: "(dp1
S'com.typemytype.robofont.layerData'
p2
(dp3
s."
LayerCount: 2
UndoRedoHistory
Layer: 1
Undoes
UndoOperation
Index: 0
Type: 1
WasModified: 0
WasOrder2: 0
Width: 1400
VWidth: 0
LBearingChange: 0
UnicodeEnc: 0
InstructionsLength: 0
SplineSet
224 1446 m 1
 425 1446 l 1
 425 657 l 1
 581 844 l 1
 1110 1446 l 1
 1328 1446 l 1
 784 798 l 1
 1357 0 l 1
 1134 0 l 1
 643 690 l 1
 425 468 l 1
 425 0 l 1
 224 0 l 1
 224 1446 l 1
EndSplineSet
EndUndoOperation
EndUndoes
Redoes
EndRedoes
EndUndoRedoHistory
Fore
SplineSet
224 1446 m 1
 425 1446 l 1
 425 657 l 1
 581 844 l 1
 1110 1446 l 1
 1328 1446 l 1
 784 798 l 1
 1357 0 l 1
 1134 0 l 1
 643 690 l 1
 425 468 l 1
 425 0 l 1
 224 0 l 1
 224 1446 l 1
EndSplineSet
EndChar

StartChar: L
Encoding: 44 76 21
Width: 1138
VWidth: 0
Flags: W
PickledData: "(dp1
S'com.typemytype.robofont.layerData'
p2
(dp3
s."
LayerCount: 2
UndoRedoHistory
Layer: 1
Undoes
UndoOperation
Index: 0
Type: 1
WasModified: 0
WasOrder2: 0
Width: 1138
VWidth: 0
LBearingChange: 0
UnicodeEnc: 0
InstructionsLength: 0
SplineSet
224 1446 m 1
 425 1446 l 1
 425 155 l 1
 1073 155 l 1
 1073 0 l 1
 224 0 l 1
 224 1446 l 1
EndSplineSet
EndUndoOperation
EndUndoes
Redoes
EndRedoes
EndUndoRedoHistory
Fore
SplineSet
224 1446 m 1
 425 1446 l 1
 425 155 l 1
 1073 155 l 1
 1073 0 l 1
 224 0 l 1
 224 1446 l 1
EndSplineSet
EndChar

StartChar: Lslash
Encoding: 254 321 22
Width: 722
VWidth: 0
Flags: W
PickledData: "(dp1
S'com.typemytype.robofont.layerData'
p2
(dp3
s."
LayerCount: 2
UndoRedoHistory
Layer: 1
Undoes
UndoOperation
Index: 0
Type: 1
WasModified: 0
WasOrder2: 0
Width: 722
VWidth: 0
LBearingChange: 0
UnicodeEnc: 0
InstructionsLength: 0
SplineSet
82 1459 m 1
 370 1459 l 1
 370 956 l 1
 626 1031 l 1
 626 889 l 1
 370 814 l 1
 370 194 l 1
 700 194 l 1
 700 0 l 1
 82 0 l 1
 82 708 l 1
 11 679 l 1
 11 822 l 1
 82 850 l 1
 82 1459 l 1
EndSplineSet
EndUndoOperation
EndUndoes
Redoes
EndRedoes
EndUndoRedoHistory
Fore
SplineSet
82 1459 m 1
 370 1459 l 1
 370 956 l 1
 626 1031 l 1
 626 889 l 1
 370 814 l 1
 370 194 l 1
 700 194 l 1
 700 0 l 1
 82 0 l 1
 82 708 l 1
 11 679 l 1
 11 822 l 1
 82 850 l 1
 82 1459 l 1
EndSplineSet
EndChar

StartChar: M
Encoding: 45 77 23
Width: 1772
VWidth: 0
Flags: W
PickledData: "(dp1
S'com.typemytype.robofont.layerData'
p2
(dp3
s."
LayerCount: 2
UndoRedoHistory
Layer: 1
Undoes
UndoOperation
Index: 0
Type: 1
WasModified: 0
WasOrder2: 0
Width: 1772
VWidth: 0
LBearingChange: 0
UnicodeEnc: 0
InstructionsLength: 0
SplineSet
224 0 m 1
 224 1446 l 1
 409 1446 l 1
 887 638 l 1
 1370 1446 l 1
 1548 1446 l 1
 1548 0 l 1
 1358 0 l 1
 1358 1121 l 1
 962 458 l 1
 813 458 l 1
 416 1117 l 1
 416 0 l 1
 224 0 l 1
EndSplineSet
EndUndoOperation
EndUndoes
Redoes
EndRedoes
EndUndoRedoHistory
Fore
SplineSet
224 0 m 1
 224 1446 l 1
 409 1446 l 1
 887 638 l 1
 1370 1446 l 1
 1548 1446 l 1
 1548 0 l 1
 1358 0 l 1
 1358 1121 l 1
 962 458 l 1
 813 458 l 1
 416 1117 l 1
 416 0 l 1
 224 0 l 1
EndSplineSet
EndChar

StartChar: N
Encoding: 46 78 24
Width: 1602
VWidth: 0
Flags: W
PickledData: "(dp1
S'com.typemytype.robofont.layerData'
p2
(dp3
s."
LayerCount: 2
UndoRedoHistory
Layer: 1
Undoes
UndoOperation
Index: 0
Type: 1
WasModified: 0
WasOrder2: 0
Width: 1602
VWidth: 0
LBearingChange: 0
UnicodeEnc: 0
InstructionsLength: 0
SplineSet
224 0 m 1
 224 1446 l 1
 377 1446 l 1
 1203 281 l 1
 1203 1446 l 1
 1378 1446 l 1
 1378 0 l 1
 1199 0 l 1
 399 1115 l 1
 399 0 l 1
 224 0 l 1
EndSplineSet
EndUndoOperation
EndUndoes
Redoes
EndRedoes
EndUndoRedoHistory
Fore
SplineSet
224 0 m 1
 224 1446 l 1
 377 1446 l 1
 1203 281 l 1
 1203 1446 l 1
 1378 1446 l 1
 1378 0 l 1
 1199 0 l 1
 399 1115 l 1
 399 0 l 1
 224 0 l 1
EndSplineSet
EndChar

StartChar: O
Encoding: 47 79 25
Width: 1506
VWidth: 0
Flags: HW
PickledData: "(dp1
S'com.typemytype.robofont.layerData'
p2
(dp3
s."
LayerCount: 2
UndoRedoHistory
Layer: 1
Undoes
UndoOperation
Index: 0
Type: 1
WasModified: 0
WasOrder2: 0
Width: 1506
VWidth: 0
LBearingChange: 0
UnicodeEnc: 0
InstructionsLength: 0
SplineSet
762 -24 m 0
 1227 -24 1336 203 1336 500 c 2
 1336 942 l 2
 1336 1248 1229 1483 762 1483 c 0
 277 1483 170 1261 170 955 c 2
 170 486 l 2
 170 185 279 -24 762 -24 c 0
762 126 m 0
 506 126 372 199 372 455 c 2
 372 992 l 2
 372 1249 508 1332 762 1332 c 0
 1018 1332 1135 1249 1135 992 c 2
 1135 455 l 2
 1135 199 1020 126 762 126 c 0
EndSplineSet
EndUndoOperation
EndUndoes
Redoes
EndRedoes
EndUndoRedoHistory
Fore
SplineSet
762 -24 m 0
 279 -24 170 185 170 486 c 2
 170 955 l 2
 170 1261 277 1483 762 1483 c 0
 1229 1483 1336 1248 1336 942 c 2
 1336 500 l 2
 1336 203 1227 -24 762 -24 c 0
762 126 m 0
 1020 126 1135 199 1135 455 c 2
 1135 992 l 2
 1135 1249 1018 1332 762 1332 c 0
 508 1332 372 1249 372 992 c 2
 372 455 l 2
 372 199 506 126 762 126 c 0
EndSplineSet
EndChar

StartChar: OE
Encoding: 268 338 26
Width: 1505
VWidth: 0
Flags: HW
PickledData: "(dp1
S'com.typemytype.robofont.layerData'
p2
(dp3
s."
LayerCount: 2
UndoRedoHistory
Layer: 1
Undoes
UndoOperation
Index: 0
Type: 1
WasModified: 0
WasOrder2: 0
Width: 1505
VWidth: 0
LBearingChange: 0
UnicodeEnc: 0
InstructionsLength: 0
SplineSet
762 0 m 2
 1386 0 l 1
 1386 150 l 1
 963 150 l 1
 963 664 l 1
 1316 664 l 1
 1316 814 l 1
 963 814 l 1
 963 1296 l 1
 1377 1296 l 1
 1377 1446 l 1
 762 1446 l 2
 277 1446 170 1224 170 918 c 2
 170 510 l 2
 170 209 279 0 762 0 c 2
762 150 m 1
 506 150 372 223 372 479 c 2
 372 955 l 2
 372 1212 508 1295 762 1295 c 1
 762 150 l 1
EndSplineSet
EndUndoOperation
EndUndoes
Redoes
EndRedoes
EndUndoRedoHistory
Fore
SplineSet
762 0 m 2
 279 0 170 209 170 510 c 2
 170 918 l 2
 170 1224 277 1446 762 1446 c 2
 1377 1446 l 1
 1377 1296 l 1
 963 1296 l 1
 963 814 l 1
 1316 814 l 1
 1316 664 l 1
 963 664 l 1
 963 150 l 1
 1386 150 l 1
 1386 0 l 1
 762 0 l 2
762 150 m 1
 762 1295 l 1
 508 1295 372 1212 372 955 c 2
 372 479 l 2
 372 223 506 150 762 150 c 1
EndSplineSet
EndChar

StartChar: Oslash
Encoding: 149 216 27
Width: 1506
VWidth: 0
Flags: HW
PickledData: "(dp1
S'com.typemytype.robofont.layerData'
p2
(dp3
s."
LayerCount: 2
UndoRedoHistory
Layer: 1
Undoes
UndoOperation
Index: 0
Type: 1
WasModified: 0
WasOrder2: 0
Width: 1506
VWidth: 0
LBearingChange: 0
UnicodeEnc: 0
Refer: 25 79 N 1 0 0 1 0 0 2
InstructionsLength: 0
SplineSet
1054 1676 m 1
 376 -157 l 1
 479 -195 l 1
 1158 1638 l 1
 1054 1676 l 1
EndSplineSet
EndUndoOperation
EndUndoes
Redoes
EndRedoes
EndUndoRedoHistory
Fore
SplineSet
1054 1676 m 1
 1158 1638 l 1
 479 -195 l 1
 376 -157 l 1
 1054 1676 l 1
EndSplineSet
Refer: 25 79 N 1 0 0 1 0 0 2
EndChar

StartChar: P
Encoding: 48 80 28
Width: 1348
VWidth: 0
Flags: HW
PickledData: "(dp1
S'com.typemytype.robofont.layerData'
p2
(dp3
s."
LayerCount: 2
UndoRedoHistory
Layer: 1
Undoes
UndoOperation
Index: 0
Type: 1
WasModified: 0
WasOrder2: 0
Width: 1348
VWidth: 0
LBearingChange: 0
UnicodeEnc: 0
InstructionsLength: 0
SplineSet
224 0 m 1
 426 0 l 1
 426 529 l 1
 800 529 l 2
 1046 529 1205 645 1205 957 c 2
 1205 1024 l 1
 1199 1320 1044 1446 801 1446 c 2
 224 1446 l 1
 224 0 l 1
426 682 m 1
 426 1293 l 1
 807 1293 l 2
 988 1293 1003 1118 1003 1018 c 2
 1003 935 l 1
 1002 828 979 682 804 682 c 2
 426 682 l 1
EndSplineSet
EndUndoOperation
EndUndoes
Redoes
EndRedoes
EndUndoRedoHistory
Fore
SplineSet
224 0 m 1
 224 1446 l 1
 801 1446 l 2
 1044 1446 1199 1320 1205 1024 c 1
 1205 957 l 2
 1205 645 1046 529 800 529 c 2
 426 529 l 1
 426 0 l 1
 224 0 l 1
426 682 m 1
 804 682 l 2
 979 682 1002 828 1003 935 c 1
 1003 1018 l 2
 1003 1118 988 1293 807 1293 c 2
 426 1293 l 1
 426 682 l 1
EndSplineSet
EndChar

StartChar: Q
Encoding: 49 81 29
Width: 1506
VWidth: 0
Flags: HW
PickledData: "(dp1
S'com.typemytype.robofont.layerData'
p2
(dp3
s."
LayerCount: 2
UndoRedoHistory
Layer: 1
Undoes
UndoOperation
Index: 0
Type: 1
WasModified: 0
WasOrder2: 0
Width: 1506
VWidth: 0
LBearingChange: 0
UnicodeEnc: 0
InstructionsLength: 0
SplineSet
692 -10 m 1
 931 -384 l 1
 1072 -308 l 1
 845 35 l 1
 692 -10 l 1
762 -24 m 0
 1227 -24 1336 203 1336 500 c 2
 1336 942 l 2
 1336 1248 1229 1483 762 1483 c 0
 277 1483 170 1261 170 955 c 2
 170 486 l 2
 170 185 279 -24 762 -24 c 0
762 126 m 0
 506 126 372 199 372 455 c 2
 372 992 l 2
 372 1249 508 1332 762 1332 c 0
 1018 1332 1135 1249 1135 992 c 2
 1135 455 l 2
 1135 199 1020 126 762 126 c 0
EndSplineSet
EndUndoOperation
EndUndoes
Redoes
EndRedoes
EndUndoRedoHistory
Fore
SplineSet
692 -10 m 1
 845 35 l 1
 1072 -308 l 1
 931 -384 l 1
 692 -10 l 1
762 -24 m 0
 1227 -24 1336 203 1336 500 c 2
 1336 942 l 2
 1336 1248 1229 1483 762 1483 c 0
 277 1483 170 1261 170 955 c 2
 170 486 l 2
 170 185 279 -24 762 -24 c 0
762 126 m 0
 506 126 372 199 372 455 c 2
 372 992 l 2
 372 1249 508 1332 762 1332 c 0
 1018 1332 1135 1249 1135 992 c 2
 1135 455 l 2
 1135 199 1020 126 762 126 c 0
EndSplineSet
EndChar

StartChar: R
Encoding: 50 82 30
Width: 1456
VWidth: 0
Flags: HW
PickledData: "(dp1
S'com.typemytype.robofont.layerData'
p2
(dp3
s."
LayerCount: 2
UndoRedoHistory
Layer: 1
Undoes
UndoOperation
Index: 0
Type: 1
WasModified: 0
WasOrder2: 0
Width: 1456
VWidth: 0
LBearingChange: 0
UnicodeEnc: 0
InstructionsLength: 0
SplineSet
862 636 m 1
 1122 0 l 1
 1334 0 l 1
 1039 692 l 1
 862 636 l 1
224 0 m 1
 426 0 l 1
 426 566 l 1
 856 566 l 2
 1102 566 1272 657 1272 969 c 2
 1272 1024 l 1
 1266 1320 1111 1446 868 1446 c 2
 224 1446 l 1
 224 0 l 1
426 719 m 1
 426 1293 l 1
 874 1293 l 2
 1055 1293 1070 1118 1070 1018 c 2
 1070 947 l 1
 1069 840 1035 719 860 719 c 2
 426 719 l 1
EndSplineSet
EndUndoOperation
EndUndoes
Redoes
EndRedoes
EndUndoRedoHistory
Fore
SplineSet
862 636 m 1
 1039 692 l 1
 1334 0 l 1
 1122 0 l 1
 862 636 l 1
224 0 m 1
 224 1446 l 1
 868 1446 l 2
 1111 1446 1266 1320 1272 1024 c 1
 1272 969 l 2
 1272 657 1102 566 856 566 c 2
 426 566 l 1
 426 0 l 1
 224 0 l 1
426 719 m 1
 860 719 l 2
 1035 719 1069 840 1070 947 c 1
 1070 1018 l 2
 1070 1118 1055 1293 874 1293 c 2
 426 1293 l 1
 426 719 l 1
EndSplineSet
EndChar

StartChar: S
Encoding: 51 83 31
Width: 1280
VWidth: 0
Flags: W
PickledData: "(dp1
S'com.typemytype.robofont.layerData'
p2
(dp3
s."
LayerCount: 2
UndoRedoHistory
Layer: 1
Undoes
UndoOperation
Index: 0
Type: 1
WasModified: 0
WasOrder2: 0
Width: 1280
VWidth: 0
LBearingChange: 0
UnicodeEnc: 0
InstructionsLength: 0
SplineSet
133 209 m 1
 220 338 l 1
 302 252 452 138 652 138 c 0
 836 138 951 196 964 352 c 0
 975 483 920 544 754 616 c 2
 468 740 l 2
 295 815 149 900 157 1118 c 0
 166 1374 391 1481 641 1481 c 0
 908 1481 1067 1371 1132 1284 c 1
 1042 1159 l 1
 967 1250 843 1322 656 1326 c 1
 457 1328 362 1246 353 1137 c 0
 345 1040 374 978 530 911 c 2
 831 780 l 2
 1003 706 1162 618 1156 380 c 0
 1150 124 950 -27 646 -23 c 1
 437 -18 238 72 133 209 c 1
EndSplineSet
EndUndoOperation
EndUndoes
Redoes
EndRedoes
EndUndoRedoHistory
Fore
SplineSet
133 209 m 1
 220 338 l 1
 302 252 452 138 652 138 c 0
 836 138 951 196 964 352 c 0
 975 483 920 544 754 616 c 2
 468 740 l 2
 295 815 149 900 157 1118 c 0
 166 1374 391 1481 641 1481 c 0
 908 1481 1067 1371 1132 1284 c 1
 1042 1159 l 1
 967 1250 843 1322 656 1326 c 1
 457 1328 362 1246 353 1137 c 0
 345 1040 374 978 530 911 c 2
 831 780 l 2
 1003 706 1162 618 1156 380 c 0
 1150 124 950 -27 646 -23 c 1
 437 -18 238 72 133 209 c 1
EndSplineSet
EndChar

StartChar: T
Encoding: 52 84 32
Width: 1173
VWidth: 0
Flags: W
PickledData: "(dp1
S'com.typemytype.robofont.layerData'
p2
(dp3
s."
LayerCount: 2
UndoRedoHistory
Layer: 1
Undoes
UndoOperation
Index: 0
Type: 1
WasModified: 0
WasOrder2: 0
Width: 1173
VWidth: 0
LBearingChange: 0
UnicodeEnc: 0
InstructionsLength: 0
SplineSet
69 1446 m 1
 1104 1446 l 1
 1104 1281 l 1
 687 1281 l 1
 687 0 l 1
 486 0 l 1
 486 1281 l 1
 69 1281 l 1
 69 1446 l 1
EndSplineSet
EndUndoOperation
EndUndoes
Redoes
EndRedoes
EndUndoRedoHistory
Fore
SplineSet
69 1446 m 1
 1104 1446 l 1
 1104 1281 l 1
 687 1281 l 1
 687 0 l 1
 486 0 l 1
 486 1281 l 1
 69 1281 l 1
 69 1446 l 1
EndSplineSet
EndChar

StartChar: U
Encoding: 53 85 33
Width: 1522
VWidth: 0
Flags: W
PickledData: "(dp1
S'com.typemytype.robofont.guides'
p2
((dp3
S'angle'
p4
I0
sS'name'
p5
NsS'magnetic'
p6
I5
sS'isGlobal'
p7
I00
sS'y'
I446
sS'x'
I594
s(dp8
g4
I0
sg5
Nsg6
I5
sg7
I00
sS'y'
I468
sS'x'
I914
stp9
sS'com.typemytype.robofont.layerData'
p10
(dp11
s."
LayerCount: 2
UndoRedoHistory
Layer: 1
Undoes
UndoOperation
Index: 0
Type: 1
WasModified: 0
WasOrder2: 0
Width: 1522
VWidth: 0
LBearingChange: 0
UnicodeEnc: 0
InstructionsLength: 0
SplineSet
200 473 m 2
 200 1446 l 1
 402 1446 l 1
 402 452 l 2
 402 186 570 132 771 132 c 0
 974 132 1120 186 1120 452 c 2
 1120 1446 l 1
 1322 1446 l 1
 1322 473 l 2
 1322 205 1224 -24 771 -24 c 0
 298 -24 200 202 200 473 c 2
EndSplineSet
EndUndoOperation
EndUndoes
Redoes
EndRedoes
EndUndoRedoHistory
Fore
SplineSet
200 473 m 2
 200 1446 l 1
 402 1446 l 1
 402 452 l 2
 402 186 570 132 771 132 c 0
 974 132 1120 186 1120 452 c 2
 1120 1446 l 1
 1322 1446 l 1
 1322 473 l 2
 1322 205 1224 -24 771 -24 c 0
 298 -24 200 202 200 473 c 2
EndSplineSet
EndChar

StartChar: V
Encoding: 54 86 34
Width: 1384
VWidth: 0
Flags: W
PickledData: "(dp1
S'com.typemytype.robofont.layerData'
p2
(dp3
s."
LayerCount: 2
UndoRedoHistory
Layer: 1
Undoes
UndoOperation
Index: 0
Type: 1
WasModified: 0
WasOrder2: 0
Width: 1384
VWidth: 0
LBearingChange: 0
UnicodeEnc: 0
InstructionsLength: 0
SplineSet
90 1446 m 1
 297 1446 l 1
 695 294 l 1
 1093 1446 l 1
 1302 1446 l 1
 782 0 l 1
 605 0 l 1
 90 1446 l 1
EndSplineSet
EndUndoOperation
EndUndoes
Redoes
EndRedoes
EndUndoRedoHistory
Fore
SplineSet
90 1446 m 1
 297 1446 l 1
 695 294 l 1
 1093 1446 l 1
 1302 1446 l 1
 782 0 l 1
 605 0 l 1
 90 1446 l 1
EndSplineSet
EndChar

StartChar: W
Encoding: 55 87 35
Width: 1950
VWidth: 0
Flags: W
PickledData: "(dp1
S'com.typemytype.robofont.layerData'
p2
(dp3
s."
LayerCount: 2
UndoRedoHistory
Layer: 1
Undoes
UndoOperation
Index: 0
Type: 1
WasModified: 0
WasOrder2: 0
Width: 1950
VWidth: 0
LBearingChange: 0
UnicodeEnc: 0
InstructionsLength: 0
SplineSet
911 1446 m 1
 1078 1446 l 1
 1384 346 l 1
 1662 1446 l 1
 1845 1446 l 1
 1464 0 l 1
 1312 0 l 1
 911 1446 l 1
112 1446 m 1
 289 1446 l 1
 571 346 l 1
 863 1446 l 1
 1037 1446 l 1
 642 0 l 1
 490 0 l 1
 112 1446 l 1
EndSplineSet
EndUndoOperation
EndUndoes
Redoes
EndRedoes
EndUndoRedoHistory
Fore
SplineSet
911 1446 m 1
 1078 1446 l 1
 1384 346 l 1
 1662 1446 l 1
 1845 1446 l 1
 1464 0 l 1
 1312 0 l 1
 911 1446 l 1
112 1446 m 1
 289 1446 l 1
 571 346 l 1
 863 1446 l 1
 1037 1446 l 1
 642 0 l 1
 490 0 l 1
 112 1446 l 1
EndSplineSet
EndChar

StartChar: X
Encoding: 56 88 36
Width: 1341
VWidth: 0
Flags: W
PickledData: "(dp1
S'com.typemytype.robofont.layerData'
p2
(dp3
s."
LayerCount: 2
UndoRedoHistory
Layer: 1
Undoes
UndoOperation
Index: 0
Type: 1
WasModified: 0
WasOrder2: 0
Width: 1341
VWidth: 0
LBearingChange: 0
UnicodeEnc: 0
InstructionsLength: 0
SplineSet
1030 0 m 1
 122 1446 l 1
 325 1446 l 1
 1248 0 l 1
 1030 0 l 1
1233 1446 m 1
 311 0 l 1
 115 0 l 1
 1016 1446 l 1
 1233 1446 l 1
EndSplineSet
EndUndoOperation
EndUndoes
Redoes
EndRedoes
EndUndoRedoHistory
Fore
SplineSet
1030 0 m 1
 122 1446 l 1
 325 1446 l 1
 1248 0 l 1
 1030 0 l 1
1233 1446 m 1
 311 0 l 1
 115 0 l 1
 1016 1446 l 1
 1233 1446 l 1
EndSplineSet
EndChar

StartChar: Y
Encoding: 57 89 37
Width: 1312
VWidth: 0
Flags: W
PickledData: "(dp1
S'com.typemytype.robofont.layerData'
p2
(dp3
s."
LayerCount: 2
UndoRedoHistory
Layer: 1
Undoes
UndoOperation
Index: 0
Type: 1
WasModified: 0
WasOrder2: 0
Width: 1312
VWidth: 0
LBearingChange: 0
UnicodeEnc: 0
InstructionsLength: 0
SplineSet
67 1446 m 1
 268 1446 l 1
 673 724 l 1
 1061 1446 l 1
 1256 1446 l 1
 773 568 l 1
 773 0 l 1
 572 0 l 1
 572 568 l 1
 67 1446 l 1
EndSplineSet
EndUndoOperation
EndUndoes
Redoes
EndRedoes
EndUndoRedoHistory
Fore
SplineSet
67 1446 m 1
 268 1446 l 1
 673 724 l 1
 1061 1446 l 1
 1256 1446 l 1
 773 568 l 1
 773 0 l 1
 572 0 l 1
 572 568 l 1
 67 1446 l 1
EndSplineSet
EndChar

StartChar: Yacute
Encoding: 154 221 38
Width: 1312
VWidth: 0
Flags: HW
PickledData: "(dp1
S'com.typemytype.robofont.layerData'
p2
(dp3
s."
LayerCount: 2
UndoRedoHistory
Layer: 1
Undoes
UndoOperation
Index: 0
Type: 3
WasModified: 0
WasOrder2: 0
EndUndoOperation
UndoOperation
Index: 1
Type: 1
WasModified: 0
WasOrder2: 0
Width: 1093
VWidth: 0
LBearingChange: 0
UnicodeEnc: 0
InstructionsLength: 0
SplineSet
0 1459 m 1
 327 1459 l 1
 545 833 l 1
 620 1003 706 1289 781 1459 c 1
 1093 1459 l 1
 624 504 l 1
 624 0 l 1
 313 0 l 1
 313 504 l 1
 0 1459 l 1
474 1848 m 1
 739 1848 l 1
 531 1529 l 1
 370 1529 l 1
 474 1848 l 1
EndSplineSet
EndUndoOperation
EndUndoes
Redoes
EndRedoes
EndUndoRedoHistory
Fore
Refer: 43 180 N 1 0 0 1 365 450 2
Refer: 37 89 N 1 0 0 1 0 0 3
EndChar

StartChar: Ydieresis
Encoding: 302 376 39
Width: 1093
VWidth: 0
Flags: W
PickledData: "(dp1
S'com.typemytype.robofont.layerData'
p2
(dp3
s."
LayerCount: 2
UndoRedoHistory
Layer: 1
Undoes
UndoOperation
Index: 0
Type: 1
WasModified: 0
WasOrder2: 0
Width: 1093
VWidth: 0
LBearingChange: 0
UnicodeEnc: 0
InstructionsLength: 0
SplineSet
0 1459 m 1
 327 1459 l 1
 545 833 l 1
 620 1003 706 1289 781 1459 c 1
 1093 1459 l 1
 624 504 l 1
 624 0 l 1
 313 0 l 1
 313 504 l 1
 0 1459 l 1
184 1596 m 1
 184 1826 l 1
 450 1826 l 1
 450 1596 l 1
 184 1596 l 1
643 1596 m 1
 643 1826 l 1
 910 1826 l 1
 910 1596 l 1
 643 1596 l 1
EndSplineSet
EndUndoOperation
EndUndoes
Redoes
EndRedoes
EndUndoRedoHistory
Fore
SplineSet
0 1459 m 1
 327 1459 l 1
 545 833 l 1
 620 1003 706 1289 781 1459 c 1
 1093 1459 l 1
 624 504 l 1
 624 0 l 1
 313 0 l 1
 313 504 l 1
 0 1459 l 1
184 1596 m 1
 184 1826 l 1
 450 1826 l 1
 450 1596 l 1
 184 1596 l 1
643 1596 m 1
 643 1826 l 1
 910 1826 l 1
 910 1596 l 1
 643 1596 l 1
EndSplineSet
EndChar

StartChar: Z
Encoding: 58 90 40
Width: 1237
VWidth: 0
Flags: W
PickledData: "(dp1
S'com.typemytype.robofont.layerData'
p2
(dp3
s."
LayerCount: 2
UndoRedoHistory
Layer: 1
Undoes
UndoOperation
Index: 0
Type: 1
WasModified: 0
WasOrder2: 0
Width: 1237
VWidth: 0
LBearingChange: 0
UnicodeEnc: 0
InstructionsLength: 0
SplineSet
216 1446 m 1
 1081 1446 l 1
 1081 1295 l 1
 395 165 l 1
 1095 165 l 1
 1095 0 l 1
 173 0 l 1
 173 150 l 1
 860 1281 l 1
 216 1281 l 1
 216 1446 l 1
EndSplineSet
EndUndoOperation
EndUndoes
Redoes
EndRedoes
EndUndoRedoHistory
Fore
SplineSet
216 1446 m 1
 1081 1446 l 1
 1081 1295 l 1
 395 165 l 1
 1095 165 l 1
 1095 0 l 1
 173 0 l 1
 173 150 l 1
 860 1281 l 1
 216 1281 l 1
 216 1446 l 1
EndSplineSet
EndChar

StartChar: Zcaron
Encoding: 307 381 41
Width: 955
VWidth: 0
Flags: W
PickledData: "(dp1
S'com.typemytype.robofont.layerData'
p2
(dp3
s."
LayerCount: 2
UndoRedoHistory
Layer: 1
Undoes
UndoOperation
Index: 0
Type: 1
WasModified: 0
WasOrder2: 0
Width: 955
VWidth: 0
LBearingChange: 0
UnicodeEnc: 0
InstructionsLength: 0
SplineSet
105 1459 m 1
 888 1459 l 1
 888 1279 l 1
 402 195 l 1
 888 195 l 1
 888 0 l 1
 62 0 l 1
 62 180 l 1
 546 1265 l 1
 105 1265 l 1
 105 1459 l 1
150 1819 m 1
 378 1819 l 1
 476 1676 l 1
 578 1819 l 1
 806 1819 l 1
 646 1524 l 1
 308 1524 l 1
 150 1819 l 1
EndSplineSet
EndUndoOperation
EndUndoes
Redoes
EndRedoes
EndUndoRedoHistory
Fore
SplineSet
105 1459 m 1
 888 1459 l 1
 888 1279 l 1
 402 195 l 1
 888 195 l 1
 888 0 l 1
 62 0 l 1
 62 180 l 1
 546 1265 l 1
 105 1265 l 1
 105 1459 l 1
150 1819 m 1
 378 1819 l 1
 476 1676 l 1
 578 1819 l 1
 806 1819 l 1
 646 1524 l 1
 308 1524 l 1
 150 1819 l 1
EndSplineSet
EndChar

StartChar: a
Encoding: 65 97 42
Width: 1155
VWidth: 0
Flags: HW
PickledData: "(dp1
S'com.typemytype.robofont.layerData'
p2
(dp3
s."
LayerCount: 2
UndoRedoHistory
Layer: 1
Undoes
UndoOperation
Index: 0
Type: 1
WasModified: 0
WasOrder2: 0
Width: 1155
VWidth: 0
LBearingChange: 0
UnicodeEnc: 0
InstructionsLength: 0
SplineSet
1095 128 m 1
 984 128 964 165 964 268 c 2
 964 699 l 2
 964 917 867 1080 587 1080 c 0
 309 1080 169 955 169 746 c 2
 169 695 l 1
 350 695 l 1
 350 745 l 2
 350 830 368 940 581 940 c 0
 773 940 776 830 776 753 c 0
 776 647 654 626 534 597 c 0
 188 514 128 423 128 283 c 0
 128 120 241 -20 466 -20 c 0
 661 -20 750 70 797 142 c 1
 829 42 874 -12 1015 -12 c 0
 1032 -12 1081 -10 1095 -8 c 1
 1095 128 l 1
776 273 m 1
 746 175 608 113 495 113 c 0
 392 113 316 160 310 266 c 0
 304 368 333 421 549 477 c 0
 685 512 747 547 776 576 c 1
 776 273 l 1
EndSplineSet
EndUndoOperation
EndUndoes
Redoes
EndRedoes
EndUndoRedoHistory
Fore
SplineSet
1095 128 m 1
 1095 -8 l 1
 1081 -10 1032 -12 1015 -12 c 0
 874 -12 829 42 797 142 c 1
 750 70 661 -20 466 -20 c 0
 241 -20 128 120 128 283 c 0
 128 423 188 514 534 597 c 0
 654 626 776 647 776 753 c 0
 776 830 773 940 581 940 c 0
 368 940 350 830 350 745 c 2
 350 695 l 1
 169 695 l 1
 169 746 l 2
 169 955 309 1080 587 1080 c 0
 867 1080 964 917 964 699 c 2
 964 268 l 2
 964 165 984 128 1095 128 c 1
776 273 m 1
 776 576 l 1
 747 547 685 512 549 477 c 0
 333 421 304 368 310 266 c 0
 316 160 392 113 495 113 c 0
 608 113 746 175 776 273 c 1
EndSplineSet
EndChar

StartChar: acute
Encoding: 115 180 43
Width: 616
VWidth: 0
Flags: W
PickledData: "(dp1
S'com.typemytype.robofont.layerData'
p2
(dp3
s."
LayerCount: 2
UndoRedoHistory
Layer: 1
Undoes
UndoOperation
Index: 0
Type: 1
WasModified: 0
WasOrder2: 0
Width: 616
VWidth: 0
LBearingChange: 0
UnicodeEnc: 0
InstructionsLength: 0
SplineSet
115 1496 m 1
 340 1496 l 1
 478 1155 l 1
 372 1155 l 1
 115 1496 l 1
EndSplineSet
EndUndoOperation
EndUndoes
Redoes
EndRedoes
EndUndoRedoHistory
Fore
SplineSet
115 1496 m 1
 340 1496 l 1
 478 1155 l 1
 372 1155 l 1
 115 1496 l 1
EndSplineSet
EndChar

StartChar: aring
Encoding: 162 229 44
Width: 1155
VWidth: 0
Flags: HW
PickledData: "(dp1
S'com.typemytype.robofont.layerData'
p2
(dp3
s."
LayerCount: 2
UndoRedoHistory
Layer: 1
Undoes
UndoOperation
Index: 0
Type: 3
WasModified: 0
WasOrder2: 0
EndUndoOperation
UndoOperation
Index: 1
Type: 1
WasModified: 0
WasOrder2: 0
Width: 1143
VWidth: 0
LBearingChange: 0
UnicodeEnc: 0
InstructionsLength: 0
SplineSet
1080 131 m 1
 969 131 949 169 949 274 c 2
 949 715 l 2
 949 938 852 1104 572 1104 c 0
 294 1104 154 977 154 763 c 2
 154 711 l 1
 335 711 l 1
 335 762 l 2
 335 849 353 961 566 961 c 0
 758 961 761 849 761 770 c 0
 761 662 639 641 519 611 c 0
 173 526 113 432 113 289 c 0
 113 122 226 -20 451 -20 c 0
 646 -20 735 71 782 145 c 1
 814 43 859 -12 1000 -12 c 0
 1017 -12 1066 -10 1080 -8 c 1
 1080 131 l 1
761 279 m 1
 731 179 593 116 480 116 c 0
 377 116 301 164 295 272 c 0
 289 376 318 431 534 488 c 0
 670 524 732 559 761 589 c 1
 761 279 l 1
545 1275 m 0
 488 1275 436 1301 436 1389 c 0
 436 1476 489 1501 545 1501 c 0
 603 1501 653 1474 653 1387 c 0
 653 1300 602 1275 545 1275 c 0
545 1210 m 0
 645 1210 739 1265 739 1388 c 0
 739 1511 645 1566 545 1566 c 0
 445 1566 350 1511 350 1388 c 0
 350 1265 445 1210 545 1210 c 0
EndSplineSet
EndUndoOperation
EndUndoes
Redoes
EndRedoes
EndUndoRedoHistory
Fore
Refer: 124 730 N 1 0 0 1 303 -8 2
Refer: 42 97 N 1 0 0 1 0 0 3
EndChar

StartChar: asciicircum
Encoding: 62 94 45
Width: 1257
VWidth: 0
Flags: W
PickledData: "(dp1
S'com.typemytype.robofont.layerData'
p2
(dp3
s."
LayerCount: 2
UndoRedoHistory
Layer: 1
Undoes
UndoOperation
Index: 0
Type: 1
WasModified: 0
WasOrder2: 0
Width: 1257
VWidth: 0
LBearingChange: 0
UnicodeEnc: 0
InstructionsLength: 0
SplineSet
735 1283 m 1
 1103 626 l 1
 910 626 l 1
 628 1161 l 1
 348 626 l 1
 154 626 l 1
 513 1283 l 1
 735 1283 l 1
EndSplineSet
EndUndoOperation
EndUndoes
Redoes
EndRedoes
EndUndoRedoHistory
Fore
SplineSet
735 1283 m 1
 1103 626 l 1
 910 626 l 1
 628 1161 l 1
 348 626 l 1
 154 626 l 1
 513 1283 l 1
 735 1283 l 1
EndSplineSet
EndChar

StartChar: asterisk
Encoding: 10 42 46
Width: 1132
VWidth: 0
Flags: HW
PickledData: "(dp1
S'com.typemytype.robofont.layerData'
p2
(dp3
s."
LayerCount: 2
UndoRedoHistory
Layer: 1
Undoes
UndoOperation
Index: 0
Type: 1
WasModified: 0
WasOrder2: 0
Width: 1132
VWidth: 0
LBearingChange: 0
UnicodeEnc: 0
InstructionsLength: 0
SplineSet
898 1295 m 1
 979 1134 l 1
 589 977 l 1
 542 1068 l 1
 898 1295 l 1
233 750 m 1
 153 911 l 1
 542 1068 l 1
 589 977 l 1
 233 750 l 1
968 875 m 1
 873 722 l 1
 539 979 l 1
 592 1066 l 1
 968 875 l 1
163 1170 m 1
 258 1323 l 1
 592 1066 l 1
 539 979 l 1
 163 1170 l 1
655 599 m 1
 477 599 l 1
 515 1023 l 1
 616 1023 l 1
 655 599 l 1
477 1446 m 1
 655 1446 l 1
 616 1023 l 1
 515 1023 l 1
 477 1446 l 1
EndSplineSet
EndUndoOperation
EndUndoes
Redoes
EndRedoes
EndUndoRedoHistory
Fore
SplineSet
898 1295 m 1
 542 1068 l 1
 589 977 l 1
 979 1134 l 1
 898 1295 l 1
233 750 m 1
 153 911 l 1
 542 1068 l 1
 589 977 l 1
 233 750 l 1
968 875 m 1
 873 722 l 1
 539 979 l 1
 592 1066 l 1
 968 875 l 1
163 1170 m 1
 539 979 l 1
 592 1066 l 1
 258 1323 l 1
 163 1170 l 1
655 599 m 1
 477 599 l 1
 515 1023 l 1
 616 1023 l 1
 655 599 l 1
477 1446 m 1
 655 1446 l 1
 616 1023 l 1
 515 1023 l 1
 477 1446 l 1
EndSplineSet
EndChar

StartChar: b
Encoding: 66 98 47
Width: 1198
VWidth: 0
Flags: W
PickledData: "(dp1
S'com.typemytype.robofont.layerData'
p2
(dp3
s."
LayerCount: 2
UndoRedoHistory
Layer: 1
Undoes
UndoOperation
Index: 0
Type: 1
WasModified: 0
WasOrder2: 0
Width: 1198
VWidth: 0
LBearingChange: 0
UnicodeEnc: 0
InstructionsLength: 0
SplineSet
301 97 m 1
 281 246 l 1
 299 236 424 125 591 125 c 0
 739 125 860 202 860 332 c 2
 860 750 l 2
 860 877 772 942 634 942 c 0
 494 942 305 850 295 829 c 1
 317 975 l 1
 367 1030 512 1084 643 1084 c 0
 914 1084 1048 940 1048 736 c 2
 1048 352 l 2
 1048 139 895 -16 619 -16 c 0
 451 -16 341 77 301 97 c 1
320 0 m 1
 181 0 l 1
 181 1446 l 1
 369 1446 l 1
 369 145 l 1
 320 0 l 1
EndSplineSet
EndUndoOperation
EndUndoes
Redoes
EndRedoes
EndUndoRedoHistory
Fore
SplineSet
301 97 m 1
 281 246 l 1
 299 236 424 125 591 125 c 0
 739 125 860 202 860 332 c 2
 860 750 l 2
 860 877 772 942 634 942 c 0
 494 942 305 850 295 829 c 1
 317 975 l 1
 367 1030 512 1084 643 1084 c 0
 914 1084 1048 940 1048 736 c 2
 1048 352 l 2
 1048 139 895 -16 619 -16 c 0
 451 -16 341 77 301 97 c 1
320 0 m 1
 181 0 l 1
 181 1446 l 1
 369 1446 l 1
 369 145 l 1
 320 0 l 1
EndSplineSet
EndChar

StartChar: backslash
Encoding: 60 92 48
Width: 979
VWidth: 0
Flags: W
PickledData: "(dp1
S'com.typemytype.robofont.layerData'
p2
(dp3
s."
LayerCount: 2
UndoRedoHistory
Layer: 1
Undoes
UndoOperation
Index: 0
Type: 1
WasModified: 0
WasOrder2: 0
Width: 979
VWidth: 0
LBearingChange: 0
UnicodeEnc: 0
InstructionsLength: 0
SplineSet
665 1446 m 1
 858 1446 l 1
 320 0 l 1
 125 0 l 1
 665 1446 l 1
EndSplineSet
EndUndoOperation
EndUndoes
Redoes
EndRedoes
EndUndoRedoHistory
Fore
SplineSet
665 1446 m 1
 858 1446 l 1
 320 0 l 1
 125 0 l 1
 665 1446 l 1
EndSplineSet
EndChar

StartChar: bar
Encoding: 92 124 49
Width: 666
VWidth: 0
Flags: W
PickledData: "(dp1
S'com.typemytype.robofont.layerData'
p2
(dp3
s."
LayerCount: 2
UndoRedoHistory
Layer: 1
Undoes
UndoOperation
Index: 0
Type: 1
WasModified: 0
WasOrder2: 0
Width: 666
VWidth: 0
LBearingChange: 0
UnicodeEnc: 0
InstructionsLength: 0
SplineSet
432 1555 m 1
 432 -167 l 1
 254 -167 l 1
 254 1555 l 1
 432 1555 l 1
EndSplineSet
EndUndoOperation
EndUndoes
Redoes
EndRedoes
EndUndoRedoHistory
Fore
SplineSet
432 1555 m 1
 432 -167 l 1
 254 -167 l 1
 254 1555 l 1
 432 1555 l 1
EndSplineSet
EndChar

StartChar: bracketleft
Encoding: 59 91 50
Width: 827
VWidth: 0
Flags: W
PickledData: "(dp1
S'com.typemytype.robofont.layerData'
p2
(dp3
s."
LayerCount: 2
UndoRedoHistory
Layer: 1
Undoes
UndoOperation
Index: 0
Type: 1
WasModified: 0
WasOrder2: 0
Width: 827
VWidth: 0
LBearingChange: 0
UnicodeEnc: 0
InstructionsLength: 0
SplineSet
455 58 m 1
 645 58 l 1
 645 -76 l 1
 224 -76 l 1
 224 1529 l 1
 645 1529 l 1
 645 1396 l 1
 455 1396 l 1
 455 58 l 1
EndSplineSet
EndUndoOperation
EndUndoes
Redoes
EndRedoes
EndUndoRedoHistory
Fore
SplineSet
455 58 m 1
 645 58 l 1
 645 -76 l 1
 224 -76 l 1
 224 1529 l 1
 645 1529 l 1
 645 1396 l 1
 455 1396 l 1
 455 58 l 1
EndSplineSet
EndChar

StartChar: bracketright
Encoding: 61 93 51
Width: 804
VWidth: 0
Flags: W
PickledData: "(dp1
S'com.typemytype.robofont.layerData'
p2
(dp3
s."
LayerCount: 2
UndoRedoHistory
Layer: 1
Undoes
UndoOperation
Index: 0
Type: 1
WasModified: 0
WasOrder2: 0
Width: 804
VWidth: 0
LBearingChange: 0
UnicodeEnc: 0
InstructionsLength: 0
SplineSet
182 1496 m 1
 580 1496 l 1
 580 -76 l 1
 182 -76 l 1
 182 38 l 1
 369 38 l 1
 369 1382 l 1
 182 1382 l 1
 182 1496 l 1
EndSplineSet
EndUndoOperation
EndUndoes
Redoes
EndRedoes
EndUndoRedoHistory
Fore
SplineSet
182 1496 m 1
 580 1496 l 1
 580 -76 l 1
 182 -76 l 1
 182 38 l 1
 369 38 l 1
 369 1382 l 1
 182 1382 l 1
 182 1496 l 1
EndSplineSet
EndChar

StartChar: breve
Encoding: 355 728 52
Width: 676
VWidth: 0
Flags: W
PickledData: "(dp1
S'com.typemytype.robofont.layerData'
p2
(dp3
s."
LayerCount: 2
UndoRedoHistory
Layer: 1
Undoes
UndoOperation
Index: 0
Type: 1
WasModified: 0
WasOrder2: 0
Width: 676
VWidth: 0
LBearingChange: 0
UnicodeEnc: 0
InstructionsLength: 0
SplineSet
121 1377 m 1
 256 1377 l 1
 257 1337 276 1281 327 1281 c 0
 379 1281 398 1336 398 1377 c 1
 534 1377 l 1
 534 1262 449 1185 327 1185 c 0
 206 1185 121 1262 121 1377 c 1
EndSplineSet
EndUndoOperation
EndUndoes
Redoes
EndRedoes
EndUndoRedoHistory
Fore
SplineSet
121 1377 m 1
 256 1377 l 1
 257 1337 276 1281 327 1281 c 0
 379 1281 398 1336 398 1377 c 1
 534 1377 l 1
 534 1262 449 1185 327 1185 c 0
 206 1185 121 1262 121 1377 c 1
EndSplineSet
EndChar

StartChar: brokenbar
Encoding: 101 166 53
Width: 674
VWidth: 0
Flags: W
PickledData: "(dp1
S'com.typemytype.robofont.layerData'
p2
(dp3
S'b'
(dp4
S'name'
p5
S'brokenbar'
p6
sS'lib'
p7
(dp8
sS'unicodes'
p9
(tsS'width'
p10
I674
sS'contours'
p11
((dp12
S'points'
p13
((dp14
S'segmentType'
p15
S'line'
p16
sS'x'
F432
sS'smooth'
p17
I00
sS'y'
F1555
s(dp18
g15
S'line'
p19
sS'x'
F432
sg17
I00
sS'y'
F-167
s(dp20
g15
S'line'
p21
sS'x'
F254
sg17
I00
sS'y'
F-167
s(dp22
g15
S'line'
p23
sS'x'
F254
sg17
I00
sS'y'
F1555
stp24
stp25
sS'components'
p26
(tsS'anchors'
p27
(tsss."
LayerCount: 2
UndoRedoHistory
Layer: 1
Undoes
UndoOperation
Index: 0
Type: 1
WasModified: 0
WasOrder2: 0
Width: 674
VWidth: 0
LBearingChange: 0
UnicodeEnc: 0
InstructionsLength: 0
SplineSet
432 1555 m 1
 432 848 l 1
 254 848 l 1
 254 1555 l 1
 432 1555 l 1
432 513 m 1
 432 -167 l 1
 254 -167 l 1
 254 513 l 1
 432 513 l 1
EndSplineSet
EndUndoOperation
EndUndoes
Redoes
EndRedoes
EndUndoRedoHistory
Fore
SplineSet
432 1555 m 1
 432 848 l 1
 254 848 l 1
 254 1555 l 1
 432 1555 l 1
432 513 m 1
 432 -167 l 1
 254 -167 l 1
 254 513 l 1
 432 513 l 1
EndSplineSet
EndChar

StartChar: bullet
Encoding: 396 8226 54
Width: 975
VWidth: 0
Flags: W
PickledData: "(dp1
S'com.typemytype.robofont.layerData'
p2
(dp3
s."
LayerCount: 2
UndoRedoHistory
Layer: 1
Undoes
UndoOperation
Index: 0
Type: 1
WasModified: 0
WasOrder2: 0
Width: 975
VWidth: 0
LBearingChange: 0
UnicodeEnc: 0
InstructionsLength: 0
SplineSet
180 599 m 0
 180 795 262 901 487 901 c 0
 714 901 795 795 795 599 c 0
 795 405 713 298 486 298 c 0
 260 298 180 404 180 599 c 0
EndSplineSet
EndUndoOperation
EndUndoes
Redoes
EndRedoes
EndUndoRedoHistory
Fore
SplineSet
180 599 m 0
 180 795 262 901 487 901 c 0
 714 901 795 795 795 599 c 0
 795 405 713 298 486 298 c 0
 260 298 180 404 180 599 c 0
EndSplineSet
EndChar

StartChar: c
Encoding: 67 99 55
Width: 1123
VWidth: 0
Flags: W
PickledData: "(dp1
S'com.typemytype.robofont.layerData'
p2
(dp3
s."
LayerCount: 2
UndoRedoHistory
Layer: 1
Undoes
UndoOperation
Index: 0
Type: 1
WasModified: 0
WasOrder2: 0
Width: 1123
VWidth: 0
LBearingChange: 0
UnicodeEnc: 0
InstructionsLength: 0
SplineSet
826 679 m 1
 826 774 l 2
 826 899 730 938 585 938 c 0
 439 938 335 888 335 757 c 2
 335 308 l 2
 335 166 438 121 585 121 c 0
 724 121 826 153 826 283 c 2
 826 356 l 1
 1008 356 l 1
 1008 289 l 2
 1008 94 914 -20 585 -20 c 0
 269 -20 148 118 148 314 c 2
 148 751 l 2
 148 951 322 1080 585 1080 c 0
 848 1080 1008 981 1008 768 c 2
 1008 679 l 1
 826 679 l 1
EndSplineSet
EndUndoOperation
EndUndoes
Redoes
EndRedoes
EndUndoRedoHistory
Fore
SplineSet
826 679 m 1
 826 774 l 2
 826 899 730 938 585 938 c 0
 439 938 335 888 335 757 c 2
 335 308 l 2
 335 166 438 121 585 121 c 0
 724 121 826 153 826 283 c 2
 826 356 l 1
 1008 356 l 1
 1008 289 l 2
 1008 94 914 -20 585 -20 c 0
 269 -20 148 118 148 314 c 2
 148 751 l 2
 148 951 322 1080 585 1080 c 0
 848 1080 1008 981 1008 768 c 2
 1008 679 l 1
 826 679 l 1
EndSplineSet
EndChar

StartChar: caron
Encoding: 354 711 56
Width: 901
VWidth: 0
Flags: W
PickledData: "(dp1
S'com.typemytype.robofont.layerData'
p2
(dp3
s."
LayerCount: 2
UndoRedoHistory
Layer: 1
Undoes
UndoOperation
Index: 0
Type: 1
WasModified: 0
WasOrder2: 0
Width: 901
VWidth: 0
LBearingChange: 0
UnicodeEnc: 0
InstructionsLength: 0
SplineSet
380 1416 m 1
 530 1416 l 1
 736 1150 l 1
 580 1150 l 1
 456 1324 l 1
 324 1150 l 1
 163 1150 l 1
 380 1416 l 1
EndSplineSet
EndUndoOperation
EndUndoes
Redoes
EndRedoes
EndUndoRedoHistory
Fore
SplineSet
380 1416 m 1
 530 1416 l 1
 736 1150 l 1
 580 1150 l 1
 456 1324 l 1
 324 1150 l 1
 163 1150 l 1
 380 1416 l 1
EndSplineSet
EndChar

StartChar: cedilla
Encoding: 117 184 58
Width: 579
VWidth: 0
Flags: W
PickledData: "(dp1
S'com.typemytype.robofont.layerData'
p2
(dp3
s."
LayerCount: 2
UndoRedoHistory
Layer: 1
Undoes
UndoOperation
Index: 0
Type: 1
WasModified: 0
WasOrder2: 0
Width: 579
VWidth: 0
LBearingChange: 0
UnicodeEnc: 0
InstructionsLength: 0
SplineSet
282 0 m 1
 288 -94 l 1
 435 -120 509 -214 509 -303 c 0
 509 -397 427 -486 262 -486 c 0
 234 -486 203 -484 169 -478 c 1
 169 -382 l 1
 195 -387 219 -389 240 -389 c 0
 338 -389 380 -342 380 -290 c 0
 380 -229 320 -161 220 -158 c 1
 220 0 l 1
 282 0 l 1
EndSplineSet
EndUndoOperation
EndUndoes
Redoes
EndRedoes
EndUndoRedoHistory
Fore
SplineSet
282 0 m 1
 288 -94 l 1
 435 -120 509 -214 509 -303 c 0
 509 -397 427 -486 262 -486 c 0
 234 -486 203 -484 169 -478 c 1
 169 -382 l 1
 195 -387 219 -389 240 -389 c 0
 338 -389 380 -342 380 -290 c 0
 380 -229 320 -161 220 -158 c 1
 220 0 l 1
 282 0 l 1
EndSplineSet
EndChar

StartChar: cent
Encoding: 97 162 59
Width: 1098
VWidth: 0
Flags: HW
PickledData: "(dp1
S'com.typemytype.robofont.layerData'
p2
(dp3
s."
LayerCount: 2
UndoRedoHistory
Layer: 1
Undoes
UndoOperation
Index: 0
Type: 1
WasModified: 0
WasOrder2: 0
Width: 1098
VWidth: 0
LBearingChange: 0
UnicodeEnc: 0
InstructionsLength: 0
SplineSet
637 2 m 1
 637 -205 l 1
 500 -205 l 1
 500 2 l 1
 637 2 l 1
500 1275 m 1
 637 1275 l 1
 637 1068 l 1
 500 1068 l 1
 500 1275 l 1
809 694 m 1
 809 792 l 2
 809 920 710 959 565 959 c 0
 419 959 315 908 315 774 c 2
 315 315 l 2
 315 170 418 124 565 124 c 0
 704 124 809 156 809 289 c 2
 809 364 l 1
 991 364 l 1
 991 309 l 2
 991 110 894 -20 565 -20 c 0
 249 -20 128 121 128 321 c 2
 128 768 l 2
 128 973 302 1104 565 1104 c 0
 828 1104 991 989 991 771 c 2
 991 694 l 1
 809 694 l 1
EndSplineSet
EndUndoOperation
EndUndoes
Redoes
EndRedoes
EndUndoRedoHistory
Fore
SplineSet
637 2 m 1
 637 -205 l 1
 500 -205 l 1
 500 2 l 1
 637 2 l 1
500 1275 m 1
 637 1275 l 1
 637 1068 l 1
 500 1068 l 1
 500 1275 l 1
809 694 m 1
 991 694 l 1
 991 771 l 2
 991 989 828 1104 565 1104 c 0
 302 1104 128 973 128 768 c 2
 128 321 l 2
 128 121 249 -20 565 -20 c 0
 894 -20 991 110 991 309 c 2
 991 364 l 1
 809 364 l 1
 809 289 l 2
 809 156 704 124 565 124 c 0
 418 124 315 170 315 315 c 2
 315 774 l 2
 315 908 419 959 565 959 c 0
 710 959 809 920 809 792 c 2
 809 694 l 1
EndSplineSet
EndChar

StartChar: circumflex
Encoding: 353 710 60
Width: 901
VWidth: 0
Flags: W
PickledData: "(dp1
S'com.typemytype.robofont.layerData'
p2
(dp3
s."
LayerCount: 2
UndoRedoHistory
Layer: 1
Undoes
UndoOperation
Index: 0
Type: 1
WasModified: 0
WasOrder2: 0
Width: 901
VWidth: 0
LBearingChange: 0
UnicodeEnc: 0
InstructionsLength: 0
SplineSet
534 1780 m 1
 684 1780 l 1
 890 1514 l 1
 734 1514 l 1
 610 1688 l 1
 478 1514 l 1
 317 1514 l 1
 534 1780 l 1
EndSplineSet
EndUndoOperation
EndUndoes
Redoes
EndRedoes
EndUndoRedoHistory
Fore
SplineSet
534 1780 m 1
 684 1780 l 1
 890 1514 l 1
 734 1514 l 1
 610 1688 l 1
 478 1514 l 1
 317 1514 l 1
 534 1780 l 1
EndSplineSet
EndChar

StartChar: colon
Encoding: 26 58 61
Width: 567
VWidth: 0
Flags: W
PickledData: "(dp1
S'com.typemytype.robofont.layerData'
p2
(dp3
s."
LayerCount: 2
UndoRedoHistory
Layer: 1
Undoes
UndoOperation
Index: 0
Type: 1
WasModified: 0
WasOrder2: 0
Width: 567
VWidth: 0
LBearingChange: 0
UnicodeEnc: 0
InstructionsLength: 0
SplineSet
164 1023 m 1
 415 1023 l 1
 415 768 l 1
 164 768 l 1
 164 1023 l 1
164 353 m 1
 415 353 l 1
 415 99 l 1
 164 99 l 1
 164 353 l 1
EndSplineSet
EndUndoOperation
EndUndoes
Redoes
EndRedoes
EndUndoRedoHistory
Fore
SplineSet
164 1023 m 1
 415 1023 l 1
 415 768 l 1
 164 768 l 1
 164 1023 l 1
164 353 m 1
 415 353 l 1
 415 99 l 1
 164 99 l 1
 164 353 l 1
EndSplineSet
EndChar

StartChar: comma
Encoding: 12 44 62
Width: 495
VWidth: 0
Flags: HW
PickledData: "(dp1
S'com.typemytype.robofont.layerData'
p2
(dp3
s."
LayerCount: 2
UndoRedoHistory
Layer: 1
Undoes
UndoOperation
Index: 0
Type: 1
WasModified: 0
WasOrder2: 0
Width: 495
VWidth: 0
LBearingChange: 0
UnicodeEnc: 0
InstructionsLength: 0
SplineSet
135 211 m 1
 135 0 l 1
 253 0 l 1
 253 -132 186 -239 139 -294 c 1
 220 -338 l 1
 278 -284 369 -141 369 50 c 2
 369 211 l 1
 135 211 l 1
EndSplineSet
EndUndoOperation
EndUndoes
Redoes
EndRedoes
EndUndoRedoHistory
Fore
SplineSet
135 211 m 1
 369 211 l 1
 369 50 l 2
 369 -141 278 -284 220 -338 c 1
 139 -294 l 1
 186 -239 253 -132 253 0 c 1
 135 0 l 1
 135 211 l 1
EndSplineSet
EndChar

StartChar: copyright
Encoding: 104 169 63
Width: 1865
VWidth: 0
Flags: HW
PickledData: "(dp1
S'com.typemytype.robofont.layerData'
p2
(dp3
s."
LayerCount: 2
UndoRedoHistory
Layer: 1
Undoes
UndoOperation
Index: 0
Type: 1
WasModified: 0
WasOrder2: 0
Width: 1865
VWidth: 0
LBearingChange: 0
UnicodeEnc: 0
InstructionsLength: 0
SplineSet
934 82 m 0
 570 82 285 357 285 722 c 0
 285 1086 570 1361 934 1361 c 0
 1300 1361 1583 1086 1583 722 c 0
 1583 357 1300 82 934 82 c 0
932 -14 m 0
 1348 -14 1689 303 1689 722 c 0
 1689 1139 1348 1456 932 1456 c 0
 519 1456 176 1139 176 722 c 0
 176 303 519 -14 932 -14 c 0
1152 836 m 1
 1268 836 l 1
 1268 861 l 2
 1268 1043 1219 1182 942 1182 c 0
 654 1182 591 1050 591 868 c 2
 591 590 l 2
 591 411 656 287 943 287 c 0
 1219 287 1268 422 1268 598 c 2
 1268 632 l 1
 1152 632 l 1
 1152 571 l 2
 1152 419 1096 376 943 376 c 0
 791 376 711 419 711 571 c 2
 711 890 l 2
 711 1042 791 1091 942 1091 c 0
 1094 1091 1152 1042 1152 890 c 2
 1152 836 l 1
EndSplineSet
EndUndoOperation
EndUndoes
Redoes
EndRedoes
EndUndoRedoHistory
Fore
SplineSet
934 82 m 0
 1300 82 1583 357 1583 722 c 0
 1583 1086 1300 1361 934 1361 c 0
 570 1361 285 1086 285 722 c 0
 285 357 570 82 934 82 c 0
932 -14 m 0
 519 -14 176 303 176 722 c 0
 176 1139 519 1456 932 1456 c 0
 1348 1456 1689 1139 1689 722 c 0
 1689 303 1348 -14 932 -14 c 0
1152 836 m 1
 1152 890 l 2
 1152 1042 1094 1091 942 1091 c 0
 791 1091 711 1042 711 890 c 2
 711 571 l 2
 711 419 791 376 943 376 c 0
 1096 376 1152 419 1152 571 c 2
 1152 632 l 1
 1268 632 l 1
 1268 598 l 2
 1268 422 1219 287 943 287 c 0
 656 287 591 411 591 590 c 2
 591 868 l 2
 591 1050 654 1182 942 1182 c 0
 1219 1182 1268 1043 1268 861 c 2
 1268 836 l 1
 1152 836 l 1
EndSplineSet
EndChar

StartChar: d
Encoding: 68 100 64
Width: 1187
VWidth: 0
Flags: W
PickledData: "(dp1
S'com.typemytype.robofont.layerData'
p2
(dp3
s."
LayerCount: 2
UndoRedoHistory
Layer: 1
Undoes
UndoOperation
Index: 0
Type: 1
WasModified: 0
WasOrder2: 0
Width: 1187
VWidth: 0
LBearingChange: 0
UnicodeEnc: 0
InstructionsLength: 0
SplineSet
911 992 m 1
 905 951 924 811 912 813 c 1
 904 872 772 943 605 943 c 0
 457 943 338 886 338 756 c 2
 338 314 l 2
 338 187 444 126 582 126 c 0
 722 126 841 188 851 209 c 1
 881 83 l 1
 831 28 696 -16 570 -16 c 0
 265 -16 150 124 150 328 c 2
 150 735 l 2
 150 948 295 1084 603 1084 c 0
 711 1084 881 1042 911 992 c 1
827 1446 m 1
 1015 1446 l 1
 1015 0 l 1
 887 0 l 1
 827 117 l 1
 827 1446 l 1
EndSplineSet
EndUndoOperation
EndUndoes
Redoes
EndRedoes
EndUndoRedoHistory
Fore
SplineSet
911 992 m 1
 905 951 924 811 912 813 c 1
 904 872 772 943 605 943 c 0
 457 943 338 886 338 756 c 2
 338 314 l 2
 338 187 444 126 582 126 c 0
 722 126 841 188 851 209 c 1
 881 83 l 1
 831 28 696 -16 570 -16 c 0
 265 -16 150 124 150 328 c 2
 150 735 l 2
 150 948 295 1084 603 1084 c 0
 711 1084 881 1042 911 992 c 1
827 1446 m 1
 1015 1446 l 1
 1015 0 l 1
 887 0 l 1
 827 117 l 1
 827 1446 l 1
EndSplineSet
EndChar

StartChar: dagger
Encoding: 394 8224 65
Width: 890
VWidth: 0
Flags: W
PickledData: "(dp1
S'com.typemytype.robofont.layerData'
p2
(dp3
s."
LayerCount: 2
UndoRedoHistory
Layer: 1
Undoes
UndoOperation
Index: 0
Type: 1
WasModified: 0
WasOrder2: 0
Width: 890
VWidth: 0
LBearingChange: 0
UnicodeEnc: 0
InstructionsLength: 0
SplineSet
348 1446 m 1
 536 1446 l 1
 536 1060 l 1
 802 1060 l 1
 802 931 l 1
 536 931 l 1
 536 0 l 1
 348 0 l 1
 348 931 l 1
 88 931 l 1
 88 1060 l 1
 348 1060 l 1
 348 1446 l 1
EndSplineSet
EndUndoOperation
EndUndoes
Redoes
EndRedoes
EndUndoRedoHistory
Fore
SplineSet
348 1446 m 1
 536 1446 l 1
 536 1060 l 1
 802 1060 l 1
 802 931 l 1
 536 931 l 1
 536 0 l 1
 348 0 l 1
 348 931 l 1
 88 931 l 1
 88 1060 l 1
 348 1060 l 1
 348 1446 l 1
EndSplineSet
EndChar

StartChar: daggerdbl
Encoding: 395 8225 66
Width: 938
VWidth: 0
Flags: HW
PickledData: "(dp1
S'com.typemytype.robofont.layerData'
p2
(dp3
s."
LayerCount: 2
UndoRedoHistory
Layer: 1
Undoes
UndoOperation
Index: 0
Type: 1
WasModified: 0
WasOrder2: 0
Width: 938
VWidth: 0
LBearingChange: 0
UnicodeEnc: 0
InstructionsLength: 0
SplineSet
372 0 m 1
 560 0 l 1
 560 409 l 1
 826 409 l 1
 826 538 l 1
 560 538 l 1
 560 931 l 1
 826 931 l 1
 826 1060 l 1
 560 1060 l 1
 560 1446 l 1
 372 1446 l 1
 372 1060 l 1
 112 1060 l 1
 112 931 l 1
 372 931 l 1
 372 538 l 1
 112 538 l 1
 112 409 l 1
 372 409 l 1
 372 0 l 1
EndSplineSet
EndUndoOperation
EndUndoes
Redoes
EndRedoes
EndUndoRedoHistory
Fore
SplineSet
372 0 m 1
 372 409 l 1
 112 409 l 1
 112 538 l 1
 372 538 l 1
 372 931 l 1
 112 931 l 1
 112 1060 l 1
 372 1060 l 1
 372 1446 l 1
 560 1446 l 1
 560 1060 l 1
 826 1060 l 1
 826 931 l 1
 560 931 l 1
 560 538 l 1
 826 538 l 1
 826 409 l 1
 560 409 l 1
 560 0 l 1
 372 0 l 1
EndSplineSet
EndChar

StartChar: degree
Encoding: 111 176 67
Width: 1036
VWidth: 0
Flags: W
PickledData: "(dp1
S'com.typemytype.robofont.guides'
p2
((dp3
S'angle'
p4
F90
sS'name'
p5
NsS'magnetic'
p6
I5
sS'isGlobal'
p7
I00
sS'y'
I1204
sS'x'
I513
stp8
sS'com.typemytype.robofont.layerData'
p9
(dp10
s."
LayerCount: 2
UndoRedoHistory
Layer: 1
Undoes
UndoOperation
Index: 0
Type: 1
WasModified: 0
WasOrder2: 0
Width: 1036
VWidth: 0
LBearingChange: 0
UnicodeEnc: 0
InstructionsLength: 0
SplineSet
866 1123 m 0
 866 916 773 799 489 799 c 0
 270 799 160 950 160 1122 c 0
 160 1295 270 1445 490 1445 c 0
 770 1445 866 1330 866 1123 c 0
490 1360 m 0
 318 1360 265 1222 265 1123 c 0
 265 1024 317 885 490 885 c 0
 665 885 717 1024 717 1122 c 0
 717 1221 666 1360 490 1360 c 0
EndSplineSet
EndUndoOperation
EndUndoes
Redoes
EndRedoes
EndUndoRedoHistory
Fore
SplineSet
866 1123 m 0
 866 916 773 799 489 799 c 0
 270 799 160 950 160 1122 c 0
 160 1295 270 1445 490 1445 c 0
 770 1445 866 1330 866 1123 c 0
490 1360 m 0
 318 1360 265 1222 265 1123 c 0
 265 1024 317 885 490 885 c 0
 665 885 717 1024 717 1122 c 0
 717 1221 666 1360 490 1360 c 0
EndSplineSet
EndChar

StartChar: dieresis
Encoding: 103 168 68
Width: 956
VWidth: 0
Flags: W
PickledData: "(dp1
S'com.typemytype.robofont.layerData'
p2
(dp3
s."
LayerCount: 2
UndoRedoHistory
Layer: 1
Undoes
UndoOperation
Index: 0
Type: 1
WasModified: 0
WasOrder2: 0
Width: 956
VWidth: 0
LBearingChange: 0
UnicodeEnc: 0
InstructionsLength: 0
SplineSet
620 1265 m 1
 620 1446 l 1
 826 1446 l 1
 826 1265 l 1
 620 1265 l 1
117 1265 m 1
 117 1446 l 1
 323 1446 l 1
 323 1265 l 1
 117 1265 l 1
EndSplineSet
EndUndoOperation
EndUndoes
Redoes
EndRedoes
EndUndoRedoHistory
Fore
SplineSet
620 1265 m 1
 620 1446 l 1
 826 1446 l 1
 826 1265 l 1
 620 1265 l 1
117 1265 m 1
 117 1446 l 1
 323 1446 l 1
 323 1265 l 1
 117 1265 l 1
EndSplineSet
EndChar

StartChar: divide
Encoding: 180 247 69
Width: 1073
VWidth: 0
Flags: W
PickledData: "(dp1
S'com.typemytype.robofont.layerData'
p2
(dp3
s."
LayerCount: 2
UndoRedoHistory
Layer: 1
Undoes
UndoOperation
Index: 0
Type: 1
WasModified: 0
WasOrder2: 0
Width: 1073
VWidth: 0
LBearingChange: 0
UnicodeEnc: 0
InstructionsLength: 0
SplineSet
648 299 m 1
 648 90 l 1
 431 90 l 1
 431 299 l 1
 648 299 l 1
648 996 m 1
 648 787 l 1
 431 787 l 1
 431 996 l 1
 648 996 l 1
949 609 m 1
 949 472 l 1
 124 472 l 1
 124 609 l 1
 949 609 l 1
EndSplineSet
EndUndoOperation
EndUndoes
Redoes
EndRedoes
EndUndoRedoHistory
Fore
SplineSet
648 299 m 1
 648 90 l 1
 431 90 l 1
 431 299 l 1
 648 299 l 1
648 996 m 1
 648 787 l 1
 431 787 l 1
 431 996 l 1
 648 996 l 1
949 609 m 1
 949 472 l 1
 124 472 l 1
 124 609 l 1
 949 609 l 1
EndSplineSet
EndChar

StartChar: dotaccent
Encoding: 356 729 70
Width: 575
VWidth: 0
Flags: W
PickledData: "(dp1
S'com.typemytype.robofont.layerData'
p2
(dp3
s."
LayerCount: 2
UndoRedoHistory
Layer: 1
Undoes
UndoOperation
Index: 0
Type: 1
WasModified: 0
WasOrder2: 0
Width: 575
VWidth: 0
LBearingChange: 0
UnicodeEnc: 0
InstructionsLength: 0
SplineSet
173 1462 m 1
 427 1462 l 1
 427 1221 l 1
 173 1221 l 1
 173 1462 l 1
EndSplineSet
EndUndoOperation
EndUndoes
Redoes
EndRedoes
EndUndoRedoHistory
Fore
SplineSet
173 1462 m 1
 427 1462 l 1
 427 1221 l 1
 173 1221 l 1
 173 1462 l 1
EndSplineSet
EndChar

StartChar: dotlessi
Encoding: 238 305 71
Width: 419
VWidth: 0
Flags: W
PickledData: "(dp1
S'com.typemytype.robofont.layerData'
p2
(dp3
s."
LayerCount: 2
UndoRedoHistory
Layer: 1
Undoes
UndoOperation
Index: 0
Type: 1
WasModified: 0
WasOrder2: 0
Width: 419
VWidth: 0
LBearingChange: 0
UnicodeEnc: 0
InstructionsLength: 0
SplineSet
96 1084 m 1
 359 1084 l 1
 359 0 l 1
 96 0 l 1
 96 1084 l 1
EndSplineSet
EndUndoOperation
EndUndoes
Redoes
EndRedoes
EndUndoRedoHistory
Fore
SplineSet
96 1084 m 1
 359 1084 l 1
 359 0 l 1
 96 0 l 1
 96 1084 l 1
EndSplineSet
EndChar

StartChar: e
Encoding: 69 101 72
Width: 1132
VWidth: 0
Flags: W
PickledData: "(dp1
S'com.typemytype.robofont.layerData'
p2
(dp3
s."
LayerCount: 2
UndoRedoHistory
Layer: 1
Undoes
UndoOperation
Index: 0
Type: 1
WasModified: 0
WasOrder2: 0
Width: 1132
VWidth: 0
LBearingChange: 0
UnicodeEnc: 0
InstructionsLength: 0
SplineSet
582 -20 m 0
 266 -20 150 122 150 326 c 2
 150 743 l 2
 150 943 303 1080 582 1080 c 0
 858 1080 993 959 993 758 c 2
 993 506 l 1
 338 506 l 1
 338 310 l 2
 338 179 418 121 582 121 c 0
 721 121 811 152 811 282 c 2
 811 336 l 1
 993 336 l 1
 993 297 l 2
 993 102 911 -20 582 -20 c 0
338 633 m 1
 811 633 l 1
 811 778 l 2
 811 906 727 938 582 938 c 0
 432 938 338 891 338 760 c 2
 338 633 l 1
EndSplineSet
EndUndoOperation
EndUndoes
Redoes
EndRedoes
EndUndoRedoHistory
Fore
SplineSet
582 -20 m 0
 266 -20 150 122 150 326 c 2
 150 743 l 2
 150 943 303 1080 582 1080 c 0
 858 1080 993 959 993 758 c 2
 993 506 l 1
 338 506 l 1
 338 310 l 2
 338 179 418 121 582 121 c 0
 721 121 811 152 811 282 c 2
 811 336 l 1
 993 336 l 1
 993 297 l 2
 993 102 911 -20 582 -20 c 0
338 633 m 1
 811 633 l 1
 811 778 l 2
 811 906 727 938 582 938 c 0
 432 938 338 891 338 760 c 2
 338 633 l 1
EndSplineSet
EndChar

StartChar: ellipsis
Encoding: 397 8230 73
Width: 1427
VWidth: 0
Flags: W
PickledData: "(dp1
S'com.typemytype.robofont.layerData'
p2
(dp3
s."
LayerCount: 2
UndoRedoHistory
Layer: 1
Undoes
UndoOperation
Index: 0
Type: 1
WasModified: 0
WasOrder2: 0
Width: 1427
VWidth: 0
LBearingChange: 0
UnicodeEnc: 0
InstructionsLength: 0
SplineSet
112 255 m 1
 365 255 l 1
 365 0 l 1
 112 0 l 1
 112 255 l 1
944 255 m 1
 1197 255 l 1
 1197 0 l 1
 944 0 l 1
 944 255 l 1
1776 255 m 1
 2029 255 l 1
 2029 0 l 1
 1776 0 l 1
 1776 255 l 1
EndSplineSet
EndUndoOperation
EndUndoes
Redoes
EndRedoes
EndUndoRedoHistory
Fore
SplineSet
112 255 m 1
 365 255 l 1
 365 0 l 1
 112 0 l 1
 112 255 l 1
944 255 m 1
 1197 255 l 1
 1197 0 l 1
 944 0 l 1
 944 255 l 1
1776 255 m 1
 2029 255 l 1
 2029 0 l 1
 1776 0 l 1
 1776 255 l 1
EndSplineSet
EndChar

StartChar: emdash
Encoding: 387 8212 74
Width: 1101
VWidth: 0
Flags: W
PickledData: "(dp1
S'com.typemytype.robofont.layerData'
p2
(dp3
s."
LayerCount: 2
UndoRedoHistory
Layer: 1
Undoes
UndoOperation
Index: 0
Type: 1
WasModified: 0
WasOrder2: 0
Width: 1101
VWidth: 0
LBearingChange: 0
UnicodeEnc: 0
InstructionsLength: 0
SplineSet
2 548 m 1
 1098 548 l 1
 1098 402 l 1
 2 402 l 1
 2 548 l 1
EndSplineSet
EndUndoOperation
EndUndoes
Redoes
EndRedoes
EndUndoRedoHistory
Fore
SplineSet
2 548 m 1
 1098 548 l 1
 1098 402 l 1
 2 402 l 1
 2 548 l 1
EndSplineSet
EndChar

StartChar: endash
Encoding: 386 8211 75
Width: 539
VWidth: 0
Flags: W
PickledData: "(dp1
S'com.typemytype.robofont.layerData'
p2
(dp3
s."
LayerCount: 2
UndoRedoHistory
Layer: 1
Undoes
UndoOperation
Index: 0
Type: 1
WasModified: 0
WasOrder2: 0
Width: 539
VWidth: 0
LBearingChange: 0
UnicodeEnc: 0
InstructionsLength: 0
SplineSet
2 732 m 1
 535 732 l 1
 535 606 l 1
 2 606 l 1
 2 732 l 1
EndSplineSet
EndUndoOperation
EndUndoes
Redoes
EndRedoes
EndUndoRedoHistory
Fore
SplineSet
2 732 m 1
 535 732 l 1
 535 606 l 1
 2 606 l 1
 2 732 l 1
EndSplineSet
EndChar

StartChar: equal
Encoding: 29 61 76
Width: 1217
VWidth: 0
Flags: W
PickledData: "(dp1
S'com.typemytype.robofont.layerData'
p2
(dp3
s."
LayerCount: 2
UndoRedoHistory
Layer: 1
Undoes
UndoOperation
Index: 0
Type: 1
WasModified: 0
WasOrder2: 0
Width: 1217
VWidth: 0
LBearingChange: 0
UnicodeEnc: 0
InstructionsLength: 0
SplineSet
207 615 m 1
 1010 615 l 1
 1010 467 l 1
 207 467 l 1
 207 615 l 1
207 953 m 1
 1010 953 l 1
 1010 805 l 1
 207 805 l 1
 207 953 l 1
EndSplineSet
EndUndoOperation
EndUndoes
Redoes
EndRedoes
EndUndoRedoHistory
Fore
SplineSet
207 615 m 1
 1010 615 l 1
 1010 467 l 1
 207 467 l 1
 207 615 l 1
207 953 m 1
 1010 953 l 1
 1010 805 l 1
 207 805 l 1
 207 953 l 1
EndSplineSet
EndChar

StartChar: eth
Encoding: 173 240 77
Width: 841
VWidth: 0
Flags: W
PickledData: "(dp1
S'com.typemytype.robofont.layerData'
p2
(dp3
s."
LayerCount: 2
UndoRedoHistory
Layer: 1
Undoes
UndoOperation
Index: 0
Type: 1
WasModified: 0
WasOrder2: 0
Width: 841
VWidth: 0
LBearingChange: 0
UnicodeEnc: 0
InstructionsLength: 0
SplineSet
168 1309 m 1
 232 1483 l 1
 452 1483 589 1418 653 1341 c 1
 766 1393 l 1
 818 1285 l 1
 711 1236 l 1
 745 1150 765 1056 765 948 c 2
 765 251 l 2
 765 83 623 -20 411 -20 c 0
 204 -20 68 83 68 251 c 2
 68 768 l 2
 68 918 178 1002 296 1002 c 0
 353 1002 433 989 498 963 c 1
 496 1027 489 1083 472 1129 c 1
 286 1074 l 1
 235 1182 l 1
 386 1237 l 1
 326 1269 257 1309 168 1309 c 1
501 753 m 2
 501 787 461 805 416 805 c 0
 371 805 331 787 331 748 c 2
 331 254 l 2
 331 219 336 178 411 178 c 0
 490 178 501 218 501 254 c 2
 501 753 l 2
EndSplineSet
EndUndoOperation
EndUndoes
Redoes
EndRedoes
EndUndoRedoHistory
Fore
SplineSet
168 1309 m 1
 232 1483 l 1
 452 1483 589 1418 653 1341 c 1
 766 1393 l 1
 818 1285 l 1
 711 1236 l 1
 745 1150 765 1056 765 948 c 2
 765 251 l 2
 765 83 623 -20 411 -20 c 0
 204 -20 68 83 68 251 c 2
 68 768 l 2
 68 918 178 1002 296 1002 c 0
 353 1002 433 989 498 963 c 1
 496 1027 489 1083 472 1129 c 1
 286 1074 l 1
 235 1182 l 1
 386 1237 l 1
 326 1269 257 1309 168 1309 c 1
501 753 m 2
 501 787 461 805 416 805 c 0
 371 805 331 787 331 748 c 2
 331 254 l 2
 331 219 336 178 411 178 c 0
 490 178 501 218 501 254 c 2
 501 753 l 2
EndSplineSet
EndChar

StartChar: exclam
Encoding: 1 33 78
Width: 680
VWidth: 0
Flags: W
PickledData: "(dp1
S'com.typemytype.robofont.layerData'
p2
(dp3
s."
LayerCount: 2
UndoRedoHistory
Layer: 1
Undoes
UndoOperation
Index: 0
Type: 1
WasModified: 0
WasOrder2: 0
Width: 680
VWidth: 0
LBearingChange: 0
UnicodeEnc: 0
InstructionsLength: 0
SplineSet
242 206 m 1
 447 206 l 1
 447 0 l 1
 242 0 l 1
 242 206 l 1
249 1446 m 1
 451 1446 l 1
 451 1060 372 371 372 371 c 1
 316 371 l 1
 316 371 249 1060 249 1446 c 1
EndSplineSet
EndUndoOperation
EndUndoes
Redoes
EndRedoes
EndUndoRedoHistory
Fore
SplineSet
242 206 m 1
 447 206 l 1
 447 0 l 1
 242 0 l 1
 242 206 l 1
249 1446 m 1
 451 1446 l 1
 451 1060 372 371 372 371 c 1
 316 371 l 1
 316 371 249 1060 249 1446 c 1
EndSplineSet
EndChar

StartChar: exclamdown
Encoding: 96 161 79
Width: 468
VWidth: 0
Flags: W
PickledData: "(dp1
S'com.typemytype.robofont.layerData'
p2
(dp3
s."
LayerCount: 2
UndoRedoHistory
Layer: 1
Undoes
UndoOperation
Index: 0
Type: 1
WasModified: 0
WasOrder2: 0
Width: 468
VWidth: 0
LBearingChange: 0
UnicodeEnc: 0
InstructionsLength: 0
SplineSet
349 878 m 1
 144 878 l 1
 144 1084 l 1
 349 1084 l 1
 349 878 l 1
347 -362 m 1
 145 -362 l 1
 214 713 l 1
 290 713 l 1
 347 -362 l 1
EndSplineSet
EndUndoOperation
EndUndoes
Redoes
EndRedoes
EndUndoRedoHistory
Fore
SplineSet
349 878 m 1
 144 878 l 1
 144 1084 l 1
 349 1084 l 1
 349 878 l 1
347 -362 m 1
 145 -362 l 1
 214 713 l 1
 290 713 l 1
 347 -362 l 1
EndSplineSet
EndChar

StartChar: f
Encoding: 70 102 80
Width: 793
VWidth: 0
Flags: W
PickledData: "(dp1
S'com.typemytype.robofont.layerData'
p2
(dp3
s."
LayerCount: 2
UndoRedoHistory
Layer: 1
Undoes
UndoOperation
Index: 0
Type: 1
WasModified: 0
WasOrder2: 0
Width: 793
VWidth: 0
LBearingChange: 0
UnicodeEnc: 0
InstructionsLength: 0
SplineSet
572 1434 m 2
 691 1434 l 1
 691 1301 l 1
 607 1301 l 2
 472 1301 466 1244 466 1168 c 2
 466 1060 l 1
 693 1060 l 1
 693 943 l 1
 466 943 l 1
 466 0 l 1
 278 0 l 1
 278 943 l 1
 101 943 l 1
 101 1060 l 1
 278 1060 l 1
 278 1137 l 2
 278 1335 354 1434 572 1434 c 2
EndSplineSet
EndUndoOperation
EndUndoes
Redoes
EndRedoes
EndUndoRedoHistory
Fore
SplineSet
572 1434 m 2
 691 1434 l 1
 691 1301 l 1
 607 1301 l 2
 472 1301 466 1244 466 1168 c 2
 466 1060 l 1
 693 1060 l 1
 693 943 l 1
 466 943 l 1
 466 0 l 1
 278 0 l 1
 278 943 l 1
 101 943 l 1
 101 1060 l 1
 278 1060 l 1
 278 1137 l 2
 278 1335 354 1434 572 1434 c 2
EndSplineSet
EndChar

StartChar: fi
Encoding: 415 64257 81
Width: 1248
VWidth: 0
Flags: W
PickledData: "(dp1
S'com.typemytype.robofont.layerData'
p2
(dp3
s."
LayerCount: 2
UndoRedoHistory
Layer: 1
Undoes
UndoOperation
Index: 0
Type: 1
WasModified: 0
WasOrder2: 0
Width: 1248
VWidth: 0
LBearingChange: 0
UnicodeEnc: 0
Refer: 91 105 N 1 0 0 1 671 0 2
InstructionsLength: 0
SplineSet
557 1446 m 2
 663 1446 l 1
 663 1313 l 1
 592 1313 l 2
 457 1313 451 1256 451 1180 c 2
 451 1060 l 1
 935 1060 l 1
 935 943 l 1
 451 943 l 1
 451 0 l 1
 263 0 l 1
 263 943 l 1
 101 943 l 1
 101 1060 l 1
 263 1060 l 1
 263 1149 l 2
 263 1347 339 1446 557 1446 c 2
EndSplineSet
EndUndoOperation
EndUndoes
Redoes
EndRedoes
EndUndoRedoHistory
Fore
SplineSet
557 1446 m 2
 663 1446 l 1
 663 1313 l 1
 592 1313 l 2
 457 1313 451 1256 451 1180 c 2
 451 1060 l 1
 935 1060 l 1
 935 943 l 1
 451 943 l 1
 451 0 l 1
 263 0 l 1
 263 943 l 1
 101 943 l 1
 101 1060 l 1
 263 1060 l 1
 263 1149 l 2
 263 1347 339 1446 557 1446 c 2
EndSplineSet
Refer: 91 105 N 1 0 0 1 671 0 2
EndChar

StartChar: fl
Encoding: 416 64258 82
Width: 1377
VWidth: 0
Flags: HW
PickledData: "(dp1
S'com.typemytype.robofont.layerData'
p2
(dp3
s."
LayerCount: 2
UndoRedoHistory
Layer: 1
Undoes
UndoOperation
Index: 0
Type: 1
WasModified: 0
WasOrder2: 0
Width: 1377
VWidth: 0
LBearingChange: 0
UnicodeEnc: 0
InstructionsLength: 0
SplineSet
1086 1446 m 1
 587 1446 l 2
 369 1446 263 1258 263 1060 c 1
 101 1060 l 1
 101 943 l 1
 263 943 l 1
 263 0 l 1
 451 0 l 1
 451 943 l 1
 666 943 l 1
 666 1060 l 1
 451 1060 l 1
 451 1148 l 2
 451 1224 488 1313 622 1313 c 2
 898 1313 l 1
 898 362 l 2
 898 83 1016 0 1248 0 c 2
 1320 0 l 1
 1320 145 l 1
 1291 145 l 2
 1104 145 1086 217 1086 360 c 2
 1086 1446 l 1
EndSplineSet
EndUndoOperation
EndUndoes
Redoes
EndRedoes
EndUndoRedoHistory
Fore
SplineSet
1086 1446 m 1
 1086 360 l 2
 1086 217 1104 145 1291 145 c 2
 1320 145 l 1
 1320 0 l 1
 1248 0 l 2
 1016 0 898 83 898 362 c 2
 898 1313 l 1
 622 1313 l 2
 488 1313 451 1224 451 1148 c 2
 451 1060 l 1
 666 1060 l 1
 666 943 l 1
 451 943 l 1
 451 0 l 1
 263 0 l 1
 263 943 l 1
 101 943 l 1
 101 1060 l 1
 263 1060 l 1
 263 1258 369 1446 587 1446 c 2
 1086 1446 l 1
EndSplineSet
EndChar

StartChar: florin
Encoding: 309 402 83
Width: 890
VWidth: 0
Flags: W
PickledData: "(dp1
S'com.typemytype.robofont.layerData'
p2
(dp3
s."
LayerCount: 2
UndoRedoHistory
Layer: 1
Undoes
UndoOperation
Index: 0
Type: 1
WasModified: 0
WasOrder2: 0
Width: 890
VWidth: 0
LBearingChange: 0
UnicodeEnc: 0
InstructionsLength: 0
SplineSet
710 1334 m 1
 695 1335 681 1336 668 1336 c 0
 521 1336 521 1247 521 1177 c 2
 521 858 l 1
 650 858 l 1
 650 727 l 1
 521 727 l 1
 521 91 l 2
 521 -81 494 -191 253 -191 c 0
 220 -191 190 -189 141 -183 c 1
 141 -59 l 1
 164 -61 184 -62 201 -62 c 0
 333 -62 333 -1 333 63 c 2
 333 727 l 1
 216 727 l 1
 216 858 l 1
 333 858 l 1
 333 1155 l 2
 333 1321 353 1466 560 1466 c 0
 594 1466 654 1464 710 1458 c 1
 710 1334 l 1
EndSplineSet
EndUndoOperation
EndUndoes
Redoes
EndRedoes
EndUndoRedoHistory
Fore
SplineSet
710 1334 m 1
 695 1335 681 1336 668 1336 c 0
 521 1336 521 1247 521 1177 c 2
 521 858 l 1
 650 858 l 1
 650 727 l 1
 521 727 l 1
 521 91 l 2
 521 -81 494 -191 253 -191 c 0
 220 -191 190 -189 141 -183 c 1
 141 -59 l 1
 164 -61 184 -62 201 -62 c 0
 333 -62 333 -1 333 63 c 2
 333 727 l 1
 216 727 l 1
 216 858 l 1
 333 858 l 1
 333 1155 l 2
 333 1321 353 1466 560 1466 c 0
 594 1466 654 1464 710 1458 c 1
 710 1334 l 1
EndSplineSet
EndChar

StartChar: fraction
Encoding: 401 8260 84
Width: 979
VWidth: 0
Flags: W
PickledData: "(dp1
S'com.typemytype.robofont.layerData'
p2
(dp3
S'b'
(dp4
S'name'
p5
S'fraction'
p6
sS'lib'
p7
(dp8
sS'unicodes'
p9
(tsS'width'
p10
I979
sS'contours'
p11
(tsS'components'
p12
(tsS'anchors'
p13
(tsss."
LayerCount: 2
UndoRedoHistory
Layer: 1
Undoes
UndoOperation
Index: 0
Type: 1
WasModified: 0
WasOrder2: 0
Width: 979
VWidth: 0
LBearingChange: 0
UnicodeEnc: 0
InstructionsLength: 0
SplineSet
665 1446 m 1
 858 1446 l 1
 320 0 l 1
 125 0 l 1
 665 1446 l 1
EndSplineSet
EndUndoOperation
EndUndoes
Redoes
EndRedoes
EndUndoRedoHistory
Fore
SplineSet
665 1446 m 1
 858 1446 l 1
 320 0 l 1
 125 0 l 1
 665 1446 l 1
EndSplineSet
EndChar

StartChar: g
Encoding: 71 103 85
Width: 1197
VWidth: 0
Flags: HW
PickledData: "(dp1
S'com.typemytype.robofont.layerData'
p2
(dp3
s."
LayerCount: 2
UndoRedoHistory
Layer: 1
Undoes
UndoOperation
Index: 0
Type: 1
WasModified: 0
WasOrder2: 0
Width: 1197
VWidth: 0
LBearingChange: 0
UnicodeEnc: 0
InstructionsLength: 0
SplineSet
595 935 m 0
 762 935 839 869 839 810 c 2
 839 239 l 1
 809 215 732 157 592 157 c 0
 454 157 348 196 348 323 c 2
 348 748 l 2
 348 878 447 935 595 935 c 0
1027 30 m 2
 1027 1060 l 1
 839 1060 l 1
 839 975 l 1
 809 1025 675 1076 567 1076 c 0
 291 1076 160 941 160 728 c 2
 160 352 l 2
 160 132 322 15 593 15 c 0
 666 15 779 44 839 100 c 1
 841 -23 l 2
 842 -100 806 -210 614 -210 c 0
 481 -210 353 -169 314 -143 c 1
 262 -282 l 1
 360 -335 477 -350 620 -350 c 0
 900 -350 1027 -188 1027 30 c 2
EndSplineSet
EndUndoOperation
EndUndoes
Redoes
EndRedoes
EndUndoRedoHistory
Fore
SplineSet
595 935 m 0
 447 935 348 878 348 748 c 2
 348 323 l 2
 348 196 454 157 592 157 c 0
 732 157 809 215 839 239 c 1
 839 810 l 2
 839 869 762 935 595 935 c 0
1027 30 m 2
 1027 -188 900 -350 620 -350 c 0
 477 -350 360 -335 262 -282 c 1
 314 -143 l 1
 353 -169 481 -210 614 -210 c 0
 806 -210 842 -100 841 -23 c 2
 839 100 l 1
 779 44 666 15 593 15 c 0
 322 15 160 132 160 352 c 2
 160 728 l 2
 160 941 291 1076 567 1076 c 0
 675 1076 809 1025 839 975 c 1
 839 1060 l 1
 1027 1060 l 1
 1027 30 l 2
EndSplineSet
EndChar

StartChar: grave
Encoding: 64 96 86
Width: 616
VWidth: 0
Flags: W
PickledData: "(dp1
S'com.typemytype.robofont.layerData'
p2
(dp3
s."
LayerCount: 2
UndoRedoHistory
Layer: 1
Undoes
UndoOperation
Index: 0
Type: 1
WasModified: 0
WasOrder2: 0
Width: 616
VWidth: 0
LBearingChange: 0
UnicodeEnc: 0
InstructionsLength: 0
SplineSet
115 1496 m 1
 340 1496 l 1
 478 1155 l 1
 372 1155 l 1
 115 1496 l 1
EndSplineSet
EndUndoOperation
EndUndoes
Redoes
EndRedoes
EndUndoRedoHistory
Fore
SplineSet
115 1496 m 1
 340 1496 l 1
 478 1155 l 1
 372 1155 l 1
 115 1496 l 1
EndSplineSet
EndChar

StartChar: greater
Encoding: 30 62 87
Width: 1455
VWidth: 0
Flags: W
PickledData: "(dp1
S'com.typemytype.robofont.layerData'
p2
(dp3
s."
LayerCount: 2
UndoRedoHistory
Layer: 1
Undoes
UndoOperation
Index: 0
Type: 1
WasModified: 0
WasOrder2: 0
Width: 1455
VWidth: 0
LBearingChange: 0
UnicodeEnc: 0
InstructionsLength: 0
SplineSet
318 219 m 1
 1039 571 l 1
 318 927 l 1
 318 1144 l 1
 1204 673 l 1
 1204 472 l 1
 318 0 l 1
 318 219 l 1
EndSplineSet
EndUndoOperation
EndUndoes
Redoes
EndRedoes
EndUndoRedoHistory
Fore
SplineSet
318 219 m 1
 1039 571 l 1
 318 927 l 1
 318 1144 l 1
 1204 673 l 1
 1204 472 l 1
 318 0 l 1
 318 219 l 1
EndSplineSet
EndChar

StartChar: h
Encoding: 72 104 88
Width: 1221
VWidth: 0
Flags: W
PickledData: "(dp1
S'com.typemytype.robofont.layerData'
p2
(dp3
s."
LayerCount: 2
UndoRedoHistory
Layer: 1
Undoes
UndoOperation
Index: 0
Type: 1
WasModified: 0
WasOrder2: 0
Width: 1221
VWidth: 0
LBearingChange: 0
UnicodeEnc: 0
InstructionsLength: 0
SplineSet
181 0 m 1
 181 1446 l 1
 369 1446 l 1
 369 961 l 1
 431 1033 532 1084 686 1084 c 0
 947 1084 1056 942 1056 774 c 2
 1056 0 l 1
 868 0 l 1
 868 787 l 2
 868 892 769 942 638 942 c 0
 454 942 369 861 369 759 c 2
 369 0 l 1
 181 0 l 1
EndSplineSet
EndUndoOperation
EndUndoes
Redoes
EndRedoes
EndUndoRedoHistory
Fore
SplineSet
181 0 m 1
 181 1446 l 1
 369 1446 l 1
 369 961 l 1
 431 1033 532 1084 686 1084 c 0
 947 1084 1056 942 1056 774 c 2
 1056 0 l 1
 868 0 l 1
 868 787 l 2
 868 892 769 942 638 942 c 0
 454 942 369 861 369 759 c 2
 369 0 l 1
 181 0 l 1
EndSplineSet
EndChar

StartChar: hungarumlaut
Encoding: 360 733 89
Width: 985
VWidth: 0
Flags: W
PickledData: "(dp1
S'com.typemytype.robofont.layerData'
p2
(dp3
s."
LayerCount: 2
UndoRedoHistory
Layer: 1
Undoes
UndoOperation
Index: 0
Type: 1
WasModified: 0
WasOrder2: 0
Width: 985
VWidth: 0
LBearingChange: 0
UnicodeEnc: 0
InstructionsLength: 0
SplineSet
249 1638 m 1
 460 1638 l 1
 241 1163 l 1
 143 1163 l 1
 249 1638 l 1
613 1638 m 1
 823 1638 l 1
 507 1163 l 1
 384 1163 l 1
 613 1638 l 1
EndSplineSet
EndUndoOperation
EndUndoes
Redoes
EndRedoes
EndUndoRedoHistory
Fore
SplineSet
249 1638 m 1
 460 1638 l 1
 241 1163 l 1
 143 1163 l 1
 249 1638 l 1
613 1638 m 1
 823 1638 l 1
 507 1163 l 1
 384 1163 l 1
 613 1638 l 1
EndSplineSet
EndChar

StartChar: hyphen
Encoding: 13 45 90
Width: 942
VWidth: 0
Flags: W
PickledData: "(dp1
S'com.typemytype.robofont.layerData'
p2
(dp3
s."
LayerCount: 2
UndoRedoHistory
Layer: 1
Undoes
UndoOperation
Index: 0
Type: 1
WasModified: 0
WasOrder2: 0
Width: 942
VWidth: 0
LBearingChange: 0
UnicodeEnc: 0
InstructionsLength: 0
SplineSet
822 642 m 1
 822 494 l 1
 120 494 l 1
 120 642 l 1
 822 642 l 1
EndSplineSet
EndUndoOperation
EndUndoes
Redoes
EndRedoes
EndUndoRedoHistory
Fore
SplineSet
822 642 m 1
 822 494 l 1
 120 494 l 1
 120 642 l 1
 822 642 l 1
EndSplineSet
EndChar

StartChar: i
Encoding: 73 105 91
Width: 577
VWidth: 0
Flags: W
PickledData: "(dp1
S'com.typemytype.robofont.layerData'
p2
(dp3
s."
LayerCount: 2
UndoRedoHistory
Layer: 1
Undoes
UndoOperation
Index: 0
Type: 1
WasModified: 0
WasOrder2: 0
Width: 577
VWidth: 0
LBearingChange: 0
UnicodeEnc: 0
InstructionsLength: 0
SplineSet
198 1434 m 1
 403 1434 l 1
 403 1233 l 1
 198 1233 l 1
 198 1434 l 1
209 1060 m 1
 396 1060 l 1
 396 0 l 1
 209 0 l 1
 209 1060 l 1
EndSplineSet
EndUndoOperation
EndUndoes
Redoes
EndRedoes
EndUndoRedoHistory
Fore
SplineSet
198 1434 m 1
 403 1434 l 1
 403 1233 l 1
 198 1233 l 1
 198 1434 l 1
209 1060 m 1
 396 1060 l 1
 396 0 l 1
 209 0 l 1
 209 1060 l 1
EndSplineSet
EndChar

StartChar: iacute
Encoding: 170 237 92
Width: 419
VWidth: 0
Flags: HW
PickledData: "(dp1
S'com.typemytype.robofont.layerData'
p2
(dp3
s."
LayerCount: 2
UndoRedoHistory
Layer: 1
Undoes
UndoOperation
Index: 0
Type: 3
WasModified: 0
WasOrder2: 0
EndUndoOperation
UndoOperation
Index: 1
Type: 1
WasModified: 0
WasOrder2: 0
Width: 419
VWidth: 0
LBearingChange: 0
UnicodeEnc: 0
InstructionsLength: 0
SplineSet
96 1084 m 1
 359 1084 l 1
 359 0 l 1
 96 0 l 1
 96 1084 l 1
250 1502 m 1
 515 1502 l 1
 307 1184 l 1
 146 1184 l 1
 250 1502 l 1
EndSplineSet
EndUndoOperation
EndUndoes
Redoes
EndRedoes
EndUndoRedoHistory
Fore
Refer: 43 180 N 1 0 0 1 -69 51 2
Refer: 71 305 N 1 0 0 1 0 0 3
EndChar

StartChar: icircumflex
Encoding: 171 238 93
Width: 419
VWidth: 0
Flags: HW
PickledData: "(dp1
S'com.typemytype.robofont.layerData'
p2
(dp3
s."
LayerCount: 2
UndoRedoHistory
Layer: 1
Undoes
UndoOperation
Index: 0
Type: 3
WasModified: 0
WasOrder2: 0
EndUndoOperation
UndoOperation
Index: 1
Type: 1
WasModified: 0
WasOrder2: 0
Width: 419
VWidth: 0
LBearingChange: 0
UnicodeEnc: 0
InstructionsLength: 0
SplineSet
96 1084 m 1
 359 1084 l 1
 359 0 l 1
 96 0 l 1
 96 1084 l 1
113 1479 m 1
 451 1479 l 1
 611 1184 l 1
 383 1184 l 1
 282 1328 l 1
 183 1184 l 1
 -43 1184 l 1
 113 1479 l 1
EndSplineSet
EndUndoOperation
EndUndoes
Redoes
EndRedoes
EndUndoRedoHistory
Fore
Refer: 60 710 N 1 0 0 1 -376 -308 2
Refer: 71 305 N 1 0 0 1 0 0 3
EndChar

StartChar: idieresis
Encoding: 172 239 94
Width: 419
VWidth: 0
Flags: HW
PickledData: "(dp1
S'com.typemytype.robofont.layerData'
p2
(dp3
s."
LayerCount: 2
UndoRedoHistory
Layer: 1
Undoes
UndoOperation
Index: 0
Type: 3
WasModified: 0
WasOrder2: 0
EndUndoOperation
UndoOperation
Index: 1
Type: 1
WasModified: 0
WasOrder2: 0
Width: 419
VWidth: 0
LBearingChange: 0
UnicodeEnc: 0
InstructionsLength: 0
SplineSet
96 1084 m 1
 359 1084 l 1
 359 0 l 1
 96 0 l 1
 96 1084 l 1
-62 1186 m 1
 -62 1415 l 1
 203 1415 l 1
 203 1186 l 1
 -62 1186 l 1
397 1186 m 1
 397 1415 l 1
 664 1415 l 1
 664 1186 l 1
 397 1186 l 1
EndSplineSet
EndUndoOperation
EndUndoes
Redoes
EndRedoes
EndUndoRedoHistory
Fore
Refer: 68 168 N 1 0 0 1 -244 -59 2
Refer: 71 305 N 1 0 0 1 0 0 3
EndChar

StartChar: igrave
Encoding: 169 236 95
Width: 419
VWidth: 0
Flags: HW
PickledData: "(dp1
S'com.typemytype.robofont.layerData'
p2
(dp3
s."
LayerCount: 2
UndoRedoHistory
Layer: 1
Undoes
UndoOperation
Index: 0
Type: 3
WasModified: 0
WasOrder2: 0
EndUndoOperation
UndoOperation
Index: 1
Type: 1
WasModified: 0
WasOrder2: 0
Width: 419
VWidth: 0
LBearingChange: 0
UnicodeEnc: 0
InstructionsLength: 0
SplineSet
96 1084 m 1
 359 1084 l 1
 359 0 l 1
 96 0 l 1
 96 1084 l 1
18 1474 m 1
 284 1474 l 1
 388 1155 l 1
 226 1155 l 1
 18 1474 l 1
EndSplineSet
EndUndoOperation
EndUndoes
Redoes
EndRedoes
EndUndoRedoHistory
Fore
Refer: 86 96 N 1 0 0 1 -69 51 2
Refer: 71 305 N 1 0 0 1 0 0 3
EndChar

StartChar: j
Encoding: 74 106 96
Width: 617
VWidth: 0
Flags: W
PickledData: "(dp1
S'com.typemytype.robofont.layerData'
p2
(dp3
s."
LayerCount: 2
UndoRedoHistory
Layer: 1
Undoes
UndoOperation
Index: 0
Type: 1
WasModified: 0
WasOrder2: 0
Width: 617
VWidth: 0
LBearingChange: 0
UnicodeEnc: 0
InstructionsLength: 0
SplineSet
246 1434 m 1
 433 1434 l 1
 433 1255 l 1
 246 1255 l 1
 246 1434 l 1
250 1061 m 1
 434 1061 l 1
 434 9 l 2
 434 -153 328 -251 152 -251 c 2
 46 -251 l 1
 46 -117 l 1
 116 -117 l 2
 249 -117 250 -14 250 26 c 2
 250 1061 l 1
EndSplineSet
EndUndoOperation
EndUndoes
Redoes
EndRedoes
EndUndoRedoHistory
Fore
SplineSet
246 1434 m 1
 433 1434 l 1
 433 1255 l 1
 246 1255 l 1
 246 1434 l 1
250 1061 m 1
 434 1061 l 1
 434 9 l 2
 434 -153 328 -251 152 -251 c 2
 46 -251 l 1
 46 -117 l 1
 116 -117 l 2
 249 -117 250 -14 250 26 c 2
 250 1061 l 1
EndSplineSet
EndChar

StartChar: k
Encoding: 75 107 97
Width: 1127
VWidth: 0
Flags: W
PickledData: "(dp1
S'com.typemytype.robofont.layerData'
p2
(dp3
s."
LayerCount: 2
UndoRedoHistory
Layer: 1
Undoes
UndoOperation
Index: 0
Type: 1
WasModified: 0
WasOrder2: 0
Width: 1127
VWidth: 0
LBearingChange: 0
UnicodeEnc: 0
InstructionsLength: 0
SplineSet
181 1446 m 1
 369 1446 l 1
 369 510 l 1
 483 632 l 1
 875 1060 l 1
 1083 1060 l 1
 661 583 l 1
 1093 0 l 1
 884 0 l 1
 515 498 l 1
 369 354 l 1
 369 0 l 1
 181 0 l 1
 181 1446 l 1
EndSplineSet
EndUndoOperation
EndUndoes
Redoes
EndRedoes
EndUndoRedoHistory
Fore
SplineSet
181 1446 m 1
 369 1446 l 1
 369 510 l 1
 483 632 l 1
 875 1060 l 1
 1083 1060 l 1
 661 583 l 1
 1093 0 l 1
 884 0 l 1
 515 498 l 1
 369 354 l 1
 369 0 l 1
 181 0 l 1
 181 1446 l 1
EndSplineSet
EndChar

StartChar: l
Encoding: 76 108 98
Width: 690
VWidth: 0
Flags: W
PickledData: "(dp1
S'com.typemytype.robofont.layerData'
p2
(dp3
s."
LayerCount: 2
UndoRedoHistory
Layer: 1
Undoes
UndoOperation
Index: 0
Type: 1
WasModified: 0
WasOrder2: 0
Width: 690
VWidth: 0
LBearingChange: 0
UnicodeEnc: 0
InstructionsLength: 0
SplineSet
186 362 m 2
 186 1446 l 1
 374 1446 l 1
 374 360 l 2
 374 217 420 145 607 145 c 2
 636 145 l 1
 636 0 l 1
 564 0 l 2
 332 0 186 83 186 362 c 2
EndSplineSet
EndUndoOperation
EndUndoes
Redoes
EndRedoes
EndUndoRedoHistory
Fore
SplineSet
186 362 m 2
 186 1446 l 1
 374 1446 l 1
 374 360 l 2
 374 217 420 145 607 145 c 2
 636 145 l 1
 636 0 l 1
 564 0 l 2
 332 0 186 83 186 362 c 2
EndSplineSet
EndChar

StartChar: less
Encoding: 28 60 99
Width: 1455
VWidth: 0
Flags: W
PickledData: "(dp1
S'com.typemytype.robofont.layerData'
p2
(dp3
s."
LayerCount: 2
UndoRedoHistory
Layer: 1
Undoes
UndoOperation
Index: 0
Type: 1
WasModified: 0
WasOrder2: 0
Width: 1455
VWidth: 0
LBearingChange: 0
UnicodeEnc: 0
InstructionsLength: 0
SplineSet
1137 925 m 1
 416 573 l 1
 1137 217 l 1
 1137 0 l 1
 251 471 l 1
 251 672 l 1
 1137 1144 l 1
 1137 925 l 1
EndSplineSet
EndUndoOperation
EndUndoes
Redoes
EndRedoes
EndUndoRedoHistory
Fore
SplineSet
1137 925 m 1
 416 573 l 1
 1137 217 l 1
 1137 0 l 1
 251 471 l 1
 251 672 l 1
 1137 1144 l 1
 1137 925 l 1
EndSplineSet
EndChar

StartChar: logicalnot
Encoding: 107 172 100
Width: 864
VWidth: 0
Flags: W
PickledData: "(dp1
S'com.typemytype.robofont.layerData'
p2
(dp3
s."
LayerCount: 2
UndoRedoHistory
Layer: 1
Undoes
UndoOperation
Index: 0
Type: 1
WasModified: 0
WasOrder2: 0
Width: 864
VWidth: 0
LBearingChange: 0
UnicodeEnc: 0
InstructionsLength: 0
SplineSet
721 692 m 1
 721 333 l 1
 589 333 l 1
 589 556 l 1
 98 556 l 1
 98 692 l 1
 721 692 l 1
EndSplineSet
EndUndoOperation
EndUndoes
Redoes
EndRedoes
EndUndoRedoHistory
Fore
SplineSet
721 692 m 1
 721 333 l 1
 589 333 l 1
 589 556 l 1
 98 556 l 1
 98 692 l 1
 721 692 l 1
EndSplineSet
EndChar

StartChar: lslash
Encoding: 255 322 101
Width: 490
VWidth: 0
Flags: W
PickledData: "(dp1
S'com.typemytype.robofont.layerData'
p2
(dp3
s."
LayerCount: 2
UndoRedoHistory
Layer: 1
Undoes
UndoOperation
Index: 0
Type: 1
WasModified: 0
WasOrder2: 0
Width: 490
VWidth: 0
LBearingChange: 0
UnicodeEnc: 0
InstructionsLength: 0
SplineSet
125 1459 m 1
 389 1459 l 1
 389 970 l 1
 527 1020 l 1
 527 881 l 1
 389 831 l 1
 389 0 l 1
 125 0 l 1
 125 733 l 1
 -10 684 l 1
 -10 824 l 1
 125 872 l 1
 125 1459 l 1
EndSplineSet
EndUndoOperation
EndUndoes
Redoes
EndRedoes
EndUndoRedoHistory
Fore
SplineSet
125 1459 m 1
 389 1459 l 1
 389 970 l 1
 527 1020 l 1
 527 881 l 1
 389 831 l 1
 389 0 l 1
 125 0 l 1
 125 733 l 1
 -10 684 l 1
 -10 824 l 1
 125 872 l 1
 125 1459 l 1
EndSplineSet
EndChar

StartChar: m
Encoding: 77 109 102
Width: 1843
VWidth: 0
Flags: W
PickledData: "(dp1
S'com.typemytype.robofont.layerData'
p2
(dp3
s."
LayerCount: 2
UndoRedoHistory
Layer: 1
Undoes
UndoOperation
Index: 0
Type: 1
WasModified: 0
WasOrder2: 0
Width: 1843
VWidth: 0
LBearingChange: 0
UnicodeEnc: 0
InstructionsLength: 0
SplineSet
1009 965 m 2
 1076 1032 1177 1080 1331 1080 c 0
 1592 1080 1680 938 1680 770 c 2
 1680 0 l 1
 1492 0 l 1
 1492 783 l 2
 1492 888 1414 938 1283 938 c 0
 1099 938 1027 857 1027 755 c 1
 951 908 l 1
 1009 965 l 2
181 0 m 1
 181 1060 l 1
 369 1060 l 1
 369 957 l 1
 431 1029 519 1080 673 1080 c 0
 934 1080 1027 938 1027 770 c 2
 1027 0 l 1
 839 0 l 1
 839 783 l 2
 839 888 756 938 625 938 c 0
 441 938 369 857 369 755 c 2
 369 0 l 1
 181 0 l 1
EndSplineSet
EndUndoOperation
EndUndoes
Redoes
EndRedoes
EndUndoRedoHistory
Fore
SplineSet
1009 965 m 2
 1076 1032 1177 1080 1331 1080 c 0
 1592 1080 1680 938 1680 770 c 2
 1680 0 l 1
 1492 0 l 1
 1492 783 l 2
 1492 888 1414 938 1283 938 c 0
 1099 938 1027 857 1027 755 c 1
 951 908 l 1
 1009 965 l 2
181 0 m 1
 181 1060 l 1
 369 1060 l 1
 369 957 l 1
 431 1029 519 1080 673 1080 c 0
 934 1080 1027 938 1027 770 c 2
 1027 0 l 1
 839 0 l 1
 839 783 l 2
 839 888 756 938 625 938 c 0
 441 938 369 857 369 755 c 2
 369 0 l 1
 181 0 l 1
EndSplineSet
EndChar

StartChar: macron
Encoding: 110 175 103
Width: 472
VWidth: 0
Flags: W
PickledData: "(dp1
S'com.typemytype.robofont.layerData'
p2
(dp3
s."
LayerCount: 2
UndoRedoHistory
Layer: 1
Undoes
UndoOperation
Index: 0
Type: 1
WasModified: 0
WasOrder2: 0
Width: 472
VWidth: 0
LBearingChange: 0
UnicodeEnc: 0
InstructionsLength: 0
SplineSet
37 1351 m 1
 438 1351 l 1
 438 1199 l 1
 37 1199 l 1
 37 1351 l 1
EndSplineSet
EndUndoOperation
EndUndoes
Redoes
EndRedoes
EndUndoRedoHistory
Fore
SplineSet
37 1351 m 1
 438 1351 l 1
 438 1199 l 1
 37 1199 l 1
 37 1351 l 1
EndSplineSet
EndChar

StartChar: minus
Encoding: 405 8722 104
Width: 910
VWidth: 0
Flags: W
PickledData: "(dp1
S'com.typemytype.robofont.layerData'
p2
(dp3
s."
LayerCount: 2
UndoRedoHistory
Layer: 1
Undoes
UndoOperation
Index: 0
Type: 1
WasModified: 0
WasOrder2: 0
Width: 910
VWidth: 0
LBearingChange: 0
UnicodeEnc: 0
InstructionsLength: 0
SplineSet
765 609 m 1
 765 439 l 1
 138 439 l 1
 138 609 l 1
 765 609 l 1
EndSplineSet
EndUndoOperation
EndUndoes
Redoes
EndRedoes
EndUndoRedoHistory
Fore
SplineSet
765 609 m 1
 765 439 l 1
 138 439 l 1
 138 609 l 1
 765 609 l 1
EndSplineSet
EndChar

StartChar: multiply
Encoding: 148 215 105
Width: 973
VWidth: 0
Flags: HW
PickledData: "(dp1
S'com.typemytype.robofont.layerData'
p2
(dp3
S'b'
(dp4
S'name'
p5
S'multiply'
p6
sS'lib'
p7
(dp8
sS'unicodes'
p9
(tsS'width'
p10
I973
sS'contours'
p11
((dp12
S'points'
p13
((dp14
S'segmentType'
p15
S'line'
p16
sS'x'
F725
sS'smooth'
p17
I00
sS'y'
F858
s(dp18
g15
S'line'
p19
sS'x'
F844
sg17
I00
sS'y'
F742
s(dp20
g15
S'line'
p21
sS'x'
F187
sg17
I00
sS'y'
F216
s(dp22
g15
S'line'
p23
sS'x'
F68
sg17
I00
sS'y'
F330
stp24
stp25
sS'components'
p26
(tsS'anchors'
p27
(tsss."
LayerCount: 2
UndoRedoHistory
Layer: 1
Undoes
UndoOperation
Index: 0
Type: 1
WasModified: 0
WasOrder2: 0
Width: 973
VWidth: 0
LBearingChange: 0
UnicodeEnc: 0
InstructionsLength: 0
SplineSet
735 216 m 1
 844 344 l 1
 608 576 l 1
 844 806 l 1
 735 937 l 1
 487 694 l 1
 239 937 l 1
 129 806 l 1
 366 576 l 1
 129 344 l 1
 239 216 l 1
 487 458 l 1
 735 216 l 1
EndSplineSet
EndUndoOperation
EndUndoes
Redoes
EndRedoes
EndUndoRedoHistory
Fore
SplineSet
735 216 m 1
 487 458 l 1
 239 216 l 1
 129 344 l 1
 366 576 l 1
 129 806 l 1
 239 937 l 1
 487 694 l 1
 735 937 l 1
 844 806 l 1
 608 576 l 1
 844 344 l 1
 735 216 l 1
EndSplineSet
EndChar

StartChar: n
Encoding: 78 110 106
Width: 1205
VWidth: 0
Flags: W
PickledData: "(dp1
S'com.typemytype.robofont.layerData'
p2
(dp3
s."
LayerCount: 2
UndoRedoHistory
Layer: 1
Undoes
UndoOperation
Index: 0
Type: 1
WasModified: 0
WasOrder2: 0
Width: 1205
VWidth: 0
LBearingChange: 0
UnicodeEnc: 0
InstructionsLength: 0
SplineSet
181 0 m 1
 181 1060 l 1
 369 1060 l 1
 369 957 l 1
 431 1029 527 1080 681 1080 c 0
 942 1080 1042 938 1042 770 c 2
 1042 0 l 1
 854 0 l 1
 854 783 l 2
 854 888 764 938 633 938 c 0
 449 938 369 857 369 755 c 2
 369 0 l 1
 181 0 l 1
EndSplineSet
EndUndoOperation
EndUndoes
Redoes
EndRedoes
EndUndoRedoHistory
Fore
SplineSet
181 0 m 1
 181 1060 l 1
 369 1060 l 1
 369 957 l 1
 431 1029 527 1080 681 1080 c 0
 942 1080 1042 938 1042 770 c 2
 1042 0 l 1
 854 0 l 1
 854 783 l 2
 854 888 764 938 633 938 c 0
 449 938 369 857 369 755 c 2
 369 0 l 1
 181 0 l 1
EndSplineSet
EndChar

StartChar: numbersign
Encoding: 3 35 107
Width: 1504
VWidth: 0
Flags: W
PickledData: "(dp1
S'com.typemytype.robofont.layerData'
p2
(dp3
s."
LayerCount: 2
UndoRedoHistory
Layer: 1
Undoes
UndoOperation
Index: 0
Type: 1
WasModified: 0
WasOrder2: 0
Width: 1504
VWidth: 0
LBearingChange: 0
UnicodeEnc: 0
InstructionsLength: 0
SplineSet
111 475 m 1
 111 594 l 1
 1379 594 l 1
 1379 475 l 1
 111 475 l 1
135 910 m 1
 135 1029 l 1
 1403 1029 l 1
 1403 910 l 1
 135 910 l 1
976 -1 m 1
 798 -1 l 1
 1062 1446 l 1
 1232 1446 l 1
 976 -1 l 1
438 -1 m 1
 260 -1 l 1
 524 1446 l 1
 694 1446 l 1
 438 -1 l 1
EndSplineSet
EndUndoOperation
EndUndoes
Redoes
EndRedoes
EndUndoRedoHistory
Fore
SplineSet
111 475 m 1
 111 594 l 1
 1379 594 l 1
 1379 475 l 1
 111 475 l 1
135 910 m 1
 135 1029 l 1
 1403 1029 l 1
 1403 910 l 1
 135 910 l 1
976 -1 m 1
 798 -1 l 1
 1062 1446 l 1
 1232 1446 l 1
 976 -1 l 1
438 -1 m 1
 260 -1 l 1
 524 1446 l 1
 694 1446 l 1
 438 -1 l 1
EndSplineSet
EndChar

StartChar: o
Encoding: 79 111 108
Width: 1167
VWidth: 0
Flags: W
PickledData: "(dp1
S'com.typemytype.robofont.layerData'
p2
(dp3
s."
LayerCount: 2
UndoRedoHistory
Layer: 1
Undoes
UndoOperation
Index: 0
Type: 1
WasModified: 0
WasOrder2: 0
Width: 1167
VWidth: 0
LBearingChange: 0
UnicodeEnc: 0
InstructionsLength: 0
SplineSet
829 763 m 2
 829 888 728 938 583 938 c 0
 444 938 338 894 338 763 c 2
 338 301 l 2
 338 170 436 121 583 121 c 0
 722 121 829 171 829 301 c 2
 829 763 l 2
1017 747 m 2
 1017 317 l 2
 1017 122 912 -20 583 -20 c 0
 267 -20 150 121 150 317 c 2
 150 747 l 2
 150 947 320 1080 583 1080 c 0
 846 1080 1017 947 1017 747 c 2
EndSplineSet
EndUndoOperation
EndUndoes
Redoes
EndRedoes
EndUndoRedoHistory
Fore
SplineSet
829 763 m 2
 829 888 728 938 583 938 c 0
 444 938 338 894 338 763 c 2
 338 301 l 2
 338 170 436 121 583 121 c 0
 722 121 829 171 829 301 c 2
 829 763 l 2
1017 747 m 2
 1017 317 l 2
 1017 122 912 -20 583 -20 c 0
 267 -20 150 121 150 317 c 2
 150 747 l 2
 150 947 320 1080 583 1080 c 0
 846 1080 1017 947 1017 747 c 2
EndSplineSet
EndChar

StartChar: one
Encoding: 17 49 109
Width: 1184
VWidth: 0
Flags: HW
PickledData: "(dp1
S'com.typemytype.robofont.layerData'
p2
(dp3
s."
LayerCount: 2
UndoRedoHistory
Layer: 1
Undoes
UndoOperation
Index: 0
Type: 1
WasModified: 0
WasOrder2: 0
Width: 1184
VWidth: 0
LBearingChange: 0
UnicodeEnc: 0
InstructionsLength: 0
SplineSet
1147 0 m 1
 191 0 l 1
 191 155 l 1
 1147 155 l 1
 1147 0 l 1
793 0 m 1
 592 0 l 1
 592 1277 l 1
 218 1237 l 1
 200 1396 l 1
 629 1446 l 1
 793 1446 l 1
 793 0 l 1
EndSplineSet
EndUndoOperation
EndUndoes
Redoes
EndRedoes
EndUndoRedoHistory
Fore
SplineSet
1147 0 m 1
 191 0 l 1
 191 155 l 1
 1147 155 l 1
 1147 0 l 1
793 0 m 1
 793 1446 l 1
 629 1446 l 1
 200 1396 l 1
 218 1237 l 1
 592 1277 l 1
 592 0 l 1
 793 0 l 1
EndSplineSet
EndChar

StartChar: onesuperior
Encoding: 118 185 110
Width: 315
VWidth: 0
Flags: W
PickledData: "(dp1
S'com.typemytype.robofont.layerData'
p2
(dp3
s."
LayerCount: 2
UndoRedoHistory
Layer: 1
Undoes
UndoOperation
Index: 0
Type: 1
WasModified: 0
WasOrder2: 0
Width: 315
VWidth: 0
LBearingChange: 0
UnicodeEnc: 0
InstructionsLength: 0
SplineSet
117 1596 m 1
 238 1596 l 1
 238 639 l 1
 88 639 l 1
 88 1368 l 1
 8 1368 l 1
 8 1475 l 1
 59.3333333333 1498 95.6666666667 1538.33333333 117 1596 c 1
EndSplineSet
EndUndoOperation
EndUndoes
Redoes
EndRedoes
EndUndoRedoHistory
Fore
SplineSet
117 1596 m 1
 238 1596 l 1
 238 639 l 1
 88 639 l 1
 88 1368 l 1
 8 1368 l 1
 8 1475 l 1
 59.3333333333 1498 95.6666666667 1538.33333333 117 1596 c 1
EndSplineSet
EndChar

StartChar: oslash
Encoding: 181 248 111
Width: 1167
VWidth: 0
Flags: W
PickledData: "(dp1
S'com.typemytype.robofont.layerData'
p2
(dp3
s."
LayerCount: 2
UndoRedoHistory
Layer: 1
Undoes
UndoOperation
Index: 0
Type: 1
WasModified: 0
WasOrder2: 0
Width: 1167
VWidth: 0
LBearingChange: 0
UnicodeEnc: 0
Refer: 108 111 N 1 0 0 1 0 0 2
InstructionsLength: 0
SplineSet
811 1251 m 1
 901 1220 l 1
 363 -226 l 1
 271 -195 l 1
 811 1251 l 1
EndSplineSet
EndUndoOperation
EndUndoes
Redoes
EndRedoes
EndUndoRedoHistory
Fore
SplineSet
811 1251 m 1
 901 1220 l 1
 363 -226 l 1
 271 -195 l 1
 811 1251 l 1
EndSplineSet
Refer: 108 111 N 1 0 0 1 0 0 2
EndChar

StartChar: p
Encoding: 80 112 112
Width: 1198
VWidth: 0
Flags: W
PickledData: "(dp1
S'com.typemytype.robofont.layerData'
p2
(dp3
s."
LayerCount: 2
UndoRedoHistory
Layer: 1
Undoes
UndoOperation
Index: 0
Type: 1
WasModified: 0
WasOrder2: 0
Width: 1198
VWidth: 0
LBearingChange: 0
UnicodeEnc: 0
InstructionsLength: 0
SplineSet
321 60 m 1
 321 209 l 1
 339 199 440 117 607 117 c 0
 755 117 860 194 860 324 c 2
 860 742 l 2
 860 869 752 934 614 934 c 0
 474 934 377 842 367 821 c 1
 338 967 l 1
 388 1022 512 1076 643 1076 c 0
 914 1076 1048 933 1048 729 c 2
 1048 344 l 2
 1048 131 895 -24 619 -24 c 0
 451 -24 361 40 321 60 c 1
369 -371 m 1
 181 -371 l 1
 181 1060 l 1
 329 1060 l 1
 369 913 l 1
 369 -371 l 1
EndSplineSet
EndUndoOperation
EndUndoes
Redoes
EndRedoes
EndUndoRedoHistory
Fore
SplineSet
321 60 m 1
 321 209 l 1
 339 199 440 117 607 117 c 0
 755 117 860 194 860 324 c 2
 860 742 l 2
 860 869 752 934 614 934 c 0
 474 934 377 842 367 821 c 1
 338 967 l 1
 388 1022 512 1076 643 1076 c 0
 914 1076 1048 933 1048 729 c 2
 1048 344 l 2
 1048 131 895 -24 619 -24 c 0
 451 -24 361 40 321 60 c 1
369 -371 m 1
 181 -371 l 1
 181 1060 l 1
 329 1060 l 1
 369 913 l 1
 369 -371 l 1
EndSplineSet
EndChar

StartChar: percent
Encoding: 5 37 113
Width: 2107
VWidth: 0
Flags: W
PickledData: "(dp1
S'com.typemytype.robofont.layerData'
p2
(dp3
s."
LayerCount: 2
UndoRedoHistory
Layer: 1
Undoes
UndoOperation
Index: 0
Type: 1
WasModified: 0
WasOrder2: 0
Width: 2107
VWidth: 0
LBearingChange: 0
UnicodeEnc: 0
InstructionsLength: 0
SplineSet
1456 343 m 2
 1456 202 1473 97 1611 97 c 0
 1749 97 1768 202 1768 343 c 2
 1768 436 l 2
 1768 574 1755 668 1611 668 c 0
 1468 668 1456 574 1456 438 c 2
 1456 343 l 2
1313 360 m 2
 1313 413 l 2
 1313 646 1380 784 1611 784 c 0
 1841 784 1911 647 1913 414 c 1
 1913 360 l 2
 1913 131 1841 -19 1611 -19 c 0
 1381 -19 1313 132 1313 360 c 2
1248 1446 m 1
 1397 1446 l 1
 859 0 l 1
 705 0 l 1
 1248 1446 l 1
209 1037 m 2
 209 1090 l 2
 209 1323 276 1461 507 1461 c 0
 737 1461 807 1324 809 1091 c 1
 809 1037 l 2
 809 808 737 658 507 658 c 0
 277 658 209 809 209 1037 c 2
352 1020 m 2
 352 879 369 774 507 774 c 0
 645 774 664 879 664 1020 c 2
 664 1113 l 2
 664 1251 651 1345 507 1345 c 0
 364 1345 352 1251 352 1115 c 2
 352 1020 l 2
EndSplineSet
EndUndoOperation
EndUndoes
Redoes
EndRedoes
EndUndoRedoHistory
Fore
SplineSet
1456 343 m 2
 1456 202 1473 97 1611 97 c 0
 1749 97 1768 202 1768 343 c 2
 1768 436 l 2
 1768 574 1755 668 1611 668 c 0
 1468 668 1456 574 1456 438 c 2
 1456 343 l 2
1313 360 m 2
 1313 413 l 2
 1313 646 1380 784 1611 784 c 0
 1841 784 1911 647 1913 414 c 1
 1913 360 l 2
 1913 131 1841 -19 1611 -19 c 0
 1381 -19 1313 132 1313 360 c 2
1248 1446 m 1
 1397 1446 l 1
 859 0 l 1
 705 0 l 1
 1248 1446 l 1
209 1037 m 2
 209 1090 l 2
 209 1323 276 1461 507 1461 c 0
 737 1461 807 1324 809 1091 c 1
 809 1037 l 2
 809 808 737 658 507 658 c 0
 277 658 209 809 209 1037 c 2
352 1020 m 2
 352 879 369 774 507 774 c 0
 645 774 664 879 664 1020 c 2
 664 1113 l 2
 664 1251 651 1345 507 1345 c 0
 364 1345 352 1251 352 1115 c 2
 352 1020 l 2
EndSplineSet
EndChar

StartChar: period
Encoding: 14 46 114
Width: 481
VWidth: 0
Flags: W
PickledData: "(dp1
S'com.typemytype.robofont.layerData'
p2
(dp3
s."
LayerCount: 2
UndoRedoHistory
Layer: 1
Undoes
UndoOperation
Index: 0
Type: 1
WasModified: 0
WasOrder2: 0
Width: 481
VWidth: 0
LBearingChange: 0
UnicodeEnc: 0
InstructionsLength: 0
SplineSet
141 206 m 1
 346 206 l 1
 346 0 l 1
 141 0 l 1
 141 206 l 1
EndSplineSet
EndUndoOperation
EndUndoes
Redoes
EndRedoes
EndUndoRedoHistory
Fore
SplineSet
141 206 m 1
 346 206 l 1
 346 0 l 1
 141 0 l 1
 141 206 l 1
EndSplineSet
EndChar

StartChar: periodcentered
Encoding: 418 183 115
Width: 412
VWidth: 0
Flags: W
PickledData: "(dp1
S'com.typemytype.robofont.layerData'
p2
(dp3
s."
LayerCount: 2
UndoRedoHistory
Layer: 1
Undoes
UndoOperation
Index: 0
Type: 1
WasModified: 0
WasOrder2: 0
Width: 412
VWidth: 0
LBearingChange: 0
UnicodeEnc: 0
InstructionsLength: 0
SplineSet
108 1446 m 1
 313 1446 l 1
 313 1240 l 1
 108 1240 l 1
 108 1446 l 1
EndSplineSet
EndUndoOperation
EndUndoes
Redoes
EndRedoes
EndUndoRedoHistory
Fore
SplineSet
108 1446 m 1
 313 1446 l 1
 313 1240 l 1
 108 1240 l 1
 108 1446 l 1
EndSplineSet
EndChar

StartChar: perthousand
Encoding: 398 8240 116
Width: 2886
VWidth: 0
Flags: W
PickledData: "(dp1
S'com.typemytype.robofont.layerData'
p2
(dp3
s."
LayerCount: 2
UndoRedoHistory
Layer: 1
Undoes
UndoOperation
Index: 0
Type: 1
WasModified: 0
WasOrder2: 0
Width: 2886
VWidth: 0
LBearingChange: 0
UnicodeEnc: 0
Refer: 113 37 N 1 0 0 1 0 0 2
InstructionsLength: 0
SplineSet
2092 360 m 2
 2092 413 l 2
 2092 646 2159 784 2390 784 c 0
 2620 784 2690 647 2692 414 c 1
 2692 360 l 2
 2692 131 2620 -19 2390 -19 c 0
 2160 -19 2092 132 2092 360 c 2
2235 343 m 2
 2235 202 2252 97 2390 97 c 0
 2528 97 2547 202 2547 343 c 2
 2547 436 l 2
 2547 574 2534 668 2390 668 c 0
 2247 668 2235 574 2235 438 c 2
 2235 343 l 2
EndSplineSet
EndUndoOperation
EndUndoes
Redoes
EndRedoes
EndUndoRedoHistory
Fore
SplineSet
2092 360 m 2
 2092 413 l 2
 2092 646 2159 784 2390 784 c 0
 2620 784 2690 647 2692 414 c 1
 2692 360 l 2
 2692 131 2620 -19 2390 -19 c 0
 2160 -19 2092 132 2092 360 c 2
2235 343 m 2
 2235 202 2252 97 2390 97 c 0
 2528 97 2547 202 2547 343 c 2
 2547 436 l 2
 2547 574 2534 668 2390 668 c 0
 2247 668 2235 574 2235 438 c 2
 2235 343 l 2
EndSplineSet
Refer: 113 37 N 1 0 0 1 0 0 2
EndChar

StartChar: plus
Encoding: 11 43 117
Width: 942
VWidth: 0
Flags: W
PickledData: "(dp1
S'com.typemytype.robofont.layerData'
p2
(dp3
s."
LayerCount: 2
UndoRedoHistory
Layer: 1
Undoes
UndoOperation
Index: 0
Type: 1
WasModified: 0
WasOrder2: 0
Width: 942
VWidth: 0
LBearingChange: 0
UnicodeEnc: 0
InstructionsLength: 0
SplineSet
547 968 m 1
 547 642 l 1
 822 642 l 1
 822 494 l 1
 547 494 l 1
 547 156 l 1
 396 156 l 1
 396 494 l 1
 120 494 l 1
 120 642 l 1
 396 642 l 1
 396 968 l 1
 547 968 l 1
EndSplineSet
EndUndoOperation
EndUndoes
Redoes
EndRedoes
EndUndoRedoHistory
Fore
SplineSet
547 968 m 1
 547 642 l 1
 822 642 l 1
 822 494 l 1
 547 494 l 1
 547 156 l 1
 396 156 l 1
 396 494 l 1
 120 494 l 1
 120 642 l 1
 396 642 l 1
 396 968 l 1
 547 968 l 1
EndSplineSet
EndChar

StartChar: plusminus
Encoding: 112 177 118
Width: 910
VWidth: 0
Flags: W
PickledData: "(dp1
S'com.typemytype.robofont.layerData'
p2
(dp3
s."
LayerCount: 2
UndoRedoHistory
Layer: 1
Undoes
UndoOperation
Index: 0
Type: 1
WasModified: 0
WasOrder2: 0
Width: 910
VWidth: 0
LBearingChange: 0
UnicodeEnc: 0
InstructionsLength: 0
SplineSet
512 992 m 1
 512 726 l 1
 765 726 l 1
 765 611 l 1
 512 611 l 1
 512 334 l 1
 391 334 l 1
 391 611 l 1
 138 611 l 1
 138 726 l 1
 391 726 l 1
 391 992 l 1
 512 992 l 1
765 120 m 1
 765 0 l 1
 138 0 l 1
 138 120 l 1
 765 120 l 1
EndSplineSet
EndUndoOperation
EndUndoes
Redoes
EndRedoes
EndUndoRedoHistory
Fore
SplineSet
512 992 m 1
 512 726 l 1
 765 726 l 1
 765 611 l 1
 512 611 l 1
 512 334 l 1
 391 334 l 1
 391 611 l 1
 138 611 l 1
 138 726 l 1
 391 726 l 1
 391 992 l 1
 512 992 l 1
765 120 m 1
 765 0 l 1
 138 0 l 1
 138 120 l 1
 765 120 l 1
EndSplineSet
EndChar

StartChar: q
Encoding: 81 113 119
Width: 1198
VWidth: 0
Flags: W
PickledData: "(dp1
S'com.typemytype.robofont.layerData'
p2
(dp3
s."
LayerCount: 2
UndoRedoHistory
Layer: 1
Undoes
UndoOperation
Index: 0
Type: 1
WasModified: 0
WasOrder2: 0
Width: 1198
VWidth: 0
LBearingChange: 0
UnicodeEnc: 0
InstructionsLength: 0
SplineSet
1017 -371 m 1
 829 -371 l 1
 829 47 l 1
 764 -3 643 -24 570 -24 c 0
 299 -24 150 110 150 314 c 2
 150 728 l 2
 150 941 281 1076 557 1076 c 0
 665 1076 799 1025 829 975 c 1
 829 1060 l 1
 1017 1060 l 1
 1017 -371 l 1
585 935 m 0
 437 935 338 878 338 748 c 2
 338 284 l 2
 338 157 444 118 582 118 c 0
 722 118 819 180 829 201 c 1
 829 810 l 2
 829 869 752 935 585 935 c 0
EndSplineSet
EndUndoOperation
EndUndoes
Redoes
EndRedoes
EndUndoRedoHistory
Fore
SplineSet
1017 -371 m 1
 829 -371 l 1
 829 47 l 1
 764 -3 643 -24 570 -24 c 0
 299 -24 150 110 150 314 c 2
 150 728 l 2
 150 941 281 1076 557 1076 c 0
 665 1076 799 1025 829 975 c 1
 829 1060 l 1
 1017 1060 l 1
 1017 -371 l 1
585 935 m 0
 437 935 338 878 338 748 c 2
 338 284 l 2
 338 157 444 118 582 118 c 0
 722 118 819 180 829 201 c 1
 829 810 l 2
 829 869 752 935 585 935 c 0
EndSplineSet
EndChar

StartChar: quotedbl
Encoding: 2 34 120
Width: 752
VWidth: 0
Flags: W
PickledData: "(dp1
S'com.typemytype.robofont.layerData'
p2
(dp3
s."
LayerCount: 2
UndoRedoHistory
Layer: 1
Undoes
UndoOperation
Index: 0
Type: 1
WasModified: 0
WasOrder2: 0
Width: 752
VWidth: 0
LBearingChange: 0
UnicodeEnc: 0
InstructionsLength: 0
SplineSet
630 1446 m 1
 561 870 l 1
 489 870 l 1
 425 1446 l 1
 630 1446 l 1
327 1446 m 1
 258 870 l 1
 186 870 l 1
 122 1446 l 1
 327 1446 l 1
EndSplineSet
EndUndoOperation
EndUndoes
Redoes
EndRedoes
EndUndoRedoHistory
Fore
SplineSet
630 1446 m 1
 561 870 l 1
 489 870 l 1
 425 1446 l 1
 630 1446 l 1
327 1446 m 1
 258 870 l 1
 186 870 l 1
 122 1446 l 1
 327 1446 l 1
EndSplineSet
EndChar

StartChar: quotesingle
Encoding: 7 39 121
Width: 583
VWidth: 0
Flags: W
PickledData: "(dp1
S'com.typemytype.robofont.layerData'
p2
(dp3
s."
LayerCount: 2
UndoRedoHistory
Layer: 1
Undoes
UndoOperation
Index: 0
Type: 1
WasModified: 0
WasOrder2: 0
Width: 583
VWidth: 0
LBearingChange: 0
UnicodeEnc: 0
InstructionsLength: 0
SplineSet
414 1446 m 1
 345 870 l 1
 273 870 l 1
 209 1446 l 1
 414 1446 l 1
EndSplineSet
EndUndoOperation
EndUndoes
Redoes
EndRedoes
EndUndoRedoHistory
Fore
SplineSet
414 1446 m 1
 345 870 l 1
 273 870 l 1
 209 1446 l 1
 414 1446 l 1
EndSplineSet
EndChar

StartChar: r
Encoding: 82 114 122
Width: 776
VWidth: 0
Flags: W
PickledData: "(dp1
S'com.typemytype.robofont.layerData'
p2
(dp3
s."
LayerCount: 2
UndoRedoHistory
Layer: 1
Undoes
UndoOperation
Index: 0
Type: 1
WasModified: 0
WasOrder2: 0
Width: 776
VWidth: 0
LBearingChange: 0
UnicodeEnc: 0
InstructionsLength: 0
SplineSet
184 0 m 1
 184 1060 l 1
 372 1060 l 1
 372 950 l 1
 423 1027 628 1088 718 1075 c 1
 712 914 l 1
 593 904 402 893 372 812 c 1
 372 0 l 1
 184 0 l 1
EndSplineSet
EndUndoOperation
EndUndoes
Redoes
EndRedoes
EndUndoRedoHistory
Fore
SplineSet
184 0 m 1
 184 1060 l 1
 372 1060 l 1
 372 950 l 1
 423 1027 628 1088 718 1075 c 1
 712 914 l 1
 593 904 402 893 372 812 c 1
 372 0 l 1
 184 0 l 1
EndSplineSet
EndChar

StartChar: registered
Encoding: 109 174 123
Width: 1857
VWidth: 0
Flags: HW
PickledData: "(dp1
S'com.typemytype.robofont.layerData'
p2
(dp3
s."
LayerCount: 2
UndoRedoHistory
Layer: 1
Undoes
UndoOperation
Index: 0
Type: 1
WasModified: 0
WasOrder2: 0
Width: 1857
VWidth: 0
LBearingChange: 0
UnicodeEnc: 0
InstructionsLength: 0
SplineSet
930 82 m 0
 566 82 281 357 281 722 c 0
 281 1086 566 1361 930 1361 c 0
 1296 1361 1579 1086 1579 722 c 0
 1579 357 1296 82 930 82 c 0
928 -14 m 0
 1344 -14 1685 303 1685 722 c 0
 1685 1139 1344 1456 928 1456 c 0
 515 1456 172 1139 172 722 c 0
 172 303 515 -14 928 -14 c 0
747 1068 m 1
 1023 1068 l 2
 1141 1068 1150 966 1150 907 c 2
 1150 865 l 1
 1149 802 1128 730 1014 730 c 2
 747 730 l 1
 747 1068 l 1
616 307 m 1
 747 307 l 1
 747 640 l 1
 1006 640 l 1
 1186 307 l 1
 1314 307 l 1
 1130 654 l 1
 1222 679 1282 748 1282 882 c 2
 1282 914 l 1
 1278 1088 1176 1159 1019 1159 c 2
 616 1159 l 1
 616 307 l 1
EndSplineSet
EndUndoOperation
EndUndoes
Redoes
EndRedoes
EndUndoRedoHistory
Fore
SplineSet
930 82 m 0
 1296 82 1579 357 1579 722 c 0
 1579 1086 1296 1361 930 1361 c 0
 566 1361 281 1086 281 722 c 0
 281 357 566 82 930 82 c 0
928 -14 m 0
 515 -14 172 303 172 722 c 0
 172 1139 515 1456 928 1456 c 0
 1344 1456 1685 1139 1685 722 c 0
 1685 303 1344 -14 928 -14 c 0
747 1068 m 1
 747 730 l 1
 1014 730 l 2
 1128 730 1149 802 1150 865 c 1
 1150 907 l 2
 1150 966 1141 1068 1023 1068 c 2
 747 1068 l 1
616 307 m 1
 616 1159 l 1
 1019 1159 l 2
 1176 1159 1278 1088 1282 914 c 1
 1282 882 l 2
 1282 748 1222 679 1130 654 c 1
 1314 307 l 1
 1186 307 l 1
 1006 640 l 1
 747 640 l 1
 747 307 l 1
 616 307 l 1
EndSplineSet
EndChar

StartChar: ring
Encoding: 357 730 124
Width: 626
VWidth: 0
Flags: HW
PickledData: "(dp1
S'com.typemytype.robofont.layerData'
p2
(dp3
s."
LayerCount: 2
UndoRedoHistory
Layer: 1
Undoes
UndoOperation
Index: 0
Type: 1
WasModified: 0
WasOrder2: 0
Width: 626
VWidth: 0
LBearingChange: 0
UnicodeEnc: 0
InstructionsLength: 0
SplineSet
309 1275 m 0
 252 1275 200 1301 200 1389 c 0
 200 1476 253 1501 309 1501 c 0
 367 1501 417 1474 417 1387 c 0
 417 1300 366 1275 309 1275 c 0
309 1210 m 0
 409 1210 503 1265 503 1388 c 0
 503 1511 409 1566 309 1566 c 0
 209 1566 114 1511 114 1388 c 0
 114 1265 209 1210 309 1210 c 0
EndSplineSet
EndUndoOperation
EndUndoes
Redoes
EndRedoes
EndUndoRedoHistory
Fore
SplineSet
309 1275 m 0
 366 1275 417 1300 417 1387 c 0
 417 1474 367 1501 309 1501 c 0
 253 1501 200 1476 200 1389 c 0
 200 1301 252 1275 309 1275 c 0
309 1210 m 0
 209 1210 114 1265 114 1388 c 0
 114 1511 209 1566 309 1566 c 0
 409 1566 503 1511 503 1388 c 0
 503 1265 409 1210 309 1210 c 0
EndSplineSet
EndChar

StartChar: s
Encoding: 83 115 125
Width: 947
VWidth: 0
Flags: W
PickledData: "(dp1
S'com.typemytype.robofont.layerData'
p2
(dp3
s."
LayerCount: 2
UndoRedoHistory
Layer: 1
Undoes
UndoOperation
Index: 0
Type: 1
WasModified: 0
WasOrder2: 0
Width: 947
VWidth: 0
LBearingChange: 0
UnicodeEnc: 0
InstructionsLength: 0
SplineSet
115 150 m 1
 208 259 l 1
 251 212 342 128 486 125 c 0
 619 123 679 170 689 270 c 0
 696 348 663 394 575 430 c 2
 348 524 l 2
 211 581 126 657 131 817 c 0
 137 1009 299 1081 482 1081 c 0
 677 1081 783 991 834 930 c 1
 758 823 l 1
 705 878 613 935 494 937 c 0
 385 939 311 897 307 825 c 0
 303 765 323 714 409 678 c 2
 643 579 l 2
 777 522 858 448 854 273 c 1
 851 84 709 -23 487 -20 c 1
 334 -16 200 46 115 150 c 1
EndSplineSet
EndUndoOperation
EndUndoes
Redoes
EndRedoes
EndUndoRedoHistory
Fore
SplineSet
115 150 m 1
 208 259 l 1
 251 212 342 128 486 125 c 0
 619 123 679 170 689 270 c 0
 696 348 663 394 575 430 c 2
 348 524 l 2
 211 581 126 657 131 817 c 0
 137 1009 299 1081 482 1081 c 0
 677 1081 783 991 834 930 c 1
 758 823 l 1
 705 878 613 935 494 937 c 0
 385 939 311 897 307 825 c 0
 303 765 323 714 409 678 c 2
 643 579 l 2
 777 522 858 448 854 273 c 1
 851 84 709 -23 487 -20 c 1
 334 -16 200 46 115 150 c 1
EndSplineSet
EndChar

StartChar: semicolon
Encoding: 27 59 126
Width: 684
VWidth: 0
Flags: HW
PickledData: "(dp1
S'com.typemytype.robofont.layerData'
p2
(dp3
s."
LayerCount: 2
UndoRedoHistory
Layer: 1
Undoes
UndoOperation
Index: 0
Type: 1
WasModified: 0
WasOrder2: 0
Width: 684
VWidth: 0
LBearingChange: 0
UnicodeEnc: 0
InstructionsLength: 0
SplineSet
257 421 m 1
 257 210 l 1
 375 210 l 1
 375 78 308 -29 261 -84 c 1
 342 -128 l 1
 400 -74 491 69 491 260 c 2
 491 421 l 1
 257 421 l 1
263 1084 m 1
 468 1084 l 1
 468 878 l 1
 263 878 l 1
 263 1084 l 1
EndSplineSet
EndUndoOperation
EndUndoes
Redoes
EndRedoes
EndUndoRedoHistory
Fore
SplineSet
257 421 m 1
 491 421 l 1
 491 260 l 2
 491 69 400 -74 342 -128 c 1
 261 -84 l 1
 308 -29 375 78 375 210 c 1
 257 210 l 1
 257 421 l 1
263 1084 m 1
 468 1084 l 1
 468 878 l 1
 263 878 l 1
 263 1084 l 1
EndSplineSet
EndChar

StartChar: seven
Encoding: 23 55 127
Width: 1130
VWidth: 0
Flags: W
PickledData: "(dp1
S'com.typemytype.robofont.layerData'
p2
(dp3
s."
LayerCount: 2
UndoRedoHistory
Layer: 1
Undoes
UndoOperation
Index: 0
Type: 1
WasModified: 0
WasOrder2: 0
Width: 1130
VWidth: 0
LBearingChange: 0
UnicodeEnc: 0
InstructionsLength: 0
SplineSet
505 0 m 1
 294 0 l 1
 794 1291 l 1
 114 1291 l 1
 114 1446 l 1
 995 1446 l 1
 995 1289 l 1
 505 0 l 1
EndSplineSet
EndUndoOperation
EndUndoes
Redoes
EndRedoes
EndUndoRedoHistory
Fore
SplineSet
505 0 m 1
 294 0 l 1
 794 1291 l 1
 114 1291 l 1
 114 1446 l 1
 995 1446 l 1
 995 1289 l 1
 505 0 l 1
EndSplineSet
EndChar

StartChar: slash
Encoding: 15 47 128
Width: 979
VWidth: 0
Flags: W
PickledData: "(dp1
S'com.typemytype.robofont.layerData'
p2
(dp3
s."
LayerCount: 2
UndoRedoHistory
Layer: 1
Undoes
UndoOperation
Index: 0
Type: 1
WasModified: 0
WasOrder2: 0
Width: 979
VWidth: 0
LBearingChange: 0
UnicodeEnc: 0
InstructionsLength: 0
SplineSet
665 1446 m 1
 858 1446 l 1
 320 0 l 1
 125 0 l 1
 665 1446 l 1
EndSplineSet
EndUndoOperation
EndUndoes
Redoes
EndRedoes
EndUndoRedoHistory
Fore
SplineSet
665 1446 m 1
 858 1446 l 1
 320 0 l 1
 125 0 l 1
 665 1446 l 1
EndSplineSet
EndChar

StartChar: t
Encoding: 84 116 130
Width: 790
VWidth: 0
Flags: W
PickledData: "(dp1
S'com.typemytype.robofont.layerData'
p2
(dp3
s."
LayerCount: 2
UndoRedoHistory
Layer: 1
Undoes
UndoOperation
Index: 0
Type: 1
WasModified: 0
WasOrder2: 0
Width: 790
VWidth: 0
LBearingChange: 0
UnicodeEnc: 0
InstructionsLength: 0
SplineSet
592 -5 m 2
 353 -5 235 120 235 323 c 2
 235 944 l 1
 58 944 l 1
 58 1061 l 1
 242 1061 l 1
 265 1388 l 1
 422 1388 l 1
 422 1061 l 1
 700 1061 l 1
 700 944 l 1
 422 944 l 1
 422 315 l 2
 422 195 468 141 619 141 c 2
 710 141 l 1
 710 -5 l 1
 592 -5 l 2
EndSplineSet
EndUndoOperation
EndUndoes
Redoes
EndRedoes
EndUndoRedoHistory
Fore
SplineSet
592 -5 m 2
 353 -5 235 120 235 323 c 2
 235 944 l 1
 58 944 l 1
 58 1061 l 1
 242 1061 l 1
 265 1388 l 1
 422 1388 l 1
 422 1061 l 1
 700 1061 l 1
 700 944 l 1
 422 944 l 1
 422 315 l 2
 422 195 468 141 619 141 c 2
 710 141 l 1
 710 -5 l 1
 592 -5 l 2
EndSplineSet
EndChar

StartChar: threesuperior
Encoding: 114 179 131
Width: 428
VWidth: 0
Flags: W
PickledData: "(dp1
S'com.typemytype.robofont.layerData'
p2
(dp3
s."
LayerCount: 2
UndoRedoHistory
Layer: 1
Undoes
UndoOperation
Index: 0
Type: 1
WasModified: 0
WasOrder2: 0
Width: 428
VWidth: 0
LBearingChange: 0
UnicodeEnc: 0
InstructionsLength: 0
SplineSet
387 1420 m 2
 387 1289 l 2
 387 1212 374 1174 315 1162 c 1
 374 1149 387 1109 387 1034 c 2
 387 818 l 2
 387 674 375 636 217 636 c 0
 49 636 37 668 37 818 c 2
 37 1046 l 1
 186 1046 l 1
 186 771 l 2
 186 749 193 735 213 735 c 0
 231 735 238 749 238 771 c 2
 238 1079 l 2
 238 1098 229 1107 211 1107 c 2
 156 1107 l 1
 156 1215 l 1
 211 1215 l 2
 229 1215 238 1225 238 1242 c 2
 238 1467 l 2
 238 1489 231 1500 213 1500 c 0
 193 1500 186 1489 186 1467 c 2
 186 1272 l 1
 37 1272 l 1
 37 1420 l 2
 37 1568 49 1602 213 1602 c 0
 375 1602 387 1568 387 1420 c 2
EndSplineSet
EndUndoOperation
EndUndoes
Redoes
EndRedoes
EndUndoRedoHistory
Fore
SplineSet
387 1420 m 2
 387 1289 l 2
 387 1212 374 1174 315 1162 c 1
 374 1149 387 1109 387 1034 c 2
 387 818 l 2
 387 674 375 636 217 636 c 0
 49 636 37 668 37 818 c 2
 37 1046 l 1
 186 1046 l 1
 186 771 l 2
 186 749 193 735 213 735 c 0
 231 735 238 749 238 771 c 2
 238 1079 l 2
 238 1098 229 1107 211 1107 c 2
 156 1107 l 1
 156 1215 l 1
 211 1215 l 2
 229 1215 238 1225 238 1242 c 2
 238 1467 l 2
 238 1489 231 1500 213 1500 c 0
 193 1500 186 1489 186 1467 c 2
 186 1272 l 1
 37 1272 l 1
 37 1420 l 2
 37 1568 49 1602 213 1602 c 0
 375 1602 387 1568 387 1420 c 2
EndSplineSet
EndChar

StartChar: trademark
Encoding: 403 8482 132
Width: 1698
VWidth: 0
Flags: W
PickledData: "(dp1
S'com.typemytype.robofont.layerData'
p2
(dp3
s."
LayerCount: 2
UndoRedoHistory
Layer: 1
Undoes
UndoOperation
Index: 0
Type: 1
WasModified: 0
WasOrder2: 0
Width: 1698
VWidth: 0
LBearingChange: 0
UnicodeEnc: 0
InstructionsLength: 0
SplineSet
670 1446 m 1
 670 1332 l 1
 458 1332 l 1
 458 766 l 1
 323 766 l 1
 323 1332 l 1
 111 1332 l 1
 111 1446 l 1
 670 1446 l 1
1021 1446 m 1
 1205 1033 l 1
 1391 1446 l 1
 1587 1446 l 1
 1587 766 l 1
 1460 766 l 1
 1460 1329 l 1
 1288 931 l 1
 1127 931 l 1
 948 1329 l 1
 948 766 l 1
 823 766 l 1
 823 1446 l 1
 1021 1446 l 1
EndSplineSet
EndUndoOperation
EndUndoes
Redoes
EndRedoes
EndUndoRedoHistory
Fore
SplineSet
670 1446 m 1
 670 1332 l 1
 458 1332 l 1
 458 766 l 1
 323 766 l 1
 323 1332 l 1
 111 1332 l 1
 111 1446 l 1
 670 1446 l 1
1021 1446 m 1
 1205 1033 l 1
 1391 1446 l 1
 1587 1446 l 1
 1587 766 l 1
 1460 766 l 1
 1460 1329 l 1
 1288 931 l 1
 1127 931 l 1
 948 1329 l 1
 948 766 l 1
 823 766 l 1
 823 1446 l 1
 1021 1446 l 1
EndSplineSet
EndChar

StartChar: twosuperior
Encoding: 113 178 133
Width: 428
VWidth: 0
Flags: W
PickledData: "(dp1
S'com.typemytype.robofont.layerData'
p2
(dp3
s."
LayerCount: 2
UndoRedoHistory
Layer: 1
Undoes
UndoOperation
Index: 0
Type: 1
WasModified: 0
WasOrder2: 0
Width: 428
VWidth: 0
LBearingChange: 0
UnicodeEnc: 0
InstructionsLength: 0
SplineSet
389 1420 m 2
 389 1296 l 2
 389 1253 374 1213 360 1174 c 1
 195 751 l 1
 389 751 l 1
 389 639 l 1
 41 639 l 1
 41 751 l 1
 217 1197 l 2
 227 1225 240 1257 240 1300 c 2
 240 1467 l 2
 240 1489 233 1500 213 1500 c 0
 193 1500 188 1489 188 1467 c 2
 188 1272 l 1
 39 1272 l 1
 39 1420 l 2
 39 1568 51 1602 213 1602 c 0
 375 1602 389 1568 389 1420 c 2
EndSplineSet
EndUndoOperation
EndUndoes
Redoes
EndRedoes
EndUndoRedoHistory
Fore
SplineSet
389 1420 m 2
 389 1296 l 2
 389 1253 374 1213 360 1174 c 1
 195 751 l 1
 389 751 l 1
 389 639 l 1
 41 639 l 1
 41 751 l 1
 217 1197 l 2
 227 1225 240 1257 240 1300 c 2
 240 1467 l 2
 240 1489 233 1500 213 1500 c 0
 193 1500 188 1489 188 1467 c 2
 188 1272 l 1
 39 1272 l 1
 39 1420 l 2
 39 1568 51 1602 213 1602 c 0
 375 1602 389 1568 389 1420 c 2
EndSplineSet
EndChar

StartChar: u
Encoding: 85 117 134
Width: 1197
VWidth: 0
Flags: W
PickledData: "(dp1
S'com.typemytype.robofont.layerData'
p2
(dp3
s."
LayerCount: 2
UndoRedoHistory
Layer: 1
Undoes
UndoOperation
Index: 0
Type: 1
WasModified: 0
WasOrder2: 0
Width: 1197
VWidth: 0
LBearingChange: 0
UnicodeEnc: 0
InstructionsLength: 0
SplineSet
1024 1060 m 1
 1024 0 l 1
 836 0 l 1
 836 103 l 1
 774 31 682 -20 528 -20 c 0
 267 -20 174 122 174 290 c 2
 174 1060 l 1
 362 1060 l 1
 362 285 l 2
 362 180 445 122 576 122 c 0
 760 122 836 208 836 297 c 2
 836 1060 l 1
 1024 1060 l 1
EndSplineSet
EndUndoOperation
EndUndoes
Redoes
EndRedoes
EndUndoRedoHistory
Fore
SplineSet
1024 1060 m 1
 1024 0 l 1
 836 0 l 1
 836 103 l 1
 774 31 682 -20 528 -20 c 0
 267 -20 174 122 174 290 c 2
 174 1060 l 1
 362 1060 l 1
 362 285 l 2
 362 180 445 122 576 122 c 0
 760 122 836 208 836 297 c 2
 836 1060 l 1
 1024 1060 l 1
EndSplineSet
EndChar

StartChar: uacute
Encoding: 183 250 135
Width: 1197
VWidth: 0
Flags: HW
PickledData: "(dp1
S'com.typemytype.robofont.layerData'
p2
(dp3
s."
LayerCount: 2
UndoRedoHistory
Layer: 1
Undoes
UndoOperation
Index: 0
Type: 3
WasModified: 0
WasOrder2: 0
EndUndoOperation
UndoOperation
Index: 1
Type: 1
WasModified: 0
WasOrder2: 0
Width: 919
VWidth: 0
LBearingChange: 0
UnicodeEnc: 0
InstructionsLength: 0
SplineSet
119 1084 m 1
 409 1084 l 1
 409 259 l 2
 409 196 447 173 491 173 c 0
 546 173 603 209 603 245 c 2
 603 1084 l 1
 894 1084 l 1
 894 0 l 1
 603 0 l 1
 603 68 l 1
 550 26 482 -20 354 -20 c 0
 199 -20 119 88 119 223 c 2
 119 1084 l 1
412 1502 m 1
 677 1502 l 1
 469 1184 l 1
 308 1184 l 1
 412 1502 l 1
EndSplineSet
EndUndoOperation
EndUndoes
Redoes
EndRedoes
EndUndoRedoHistory
Fore
Refer: 43 180 N 1 0 0 1 302.5 47 2
Refer: 134 117 N 1 0 0 1 0 0 3
EndChar

StartChar: ucircumflex
Encoding: 184 251 136
Width: 1197
VWidth: 0
Flags: HW
PickledData: "(dp1
S'com.typemytype.robofont.layerData'
p2
(dp3
s."
LayerCount: 2
UndoRedoHistory
Layer: 1
Undoes
UndoOperation
Index: 0
Type: 3
WasModified: 0
WasOrder2: 0
EndUndoOperation
UndoOperation
Index: 1
Type: 1
WasModified: 0
WasOrder2: 0
Width: 1138
VWidth: 0
LBearingChange: 0
UnicodeEnc: 0
InstructionsLength: 0
SplineSet
988 1084 m 1
 988 0 l 1
 800 0 l 1
 800 106 l 1
 738 32 646 -20 492 -20 c 0
 231 -20 138 125 138 297 c 2
 138 1084 l 1
 326 1084 l 1
 326 292 l 2
 326 185 409 125 540 125 c 0
 724 125 800 213 800 304 c 2
 800 1084 l 1
 988 1084 l 1
440 1527 m 1
 650 1527 l 1
 888 1231 l 1
 712 1231 l 1
 553 1435 l 1
 394 1231 l 1
 213 1231 l 1
 440 1527 l 1
EndSplineSet
EndUndoOperation
EndUndoes
Redoes
EndRedoes
EndUndoRedoHistory
Fore
Refer: 60 710 N 1 0 0 1 -4.5 -312 2
Refer: 134 117 N 1 0 0 1 0 0 3
EndChar

StartChar: udieresis
Encoding: 185 252 137
Width: 1197
VWidth: 0
Flags: HW
PickledData: "(dp1
S'com.typemytype.robofont.layerData'
p2
(dp3
s."
LayerCount: 2
UndoRedoHistory
Layer: 1
Undoes
UndoOperation
Index: 0
Type: 3
WasModified: 0
WasOrder2: 0
EndUndoOperation
UndoOperation
Index: 1
Type: 1
WasModified: 0
WasOrder2: 0
Width: 1138
VWidth: 0
LBearingChange: 0
UnicodeEnc: 0
InstructionsLength: 0
SplineSet
988 1084 m 1
 988 0 l 1
 800 0 l 1
 800 106 l 1
 738 32 646 -20 492 -20 c 0
 231 -20 138 125 138 297 c 2
 138 1084 l 1
 326 1084 l 1
 326 292 l 2
 326 185 409 125 540 125 c 0
 724 125 800 213 800 304 c 2
 800 1084 l 1
 988 1084 l 1
700 1265 m 1
 700 1446 l 1
 906 1446 l 1
 906 1265 l 1
 700 1265 l 1
197 1265 m 1
 197 1446 l 1
 403 1446 l 1
 403 1265 l 1
 197 1265 l 1
EndSplineSet
EndUndoOperation
EndUndoes
Redoes
EndRedoes
EndUndoRedoHistory
Fore
Refer: 68 168 N 1 0 0 1 127.5 -63 2
Refer: 134 117 N 1 0 0 1 0 0 3
EndChar

StartChar: ugrave
Encoding: 182 249 138
Width: 1197
VWidth: 0
Flags: HW
PickledData: "(dp1
S'com.typemytype.robofont.layerData'
p2
(dp3
s."
LayerCount: 2
UndoRedoHistory
Layer: 1
Undoes
UndoOperation
Index: 0
Type: 3
WasModified: 0
WasOrder2: 0
EndUndoOperation
UndoOperation
Index: 1
Type: 1
WasModified: 0
WasOrder2: 0
Width: 1138
VWidth: 0
LBearingChange: 0
UnicodeEnc: 0
InstructionsLength: 0
SplineSet
988 1084 m 1
 988 0 l 1
 800 0 l 1
 800 106 l 1
 738 32 646 -20 492 -20 c 0
 231 -20 138 125 138 297 c 2
 138 1084 l 1
 326 1084 l 1
 326 292 l 2
 326 185 409 125 540 125 c 0
 724 125 800 213 800 304 c 2
 800 1084 l 1
 988 1084 l 1
296 1496 m 1
 521 1496 l 1
 659 1155 l 1
 553 1155 l 1
 296 1496 l 1
EndSplineSet
EndUndoOperation
EndUndoes
Redoes
EndRedoes
EndUndoRedoHistory
Fore
Refer: 86 96 N 1 0 0 1 302.5 47 2
Refer: 134 117 N 1 0 0 1 0 0 3
EndChar

StartChar: underscore
Encoding: 63 95 139
Width: 929
VWidth: 0
Flags: W
PickledData: "(dp1
S'com.typemytype.robofont.layerData'
p2
(dp3
s."
LayerCount: 2
UndoRedoHistory
Layer: 1
Undoes
UndoOperation
Index: 0
Type: 1
WasModified: 0
WasOrder2: 0
Width: 929
VWidth: 0
LBearingChange: 0
UnicodeEnc: 0
InstructionsLength: 0
SplineSet
915 89 m 1
 915 -82 l 1
 14 -82 l 1
 14 89 l 1
 915 89 l 1
EndSplineSet
EndUndoOperation
EndUndoes
Redoes
EndRedoes
EndUndoRedoHistory
Fore
SplineSet
915 89 m 1
 915 -82 l 1
 14 -82 l 1
 14 89 l 1
 915 89 l 1
EndSplineSet
EndChar

StartChar: v
Encoding: 86 118 140
Width: 1106
VWidth: 0
Flags: W
PickledData: "(dp1
S'com.typemytype.robofont.layerData'
p2
(dp3
s."
LayerCount: 2
UndoRedoHistory
Layer: 1
Undoes
UndoOperation
Index: 0
Type: 1
WasModified: 0
WasOrder2: 0
Width: 1106
VWidth: 0
LBearingChange: 0
UnicodeEnc: 0
InstructionsLength: 0
SplineSet
673 0 m 1
 465 0 l 1
 72 1060 l 1
 261 1060 l 1
 572 194 l 1
 848 1060 l 1
 1032 1060 l 1
 673 0 l 1
EndSplineSet
EndUndoOperation
EndUndoes
Redoes
EndRedoes
EndUndoRedoHistory
Fore
SplineSet
673 0 m 1
 465 0 l 1
 72 1060 l 1
 261 1060 l 1
 572 194 l 1
 848 1060 l 1
 1032 1060 l 1
 673 0 l 1
EndSplineSet
EndChar

StartChar: w
Encoding: 87 119 141
Width: 1597
VWidth: 0
Flags: W
PickledData: "(dp1
S'com.typemytype.robofont.layerData'
p2
(dp3
s."
LayerCount: 2
UndoRedoHistory
Layer: 1
Undoes
UndoOperation
Index: 0
Type: 1
WasModified: 0
WasOrder2: 0
Width: 1597
VWidth: 0
LBearingChange: 0
UnicodeEnc: 0
InstructionsLength: 0
SplineSet
1230 0 m 1
 1041 0 l 1
 757 1060 l 1
 928 1060 l 1
 1138 209 l 1
 1361 1060 l 1
 1527 1060 l 1
 1230 0 l 1
550 0 m 1
 362 0 l 1
 78 1060 l 1
 249 1060 l 1
 459 209 l 1
 681 1060 l 1
 848 1060 l 1
 550 0 l 1
EndSplineSet
EndUndoOperation
EndUndoes
Redoes
EndRedoes
EndUndoRedoHistory
Fore
SplineSet
1230 0 m 1
 1041 0 l 1
 757 1060 l 1
 928 1060 l 1
 1138 209 l 1
 1361 1060 l 1
 1527 1060 l 1
 1230 0 l 1
550 0 m 1
 362 0 l 1
 78 1060 l 1
 249 1060 l 1
 459 209 l 1
 681 1060 l 1
 848 1060 l 1
 550 0 l 1
EndSplineSet
EndChar

StartChar: x
Encoding: 88 120 142
Width: 1011
VWidth: 0
Flags: W
PickledData: "(dp1
S'com.typemytype.robofont.layerData'
p2
(dp3
s."
LayerCount: 2
UndoRedoHistory
Layer: 1
Undoes
UndoOperation
Index: 0
Type: 1
WasModified: 0
WasOrder2: 0
Width: 1011
VWidth: 0
LBearingChange: 0
UnicodeEnc: 0
InstructionsLength: 0
SplineSet
239 0 m 1
 59 0 l 1
 781 1060 l 1
 955 1060 l 1
 239 0 l 1
65 1060 m 1
 247 1060 l 1
 960 0 l 1
 784 0 l 1
 65 1060 l 1
EndSplineSet
EndUndoOperation
EndUndoes
Redoes
EndRedoes
EndUndoRedoHistory
Fore
SplineSet
239 0 m 1
 59 0 l 1
 781 1060 l 1
 955 1060 l 1
 239 0 l 1
65 1060 m 1
 247 1060 l 1
 960 0 l 1
 784 0 l 1
 65 1060 l 1
EndSplineSet
EndChar

StartChar: y
Encoding: 89 121 143
Width: 1143
VWidth: 0
Flags: HW
PickledData: "(dp1
S'com.typemytype.robofont.layerData'
p2
(dp3
s."
LayerCount: 2
UndoRedoHistory
Layer: 1
Undoes
UndoOperation
Index: 0
Type: 1
WasModified: 0
WasOrder2: 0
Width: 1143
VWidth: 0
LBearingChange: 0
UnicodeEnc: 0
InstructionsLength: 0
SplineSet
731 45 m 1
 550 -38 l 1
 79 1060 l 1
 278 1060 l 1
 618 216 l 1
 923 1060 l 1
 1113 1060 l 1
 731 45 l 1
237 -322 m 1
 237 -175 l 1
 335 -175 l 2
 418 -175 496 -144 535 15 c 1
 742 78 l 1
 644 -219 572 -322 342 -322 c 2
 237 -322 l 1
EndSplineSet
EndUndoOperation
EndUndoes
Redoes
EndRedoes
EndUndoRedoHistory
Fore
SplineSet
731 45 m 1
 1113 1060 l 1
 923 1060 l 1
 618 216 l 1
 278 1060 l 1
 79 1060 l 1
 550 -38 l 1
 731 45 l 1
237 -322 m 1
 237 -175 l 1
 335 -175 l 2
 418 -175 496 -144 535 15 c 1
 742 78 l 1
 644 -219 572 -322 342 -322 c 2
 237 -322 l 1
EndSplineSet
EndChar

StartChar: z
Encoding: 90 122 144
Width: 943
VWidth: 0
Flags: W
PickledData: "(dp1
S'com.typemytype.robofont.layerData'
p2
(dp3
s."
LayerCount: 2
UndoRedoHistory
Layer: 1
Undoes
UndoOperation
Index: 0
Type: 1
WasModified: 0
WasOrder2: 0
Width: 943
VWidth: 0
LBearingChange: 0
UnicodeEnc: 0
InstructionsLength: 0
SplineSet
163 1060 m 1
 829 1060 l 1
 829 945 l 1
 340 124 l 1
 837 124 l 1
 837 0 l 1
 145 0 l 1
 145 118 l 1
 631 937 l 1
 163 937 l 1
 163 1060 l 1
EndSplineSet
EndUndoOperation
EndUndoes
Redoes
EndRedoes
EndUndoRedoHistory
Fore
SplineSet
163 1060 m 1
 829 1060 l 1
 829 945 l 1
 340 124 l 1
 837 124 l 1
 837 0 l 1
 145 0 l 1
 145 118 l 1
 631 937 l 1
 163 937 l 1
 163 1060 l 1
EndSplineSet
EndChar

StartChar: zcaron
Encoding: 308 382 145
Width: 753
VWidth: 0
Flags: W
PickledData: "(dp1
S'com.typemytype.robofont.layerData'
p2
(dp3
s."
LayerCount: 2
UndoRedoHistory
Layer: 1
Undoes
UndoOperation
Index: 0
Type: 1
WasModified: 0
WasOrder2: 0
Width: 753
VWidth: 0
LBearingChange: 0
UnicodeEnc: 0
InstructionsLength: 0
SplineSet
87 1084 m 1
 713 1084 l 1
 713 906 l 1
 370 186 l 1
 715 186 l 1
 715 0 l 1
 46 0 l 1
 46 180 l 1
 385 898 l 1
 87 898 l 1
 87 1084 l 1
80 1445 m 1
 307 1445 l 1
 406 1302 l 1
 507 1445 l 1
 736 1445 l 1
 576 1149 l 1
 238 1149 l 1
 80 1445 l 1
EndSplineSet
EndUndoOperation
EndUndoes
Redoes
EndRedoes
EndUndoRedoHistory
Fore
SplineSet
87 1084 m 1
 713 1084 l 1
 713 906 l 1
 370 186 l 1
 715 186 l 1
 715 0 l 1
 46 0 l 1
 46 180 l 1
 385 898 l 1
 87 898 l 1
 87 1084 l 1
80 1445 m 1
 307 1445 l 1
 406 1302 l 1
 507 1445 l 1
 736 1445 l 1
 576 1149 l 1
 238 1149 l 1
 80 1445 l 1
EndSplineSet
EndChar

StartChar: zero
Encoding: 16 48 146
Width: 1386
VWidth: 0
Flags: HW
PickledData: "(dp1
S'com.typemytype.robofont.layerData'
p2
(dp3
s."
LayerCount: 2
UndoRedoHistory
Layer: 1
Undoes
UndoOperation
Index: 0
Type: 1
WasModified: 0
WasOrder2: 0
Width: 1386
VWidth: 0
LBearingChange: 0
UnicodeEnc: 0
InstructionsLength: 0
SplineSet
702 -24 m 0
 1167 -24 1216 233 1216 530 c 2
 1216 912 l 2
 1216 1218 1169 1483 702 1483 c 0
 217 1483 170 1231 170 925 c 2
 170 516 l 2
 170 215 219 -24 702 -24 c 0
702 126 m 0
 446 126 372 229 372 485 c 2
 372 962 l 2
 372 1219 448 1332 702 1332 c 0
 958 1332 1015 1219 1015 962 c 2
 1015 485 l 2
 1015 229 960 126 702 126 c 0
EndSplineSet
EndUndoOperation
EndUndoes
Redoes
EndRedoes
EndUndoRedoHistory
Fore
SplineSet
702 -24 m 0
 219 -24 170 215 170 516 c 2
 170 925 l 2
 170 1231 217 1483 702 1483 c 0
 1169 1483 1216 1218 1216 912 c 2
 1216 530 l 2
 1216 233 1167 -24 702 -24 c 0
702 126 m 0
 960 126 1015 229 1015 485 c 2
 1015 962 l 2
 1015 1219 958 1332 702 1332 c 0
 448 1332 372 1219 372 962 c 2
 372 485 l 2
 372 229 446 126 702 126 c 0
EndSplineSet
EndChar

